<svg width="291" height="298" viewBox="0 0 291 298" fill="none" xmlns="http://www.w3.org/2000/svg">
<rect width="288" height="298" fill="white"/>
<path d="M242.165 268.248L247.92 266.92C249.232 266.617 250.545 267.46 250.842 268.838L255.296 289.548C255.592 290.926 254.748 292.267 253.436 292.57L247.68 293.898C246.369 294.201 245.055 293.358 244.759 291.98L240.305 271.27C240.009 269.892 240.853 268.551 242.165 268.248ZM260.37 251.851C260.326 249.606 262.054 247.763 264.208 247.711C266.366 247.659 268.173 249.42 268.217 251.667L268.238 252.768L268.238 252.769C268.291 255.292 267.923 257.788 267.167 260.155L266.902 260.987L280.696 257.803C282.799 257.317 284.903 258.676 285.374 260.868C285.703 262.395 285.145 263.914 284.058 264.853L283.49 265.344L284.15 265.68C285.177 266.202 285.978 267.184 286.246 268.43C286.661 270.364 285.656 272.274 283.975 273.022L283.328 273.309L283.805 273.825C284.287 274.344 284.638 274.999 284.8 275.752C285.178 277.511 284.381 279.255 282.964 280.114L282.582 280.345L282.761 280.752C282.876 281.013 282.972 281.296 283.036 281.593C283.507 283.785 282.158 285.941 280.055 286.426L271.287 288.45C269.677 288.821 268.004 288.696 266.466 288.089L262.494 286.513C259.895 285.483 257.968 283.176 257.364 280.366L255.153 270.085C254.604 267.531 255.219 264.867 256.803 262.823L257.35 262.124L257.351 262.124C259.386 259.52 260.458 256.275 260.389 252.953L260.37 251.852L260.37 251.851Z" fill="#90DED5" stroke="#131515"/>
<path d="M115.75 261.377H178.94C181.978 261.377 184.44 263.839 184.44 266.877V268.555H110.25V266.877C110.25 263.839 112.712 261.377 115.75 261.377Z" fill="white" stroke="#131515"/>
<path d="M169.26 242.975L171.065 261.398H123.628L125.434 242.975H169.26Z" fill="white" stroke="#131515"/>
<path d="M124.979 239.409H169.713V242.476H124.979V239.409Z" fill="#131515"/>
<rect x="59.5" y="117.5" width="176.184" height="123.322" rx="6.5" fill="#90DED5" stroke="#131515"/>
<rect x="63.9512" y="123.238" width="167.28" height="111.846" rx="4.5" fill="white" stroke="#131515"/>
<circle cx="71.0189" cy="130.702" r="1.72593" fill="#90DED5" stroke="#131515"/>
<circle cx="80.8119" cy="130.702" r="1.72593" fill="#90DED5" stroke="#131515"/>
<line x1="63.4512" y1="140.407" x2="231.731" y2="140.407" stroke="#131515"/>
<path d="M96.335 175.351L140.784 151.48L170.34 178.058L200.354 154.68" stroke="#131515"/>
<ellipse cx="96.3355" cy="175.475" rx="3.55132" ry="3.81438" fill="#131515"/>
<ellipse cx="141.012" cy="151.481" rx="3.55132" ry="3.81438" fill="#131515"/>
<ellipse cx="198.292" cy="155.295" rx="3.55132" ry="3.81438" fill="#131515"/>
<rect x="90.5342" y="198.901" width="8.16469" height="26.0698" fill="#B8E6E1" stroke="#131515"/>
<rect x="105.589" y="195.456" width="8.16469" height="29.515" fill="#2F9387" stroke="#131515"/>
<rect x="120.646" y="192.503" width="8.16469" height="32.4681" fill="#B8E6E1" stroke="#131515"/>
<rect x="135.703" y="183.644" width="8.16469" height="41.3273" fill="#B8E6E1" stroke="#131515"/>
<rect x="150.758" y="195.456" width="8.16469" height="29.515" fill="#2F9387" stroke="#131515"/>
<rect x="165.815" y="198.901" width="8.16469" height="26.0698" fill="#B8E6E1" stroke="#131515"/>
<rect x="180.873" y="204.315" width="8.16469" height="20.6558" fill="#B8E6E1" stroke="#131515"/>
<rect x="195.928" y="180.691" width="8.16469" height="44.2804" fill="#2F9387" stroke="#131515"/>
<ellipse cx="170.551" cy="175.814" rx="3.55132" ry="3.81438" fill="#131515"/>
<path d="M97.7363 113.122C89.9444 113.464 79.3829 103.017 75.0762 97.7505L82.4308 91.5591L95.7486 101.38V78.9628H103.302L105.091 104.582C105.091 107.144 105.528 112.781 97.7363 113.122Z" fill="white" stroke="#131515"/>
<rect width="8.59437" height="40.0045" rx="4.29718" transform="matrix(0.958074 -0.286521 0.250938 0.968003 90.8076 54.7792)" fill="#2F9387"/>
<path d="M82.9065 64.018L75.9495 49.5001L117.692 6.16016L142.141 55.2646L82.9065 64.018Z" fill="white" stroke="#131515"/>
<rect width="19.4875" height="6.2636" rx="3.1318" transform="matrix(0.43955 0.898218 -0.870816 0.491609 78.3506 45.786)" fill="#131515"/>
<rect width="60.448" height="7.926" rx="3.963" transform="matrix(0.45024 0.892908 -0.86439 0.502821 122.404 0)" fill="#2F9387"/>
<path d="M83.5732 50.6959L100.469 34.0431" stroke="#131515"/>
<path d="M104.842 29.9868L119.551 15.042" stroke="#131515"/>
<path d="M143.083 23.2683C145.773 28.6301 145.234 34.8294 142.142 38.8299L130.466 15.5531C135.277 14.9794 140.394 17.9065 143.083 23.2683Z" fill="#131515"/>
<path d="M138.677 10.3983L144.243 3.56641" stroke="#131515"/>
<path d="M145.988 18.0301L160.1 6.07422" stroke="#131515"/>
<path d="M148.616 26.6238H157.362" stroke="#131515"/>
<path d="M28.8599 257.126V239.512H20.8096V257.126H28.8599Z" fill="white" stroke="#131515"/>
<path d="M60.3264 234.824L47.735 223.54L42.687 229.227L55.1689 241.463L60.3264 234.824Z" fill="white" stroke="#131515"/>
<path d="M56.1908 223.499L47.4448 235.242L35.717 223.499L34.3256 244.849H19.6164V202.577C17.7612 200.37 13.5738 194.933 11.6656 190.834C9.28028 185.71 7.82975 174.507 11.6656 169.911C16.8338 163.72 31.3523 150.127 39.6345 142.584H85.0128C81.9993 160.666 41.6802 169.911 41.6802 194.891C41.6802 197.564 50.8239 215.671 56.1908 223.499Z" fill="#131515"/>
<path d="M21.6064 236.737V189.34C23.8552 171.318 33.3337 163.334 42.0004 153.334" stroke="white"/>
<path d="M62.9296 88.0344C58.1591 90.7672 52.7259 86.8958 50.6057 84.6185C47.359 86.8246 40.4682 92.6887 38.878 98.4958C37.2878 104.303 38.2154 106.324 38.878 106.609H50.6057C50.6057 109.313 51.5995 115.063 51.5995 117.284C51.5995 127.026 41.3956 135.315 38 143.622H86.5837C86.5837 139.922 86.2656 129.752 84.9935 126.677C83.7213 123.603 79.4278 107.605 77.4401 99.9903L88.3726 92.7314C87.71 91.1657 85.4705 87.0097 81.8131 82.9105C78.1557 78.8114 71.8082 79.9215 69.0916 80.989C69.0253 82.1989 67.7002 85.3017 62.9296 88.0344Z" fill="white" stroke="#131515"/>
<path d="M65.0367 229.478C61.4343 228.396 57.8268 230.716 57.8268 230.716L55.0978 240.153C57.4407 245.305 71.0072 267.331 75.8878 262.558C83.8041 254.816 68.6391 230.56 65.0367 229.478Z" fill="white" stroke="#131515"/>
<path d="M60.8379 229.341C66.76 232.169 78.976 254.961 75.1348 262.764" stroke="#131515"/>
<path d="M63.0156 253.611C63.5328 253.283 66.0378 250.281 66.299 249.043" stroke="#131515"/>
<path d="M60.3262 250.395C60.8433 250.067 64.0735 246.046 64.3346 244.809" stroke="#131515"/>
<path d="M35.1762 255.058C33.9338 251.268 30.4547 250.894 30.4547 250.894L20.1184 253.67C17.5346 258.687 10.1006 283.5 16.5405 285.054C26.9859 287.575 36.4185 258.847 35.1762 255.058Z" fill="white" stroke="#131515"/>
<path d="M32.6118 251.386C34.5001 260.407 21.7289 284.318 15.8154 284.745" stroke="#131515"/>
<path d="M15.543 268.333C16.0896 268.6 19.8166 269.081 20.9099 268.6" stroke="#131515"/>
<path d="M16.8857 264.384C17.4324 264.651 22.352 265.185 23.4453 264.705" stroke="#131515"/>
<path d="M59.4818 44.1141C63.9541 44.1141 69.0243 49.5295 67.2354 54.5841C65.4464 59.6387 57.3961 56.0786 57.3961 63.3375C52.0292 65.0455 55.2193 69.7424 56.3028 70.2761C56.827 74.2628 56.3028 79.021 47.4698 79.021C42.6509 79.021 45.8798 75.0358 39.5189 75.0358C35.2964 75.0358 33.5557 81.4412 26.9962 81.4412C24.8142 81.4412 20.1981 74.4812 12.0883 77.3847C7.31776 79.0927 0.360641 69.0583 2.34841 65.6424C6.24474 58.9466 10.1004 65.6424 13.2809 61.7994C15.6908 58.8875 14.0757 54.9674 17.7532 52.8325C24.7314 48.7814 27.8908 51.8718 31.1706 49.9503C34.4503 48.0288 32.3632 46.1073 37.9288 44.8263C41.6217 43.9764 45.9309 47.8489 49.6427 48.8111C52.5248 49.5583 52.9103 44.1141 59.4818 44.1141Z" fill="#131515"/>
<path d="M100.121 79.5758C100.741 77.8308 99.1323 77.1033 98.3267 76.3615C97.0085 75.661 94.8846 75.7434 94.4452 77.3093C94.1558 78.3408 95.5257 80.1619 96.9719 80.5236C98.2901 80.8533 99.6081 81.0181 100.121 79.5758Z" fill="white" stroke="#131515"/>
<path d="M108.015 68.2009C108.857 70.461 106.674 71.4034 105.58 72.3641C103.791 73.2715 100.909 73.1647 100.313 71.1365C99.9199 69.8005 101.779 67.4418 103.742 66.9733C105.531 66.5463 107.319 66.3328 108.015 68.2009Z" fill="white" stroke="#131515"/>
<path d="M55.7926 79.0137C55.978 80.9508 51.9094 84.3606 50.2529 85.2857C52.7707 87.7054 55.7926 91.9658 63.7435 90.5425C67.56 89.8593 71.5217 84.3606 72.3168 80.8023C67.3474 80.8023 61.8455 77.7604 63.7435 71.2904C63.7435 69.5967 55.7926 67.2988 55.7926 70.932C55.4907 72.7901 55.4474 75.4082 55.7926 79.0137Z" fill="white" stroke="#131515"/>
<path d="M54.2889 65.7759C53.4938 67.2703 52.8975 66.2029 52.8975 69.4053C52.8975 73.3921 61.6275 74.8485 64.0288 74.2784C65.937 73.9368 66.8116 71.1133 66.8116 68.7648C66.8116 68.7648 68.9632 67.9217 69.1088 66.6992C69.2543 65.4767 66.8116 54.4231 66.8116 54.4231C65.4864 53.9249 62.1206 58.1754 59.2582 59.3709C55.6803 60.8654 55.084 64.2814 54.2889 65.7759Z" fill="white" stroke="#131515"/>
<path d="M40.8858 125.185C39.1366 122.452 39.0213 113.076 39.5182 107.276H49.9301V122.73C54.5492 127.851 61.2265 134.608 68.6148 132.551C71.2983 131.803 71.497 130.309 75.4725 130.629C78.6529 130.885 81.0382 134.045 81.0382 136.607C81.0382 139.169 73.5841 137.781 69.4099 137.781C64.4396 137.781 57.4835 137.781 53.7068 135.753C51.5715 134.606 43.0723 128.601 40.8858 125.185Z" fill="white" stroke="#131515"/>
<path d="M40 107H49.5L49 112H40V107Z" fill="white"/>
<path d="M251.591 12.5C253.652 12.5 255.67 12.6703 257.631 12.9971L257.633 12.998C258.738 13.1782 259.598 14.0463 259.847 15.1758L261.647 23.4004L261.703 23.6562L261.945 23.7559C264.18 24.675 266.274 25.8922 268.17 27.3496L268.377 27.5088L268.626 27.4297L276.649 24.8799C277.738 24.5335 278.933 24.8472 279.643 25.7002V25.7012C280.65 26.9201 281.581 28.2041 282.426 29.5527L282.782 30.1348L283.456 31.2949C284.27 32.7635 284.98 34.282 285.581 35.8604L285.57 35.8721L285.681 36.1719C286.067 37.221 285.745 38.4067 284.894 39.1719L284.892 39.1738L278.654 44.8496L278.46 45.0254L278.495 45.2852C278.651 46.4601 278.735 47.6624 278.735 48.8779C278.735 50.0936 278.651 51.2965 278.495 52.4717L278.46 52.7305L278.654 52.9072L284.892 58.583L284.894 58.585C285.745 59.3499 286.066 60.5341 285.681 61.583C285.056 63.272 284.304 64.8913 283.437 66.4551L282.765 67.6133C281.828 69.1735 280.778 70.6497 279.628 72.041L279.627 72.042C278.92 72.9048 277.729 73.2099 276.636 72.8623L268.611 70.3125L268.362 70.2334L268.155 70.3926C266.259 71.8499 264.166 73.0662 261.932 73.9854L261.689 74.085L261.633 74.3408L259.832 82.5664C259.584 83.6957 258.723 84.564 257.618 84.7441H257.617C255.656 85.0709 253.638 85.2422 251.577 85.2422C249.516 85.2422 247.497 85.071 245.536 84.7441H245.535C244.499 84.5753 243.678 83.8012 243.375 82.7744L243.321 82.5664L241.521 74.3408L241.464 74.085L241.222 73.9854C238.988 73.0662 236.894 71.8499 234.998 70.3926L234.79 70.2324L234.541 70.3125L226.531 72.877C225.442 73.2229 224.249 72.9075 223.539 72.0537C222.39 70.6628 221.34 69.1876 220.403 67.6279L219.727 66.4609C218.97 65.0952 218.3 63.6874 217.727 62.2275L217.487 61.5977C217.102 60.5487 217.423 59.3646 218.274 58.5996L218.276 58.5967L224.514 52.9209L224.707 52.7451L224.673 52.4863C224.517 51.2963 224.433 50.0934 224.433 48.8779C224.433 47.6624 224.517 46.4601 224.673 45.2852L224.707 45.0254L224.514 44.8496L218.276 39.1738L218.274 39.1719L218.121 39.0234C217.385 38.2591 217.126 37.1565 217.487 36.1729C218.111 34.487 218.861 32.8706 219.727 31.3096L220.403 30.1426L220.402 30.1416C221.339 28.5816 222.39 27.1069 223.54 25.7158L223.541 25.7139C224.248 24.8511 225.439 24.546 226.532 24.8936V24.8945L234.557 27.4443L234.806 27.5234L235.013 27.3633C236.909 25.906 239.002 24.6896 241.236 23.7705L241.479 23.6709L241.535 23.415L243.335 15.1904C243.583 14.0611 244.444 13.192 245.549 13.0117L245.555 13.0107C247.513 12.6702 249.53 12.5 251.591 12.5ZM251.591 36.8535C248.402 36.8536 245.344 38.121 243.089 40.376C240.834 42.6309 239.566 45.689 239.566 48.8779C239.566 52.067 240.834 55.1258 243.089 57.3809C245.344 59.6357 248.402 60.9023 251.591 60.9023C254.78 60.9023 257.839 59.6358 260.094 57.3809C262.349 55.1258 263.615 52.067 263.615 48.8779C263.615 45.689 262.349 42.6309 260.094 40.376C257.839 38.121 254.78 36.8535 251.591 36.8535Z" fill="#2F9387" stroke="#131515"/>
<path d="M216.212 57.8331C217.639 57.8331 219.036 57.9516 220.394 58.1779H220.396C221.054 58.2853 221.582 58.7786 221.778 59.4425L221.813 59.5773L223.067 65.3058L223.123 65.5616L223.365 65.6613C224.909 66.2962 226.355 67.1367 227.665 68.1437L227.872 68.3029L228.121 68.2238L233.709 66.4474H233.71C234.414 66.2236 235.179 66.4284 235.631 66.9708V66.9718C236.426 67.9342 237.153 68.9546 237.801 70.0333V70.0343L238.272 70.8468C238.82 71.8343 239.299 72.854 239.707 73.9122L239.7 73.92L239.811 74.2198C240.056 74.8884 239.853 75.6487 239.304 76.1427L239.301 76.1456L234.957 80.0978L234.764 80.2745L234.798 80.5333C234.905 81.3454 234.964 82.1763 234.964 83.0157C234.964 83.8552 234.905 84.6862 234.798 85.4982L234.764 85.7579L234.957 85.9337L239.301 89.8868L239.304 89.8888C239.853 90.3827 240.056 91.1431 239.811 91.8116C239.38 92.9772 238.86 94.0949 238.262 95.1749L237.794 95.9816C237.145 97.0628 236.417 98.0855 235.62 99.0499L235.619 99.0519C235.17 99.5998 234.407 99.7996 233.699 99.5743L228.111 97.799L227.862 97.7198L227.655 97.879C226.345 98.886 224.899 99.7265 223.355 100.361L223.113 100.461L223.058 100.717L221.803 106.445C221.642 107.176 221.088 107.73 220.386 107.845H220.384C219.026 108.071 217.629 108.189 216.202 108.189C214.775 108.189 213.378 108.071 212.021 107.845H212.019C211.316 107.73 210.761 107.176 210.601 106.444L209.347 100.717L209.291 100.461L209.049 100.361L208.475 100.113C207.146 99.5135 205.895 98.7601 204.749 97.879L204.541 97.7189L204.292 97.799L198.714 99.5851C198.01 99.8089 197.245 99.6029 196.793 99.0597H196.792C195.995 98.0955 195.268 97.0723 194.619 95.9913L194.156 95.1935C193.631 94.2463 193.167 93.2699 192.77 92.2579L192.604 91.8214C192.358 91.1531 192.561 90.3934 193.11 89.8995L193.112 89.8966L197.457 85.9445L197.65 85.7687L197.616 85.5099C197.508 84.687 197.45 83.8552 197.45 83.0157C197.45 82.1763 197.509 81.3454 197.616 80.5333L197.65 80.2745L197.457 80.0978L193.113 76.1456L193.11 76.1427C192.561 75.6489 192.358 74.8892 192.604 74.2208C193.036 73.0523 193.556 71.9314 194.156 70.8488L194.155 70.8478L194.619 70.0509C195.268 68.9696 195.996 67.9461 196.793 66.9816L196.795 66.9806C197.244 66.4328 198.006 66.2321 198.714 66.4572H198.715L204.303 68.2335L204.552 68.3126L204.759 68.1534C206.069 67.1465 207.515 66.3059 209.059 65.671L209.301 65.5714L209.356 65.3156L210.61 59.587C210.771 58.8558 211.326 58.3023 212.028 58.1876L212.034 58.1866C213.389 57.951 214.785 57.8331 216.212 57.8331ZM216.212 74.4904C213.951 74.4904 211.782 75.3886 210.184 76.9874C208.585 78.5863 207.687 80.7547 207.687 83.0157C207.687 85.277 208.585 87.4461 210.184 89.045C211.782 90.6438 213.951 91.5421 216.212 91.5421C218.473 91.5421 220.642 90.644 222.241 89.045C223.84 87.4461 224.738 85.2769 224.738 83.0157C224.738 80.7548 223.84 78.5862 222.241 76.9874C220.642 75.3885 218.473 74.4904 216.212 74.4904Z" fill="#B8E6E1" stroke="#131515"/>
</svg>
