<svg width="299" height="299" viewBox="0 0 299 299" fill="none" xmlns="http://www.w3.org/2000/svg">
<rect width="298.667" height="298.667" fill="#ECF9F7"/>
<g clip-path="url(#clip0_4_651)">
<path d="M295.588 0H0V298.667H295.588V0Z" fill="#ECF9F7"/>
<path d="M248.545 268.848L254.452 267.517C255.798 267.213 257.146 268.058 257.451 269.439L262.022 290.196C262.326 291.577 261.46 292.921 260.113 293.225L254.205 294.556C252.86 294.859 251.511 294.014 251.207 292.633L246.636 271.877C246.332 270.496 247.199 269.152 248.545 268.848ZM267.23 252.414C267.185 250.164 268.958 248.317 271.169 248.265C273.384 248.213 275.238 249.978 275.283 252.23L275.305 253.333C275.359 255.862 274.982 258.365 274.206 260.737L273.934 261.571L288.091 258.38C290.25 257.893 292.409 259.255 292.892 261.452C293.23 262.982 292.657 264.504 291.542 265.446L290.959 265.938L291.636 266.274C292.69 266.798 293.512 267.782 293.787 269.031C294.213 270.969 293.182 272.883 291.457 273.633L290.793 273.92L291.282 274.438C291.777 274.958 292.137 275.614 292.303 276.369C292.691 278.132 291.873 279.88 290.419 280.741L290.027 280.972L290.211 281.38C290.329 281.642 290.427 281.925 290.493 282.223C290.976 284.42 289.592 286.581 287.433 287.067L278.434 289.095C276.782 289.467 275.065 289.342 273.486 288.733L269.41 287.154C266.742 286.122 264.764 283.81 264.145 280.993L261.875 270.689C261.312 268.129 261.943 265.46 263.569 263.411L264.13 262.71H264.131C266.22 260.101 267.32 256.848 267.249 253.519L267.23 252.415V252.414Z" fill="#90DED5" stroke="#131515"/>
<path d="M118.8 261.962H183.654C186.772 261.962 189.299 264.429 189.299 267.474V269.156H113.155V267.474C113.155 264.429 115.682 261.962 118.8 261.962Z" fill="#ECF9F7" stroke="#131515"/>
<path d="M173.719 243.519L175.572 261.983H126.885L128.739 243.519H173.719Z" fill="#ECF9F7" stroke="#131515"/>
<path d="M128.272 239.945H174.184V243.018H128.272V239.945Z" fill="#131515"/>
<path d="M235.222 117.763H67.7388C64.0544 117.763 61.0676 120.679 61.0676 124.277V234.846C61.0676 238.444 64.0544 241.361 67.7388 241.361H235.222C238.906 241.361 241.893 238.444 241.893 234.846V124.277C241.893 120.679 238.906 117.763 235.222 117.763Z" fill="#90DED5" stroke="#131515"/>
<path d="M232.705 123.514H70.2546C67.7038 123.514 65.636 125.533 65.636 128.024V231.1C65.636 233.591 67.7038 235.61 70.2546 235.61H232.705C235.255 235.61 237.323 233.591 237.323 231.1V128.024C237.323 125.533 235.255 123.514 232.705 123.514Z" fill="#ECF9F7" stroke="#131515"/>
<path d="M72.8899 132.724C73.8682 132.724 74.6613 131.95 74.6613 130.994C74.6613 130.039 73.8682 129.265 72.8899 129.265C71.9116 129.265 71.1185 130.039 71.1185 130.994C71.1185 131.95 71.9116 132.724 72.8899 132.724Z" fill="#90DED5" stroke="#131515"/>
<path d="M82.941 132.724C83.9193 132.724 84.7124 131.95 84.7124 130.994C84.7124 130.039 83.9193 129.265 82.941 129.265C81.9626 129.265 81.1696 130.039 81.1696 130.994C81.1696 131.95 81.9626 132.724 82.941 132.724Z" fill="#90DED5" stroke="#131515"/>
<path d="M65.1229 140.721H237.836" stroke="#131515"/>
<path d="M98.873 175.743L144.493 151.819L174.828 178.456L205.633 155.026" stroke="#131515"/>
<path d="M98.8735 179.691C100.887 179.691 102.518 177.979 102.518 175.868C102.518 173.756 100.887 172.045 98.8735 172.045C96.8605 172.045 95.2286 173.756 95.2286 175.868C95.2286 177.979 96.8605 179.691 98.8735 179.691Z" fill="#131515"/>
<path d="M144.727 155.643C146.74 155.643 148.372 153.931 148.372 151.82C148.372 149.709 146.74 147.997 144.727 147.997C142.714 147.997 141.082 149.709 141.082 151.82C141.082 153.931 142.714 155.643 144.727 155.643Z" fill="#131515"/>
<path d="M203.516 159.465C205.529 159.465 207.161 157.754 207.161 155.642C207.161 153.531 205.529 151.82 203.516 151.82C201.503 151.82 199.871 153.531 199.871 155.642C199.871 157.754 201.503 159.465 203.516 159.465Z" fill="#131515"/>
<path d="M101.299 199.346H92.9194V225.474H101.299V199.346Z" fill="#B8E6E1" stroke="#131515"/>
<path d="M116.751 195.893H108.371V225.474H116.751V195.893Z" fill="#2F9387" stroke="#131515"/>
<path d="M132.204 192.934H123.825V225.474H132.204V192.934Z" fill="#B8E6E1" stroke="#131515"/>
<path d="M147.658 184.055H139.278V225.475H147.658V184.055Z" fill="#B8E6E1" stroke="#131515"/>
<path d="M163.11 195.893H154.73V225.474H163.11V195.893Z" fill="#2F9387" stroke="#131515"/>
<path d="M178.563 199.346H170.184V225.474H178.563V199.346Z" fill="#B8E6E1" stroke="#131515"/>
<path d="M194.018 204.772H185.638V225.474H194.018V204.772Z" fill="#B8E6E1" stroke="#131515"/>
<path d="M209.47 181.095H201.09V225.475H209.47V181.095Z" fill="#2F9387" stroke="#131515"/>
<path d="M175.044 180.03C177.057 180.03 178.689 178.319 178.689 176.207C178.689 174.096 177.057 172.384 175.044 172.384C173.031 172.384 171.399 174.096 171.399 176.207C171.399 178.319 173.031 180.03 175.044 180.03Z" fill="#131515"/>
<path d="M100.311 113.375C92.3141 113.718 81.4743 103.247 77.0541 97.9691L84.6025 91.7639L98.2712 101.607V79.1394H106.024L107.86 104.816C107.86 107.384 108.308 113.033 100.311 113.375Z" fill="#ECF9F7" stroke="#131515"/>
<path d="M97.4255 53.6677L97.4255 53.6677C95.0918 54.3493 93.6955 56.7683 94.3067 59.0707L102.396 89.5439C103.008 91.8463 105.395 93.1604 107.729 92.4789C110.062 91.7973 111.459 89.3783 110.847 87.0759L102.758 56.6027C102.146 54.3003 99.7592 52.9862 97.4255 53.6677Z" fill="#2F9387"/>
<path d="M85.0907 64.1612L77.9504 49.6108L120.793 6.17395L145.886 55.3882L85.0907 64.1612Z" fill="#ECF9F7" stroke="#131515"/>
<path d="M87.7933 60.6123L81.8276 48.7078C81.0473 47.1507 79.1616 46.5793 77.6157 47.4315C76.0698 48.2837 75.4492 50.2368 76.2295 51.7939L82.1952 63.6984C82.9755 65.2555 84.8612 65.8269 86.4071 64.9747C87.953 64.1225 88.5736 62.1694 87.7933 60.6123Z" fill="#131515"/>
<path d="M151.731 50.5487L127.46 3.54651C126.449 1.58783 124.055 0.894149 122.113 1.99714C120.171 3.10013 119.417 5.5821 120.428 7.54079L144.699 54.543C145.71 56.5017 148.104 57.1954 150.046 56.0924C151.988 54.9894 152.742 52.5074 151.731 50.5487Z" fill="#2F9387"/>
<path d="M85.775 50.8093L103.116 34.1193" stroke="#131515"/>
<path d="M107.604 30.0539L122.701 15.0757" stroke="#131515"/>
<path d="M146.853 23.3203C149.614 28.6941 149.06 34.9073 145.887 38.9167L133.903 15.5879C138.841 15.0129 144.093 17.9465 146.853 23.3203Z" fill="#131515"/>
<path d="M142.331 10.4215L148.043 3.57434" stroke="#131515"/>
<path d="M149.834 18.0704L164.318 6.08777" stroke="#131515"/>
<path d="M152.531 26.6833H161.508" stroke="#131515"/>
<path d="M29.6202 257.701V240.048H21.3578V257.701H29.6202Z" fill="#ECF9F7" stroke="#131515"/>
<path d="M61.9158 235.349L48.9926 224.04L43.8116 229.74L56.6224 242.003L61.9158 235.349Z" fill="#ECF9F7" stroke="#131515"/>
<path d="M57.6712 223.999L48.6948 235.768L36.658 223.999L35.2299 245.397H20.1332V203.03C18.2291 200.818 13.9314 195.369 11.9729 191.261C9.52476 186.125 8.03601 174.897 11.9729 170.291C17.2773 164.086 32.1783 150.463 40.6787 142.903H87.2525C84.1596 161.025 42.7783 170.291 42.7783 195.327C42.7783 198.006 52.1629 216.153 57.6712 223.999Z" fill="#131515"/>
<path d="M22.1757 237.267V189.764C24.4837 171.701 34.2119 163.699 43.107 153.677" stroke="#ECF9F7"/>
<path d="M64.5875 88.2313C59.6913 90.9703 54.115 87.0902 51.9389 84.8078C48.6067 87.0188 41.5344 92.8961 39.9023 98.7161C38.2702 104.536 39.2222 106.562 39.9023 106.847H51.9389C51.9389 109.558 52.9589 115.32 52.9589 117.546C52.9589 127.31 42.4862 135.618 39.0011 143.943H88.8648C88.8648 140.235 88.5383 130.042 87.2327 126.96C85.927 123.88 81.5204 107.846 79.4803 100.214L90.7008 92.9388C90.0208 91.3696 87.7223 87.2043 83.9685 83.096C80.2148 78.9877 73.7 80.1003 70.9119 81.1702C70.8438 82.3828 69.4838 85.4925 64.5875 88.2313Z" fill="#ECF9F7" stroke="#131515"/>
<path d="M66.7502 229.991C63.0529 228.907 59.3503 231.232 59.3503 231.232L56.5494 240.69C58.9541 245.854 72.878 267.929 77.8872 263.145C86.012 255.386 70.4475 231.076 66.7502 229.991Z" fill="#ECF9F7" stroke="#131515"/>
<path d="M62.4407 229.854C68.5189 232.688 81.0567 255.531 77.1143 263.352" stroke="#131515"/>
<path d="M64.6758 254.178C65.2066 253.85 67.7776 250.841 68.0457 249.6" stroke="#131515"/>
<path d="M61.9155 250.955C62.4463 250.626 65.7616 246.596 66.0295 245.357" stroke="#131515"/>
<path d="M36.103 255.629C34.8278 251.83 31.2571 251.455 31.2571 251.455L20.6485 254.238C17.9966 259.266 10.3667 284.134 16.9763 285.692C27.6969 288.218 37.378 259.426 36.103 255.629Z" fill="#ECF9F7" stroke="#131515"/>
<path d="M33.471 251.948C35.409 260.99 22.3014 284.954 16.2321 285.382" stroke="#131515"/>
<path d="M15.9525 268.933C16.5135 269.201 20.3387 269.683 21.4608 269.201" stroke="#131515"/>
<path d="M17.3306 264.975C17.8917 265.243 22.9409 265.778 24.063 265.297" stroke="#131515"/>
<path d="M61.0489 44.2128C65.639 44.2128 70.8428 49.6403 69.0068 54.7062C67.1706 59.7721 58.9082 56.204 58.9082 63.4792C53.3999 65.191 56.6741 69.8984 57.7861 70.4333C58.3241 74.4289 57.7861 79.1978 48.7204 79.1978C43.7746 79.1978 47.0885 75.2036 40.5601 75.2036C36.2263 75.2036 34.4397 81.6234 27.7074 81.6234C25.4679 81.6234 20.7302 74.6478 12.4068 77.5578C7.51054 79.2696 0.370127 69.2128 2.41027 65.7892C6.40925 59.0785 10.3665 65.7892 13.6308 61.9376C16.1042 59.0192 14.4465 55.0903 18.2209 52.9507C25.383 48.8905 28.6256 51.9878 31.9918 50.062C35.3579 48.1362 33.2158 46.2104 38.9281 44.9266C42.7182 44.0748 47.141 47.9559 50.9506 48.9203C53.9086 49.6691 54.3043 44.2128 61.0489 44.2128Z" fill="#131515"/>
<path d="M102.759 79.7538C103.395 78.0049 101.744 77.2757 100.917 76.5323C99.5643 75.8302 97.3844 75.9128 96.9334 77.4822C96.6364 78.516 98.0424 80.3412 99.5267 80.7037C100.88 81.0341 102.232 81.1993 102.759 79.7538Z" fill="#ECF9F7" stroke="#131515"/>
<path d="M110.861 68.3535C111.725 70.6186 109.484 71.5632 108.362 72.526C106.525 73.4354 103.568 73.3284 102.956 71.2957C102.552 69.9567 104.46 67.5927 106.475 67.1231C108.311 66.6952 110.146 66.4812 110.861 68.3535Z" fill="#ECF9F7" stroke="#131515"/>
<path d="M57.2625 79.1904C57.4528 81.1319 53.277 84.5493 51.5768 85.4765C54.161 87.9016 57.2625 92.1715 65.4229 90.745C69.3399 90.0603 73.406 84.5493 74.222 80.983C69.1217 80.983 63.4749 77.9343 65.4229 71.4498C65.4229 69.7524 57.2625 67.4493 57.2625 71.0906C56.9526 72.9529 56.9082 75.5769 57.2625 79.1904Z" fill="#ECF9F7" stroke="#131515"/>
<path d="M55.7192 65.9231C54.9031 67.4208 54.2911 66.351 54.2911 69.5606C54.2911 73.5563 63.2511 75.016 65.7157 74.4446C67.6742 74.1022 68.5718 71.2724 68.5718 68.9187C68.5718 68.9187 70.7801 68.0737 70.9295 66.8485C71.0789 65.6232 68.5718 54.5449 68.5718 54.5449C67.2117 54.0456 63.7572 58.3056 60.8194 59.5038C57.1473 61.0016 56.5352 64.4252 55.7192 65.9231Z" fill="#ECF9F7" stroke="#131515"/>
<path d="M41.963 125.465C40.1677 122.726 40.0493 113.329 40.5593 107.516H51.2455V123.005C55.9863 128.137 62.8396 134.909 70.4225 132.848C73.1767 132.098 73.3806 130.601 77.4609 130.921C80.7251 131.178 83.1732 134.345 83.1732 136.913C83.1732 139.48 75.5227 138.089 71.2386 138.089C66.1373 138.089 58.9979 138.089 55.1217 136.057C52.9302 134.907 44.2071 128.889 41.963 125.465Z" fill="#ECF9F7" stroke="#131515"/>
<path d="M41.0538 107.239H50.8041L50.2909 112.251H41.0538V107.239Z" fill="#ECF9F7"/>
<path d="M258.219 12.528C260.335 12.528 262.406 12.6986 264.419 13.0262L264.421 13.0271C265.555 13.2077 266.437 14.0777 266.693 15.2097L268.54 23.4527L268.598 23.7091L268.846 23.809C271.14 24.7302 273.289 25.9501 275.235 27.4108L275.448 27.5703L275.703 27.4911L283.938 24.9356C285.055 24.5884 286.282 24.9028 287.01 25.7577V25.7587C288.044 26.9803 289 28.2672 289.867 29.6188L290.232 30.2022L290.924 31.3649C291.759 32.8368 292.488 34.3587 293.105 35.9406L293.094 35.9523L293.208 36.2528C293.604 37.3043 293.273 38.4926 292.4 39.2595L292.398 39.2614L285.995 44.9499L285.796 45.1261L285.832 45.3865C285.992 46.564 286.079 47.769 286.079 48.9872C286.079 50.2057 285.992 51.4112 285.832 52.5891L285.796 52.8485L285.995 53.0256L292.398 58.7141L292.4 58.7161C293.273 59.4827 293.603 60.6695 293.208 61.7208C292.566 63.4135 291.794 65.0365 290.904 66.6038L290.215 67.7646C289.253 69.3282 288.175 70.8077 286.995 72.2022L286.994 72.2032C286.268 73.0679 285.046 73.3737 283.924 73.0253L275.688 70.4698L275.432 70.3905L275.22 70.5501C273.274 72.0106 271.126 73.2297 268.833 74.1509L268.583 74.2507L268.526 74.5071L266.678 82.7511C266.423 83.8829 265.539 84.7532 264.405 84.9337H264.404C262.391 85.2612 260.32 85.4329 258.205 85.4329C256.09 85.4329 254.018 85.2613 252.005 84.9337C250.942 84.7645 250.098 83.9887 249.787 82.9596L249.732 82.7511L247.884 74.5071L247.826 74.2507L247.577 74.1509C245.284 73.2297 243.135 72.0106 241.189 70.5501L240.976 70.3895L240.72 70.4698L232.499 73.04C231.381 73.3867 230.157 73.0706 229.428 72.2149C228.249 70.8209 227.171 69.3424 226.21 67.7792L225.516 66.6096C224.739 65.2408 224.051 63.8299 223.463 62.3667L223.217 61.7355C222.822 60.6841 223.151 59.4974 224.025 58.7307L224.027 58.7278L230.429 53.0393L230.627 52.8631L230.592 52.6037C230.432 51.4111 230.346 50.2055 230.346 48.9872C230.346 47.769 230.432 46.564 230.592 45.3865L230.627 45.1261L230.429 44.9499L224.027 39.2614L224.025 39.2595L223.868 39.1107C223.112 38.3447 222.846 37.2396 223.217 36.2538C223.857 34.5641 224.627 32.9441 225.516 31.3796L226.21 30.21L226.209 30.209C227.17 28.6455 228.249 27.1675 229.429 25.7733L229.43 25.7714C230.156 24.9067 231.378 24.6009 232.5 24.9493L240.737 27.5057L240.992 27.585L241.205 27.4245C243.151 25.9639 245.299 24.7448 247.592 23.8237L247.841 23.7238L247.898 23.4674L249.746 15.2244C250 14.0925 250.884 13.2215 252.018 13.0408L252.024 13.0398C254.034 12.6985 256.104 12.528 258.219 12.528ZM258.219 36.9359C254.946 36.936 251.808 38.2063 249.493 40.4663C247.179 42.7263 245.878 45.7912 245.878 48.9872C245.878 52.1835 247.179 55.2491 249.493 57.5093C251.808 59.7691 254.946 61.0385 258.219 61.0385C261.492 61.0385 264.632 59.7692 266.946 57.5093C269.261 55.2491 270.56 52.1835 270.56 48.9872C270.56 45.7912 269.261 42.7263 266.946 40.4663C264.632 38.2063 261.492 36.9359 258.219 36.9359Z" fill="#2F9387" stroke="#131515"/>
<path d="M221.908 57.9625C223.373 57.9625 224.807 58.0813 226.201 58.3081H226.203C226.878 58.4157 227.42 58.9101 227.621 59.5755L227.657 59.7106L228.944 65.4519L229.001 65.7083L229.25 65.8082C230.834 66.4446 232.319 67.2869 233.663 68.2962L233.876 68.4558L234.131 68.3765L239.866 66.5961H239.867C240.59 66.3718 241.375 66.5771 241.839 67.1207C242.655 68.0852 243.401 69.1089 244.066 70.19L244.55 71.0053C245.112 71.9951 245.604 73.017 246.022 74.0776L246.015 74.0854L246.129 74.3859C246.381 75.056 246.172 75.818 245.609 76.3131L245.606 76.316L241.147 80.277L240.949 80.4541L240.984 80.7135C241.094 81.5274 241.154 82.3602 241.154 83.2015C241.154 84.0428 241.094 84.8757 240.984 85.6895L240.949 85.9498L241.147 86.126L245.606 90.0879L245.609 90.0899C246.172 90.5849 246.381 91.347 246.129 92.017C245.687 93.1852 245.153 94.3054 244.539 95.3879L244.059 96.1964C243.393 97.28 242.646 98.305 241.828 99.2715L241.827 99.2735C241.366 99.8227 240.583 100.023 239.856 99.7971L234.121 98.0178L233.865 97.9385L233.653 98.098C232.308 99.1073 230.824 99.9496 229.24 100.586L228.991 100.686L228.935 100.942L227.647 106.683C227.481 107.416 226.913 107.971 226.192 108.086H226.19C224.796 108.313 223.363 108.431 221.898 108.431C220.433 108.431 219 108.313 217.607 108.086H217.605C216.883 107.971 216.314 107.416 216.15 106.682L214.862 100.942L214.805 100.686L214.557 100.586L213.967 100.337C212.603 99.7362 211.32 98.9811 210.143 98.098L209.93 97.9376L209.674 98.0178L203.949 99.8079C203.227 100.032 202.442 99.8258 201.978 99.2814C201.16 98.315 200.413 97.2895 199.746 96.2061L199.271 95.4065C198.732 94.4572 198.256 93.4786 197.849 92.4643L197.678 92.0269C197.426 91.3571 197.634 90.5957 198.198 90.1007L198.2 90.0978L202.659 86.1368L202.857 85.9606L202.822 85.7012C202.712 84.8765 202.652 84.0428 202.652 83.2015C202.652 82.3602 202.713 81.5274 202.822 80.7135L202.857 80.4541L202.659 80.277L198.201 76.316L198.198 76.3131C197.634 75.8182 197.426 75.0568 197.678 74.3869C198.122 73.2158 198.655 72.0924 199.271 71.0073L199.27 71.0063L199.746 70.2077C200.413 69.1239 201.16 68.0981 201.978 67.1315L201.98 67.1305C202.441 66.5815 203.223 66.3803 203.949 66.6059L209.686 68.3862L209.941 68.4655L210.154 68.3059C211.498 67.2968 212.982 66.4543 214.567 65.818L214.815 65.7181L214.872 65.4618L216.159 59.7204C216.324 58.9875 216.894 58.4328 217.614 58.3178L217.62 58.3168C219.011 58.0807 220.444 57.9625 221.908 57.9625ZM221.908 74.6571C219.588 74.6571 217.362 75.5573 215.722 77.1597C214.08 78.7622 213.159 80.9354 213.159 83.2015C213.159 85.4678 214.08 87.6418 215.722 89.2443C217.362 90.8466 219.588 91.7469 221.908 91.7469C224.229 91.7469 226.455 90.8468 228.096 89.2443C229.737 87.6418 230.659 85.4677 230.659 83.2015C230.659 80.9355 229.737 78.7621 228.096 77.1597C226.455 75.5572 224.229 74.6571 221.908 74.6571Z" fill="#B8E6E1" stroke="#131515"/>
</g>
<defs>
<clipPath id="clip0_4_651">
<rect width="298.667" height="298.667" fill="white"/>
</clipPath>
</defs>
</svg>
