<svg width="299" height="299" viewBox="0 0 299 299" fill="none" xmlns="http://www.w3.org/2000/svg">
<rect width="298.667" height="298.667" fill="white"/>
<g clip-path="url(#clip0_1_1292)">
<path d="M298.667 0H0V297.668H298.667V0Z" fill="white"/>
<path d="M30.1357 232.287L80.2286 248.322C83.4996 249.369 85.2629 252.945 84.0889 256.348L76.3215 278.861L76.2046 279.174C74.9206 282.376 71.41 284.079 68.2416 283.064L34.6596 272.315L34.4729 272.398L17.6151 279.888L21.6633 268.155L18.1468 267.029C14.8766 265.982 13.1133 262.404 14.2872 259.001L22.0546 236.488L22.1718 236.173C23.4561 232.973 26.9673 231.273 30.1357 232.287Z" fill="white" stroke="#131515"/>
<path d="M40.4876 252.561L43.1795 253.423C43.6523 253.575 43.9072 254.063 43.7503 254.519L40.6185 263.596C40.4611 264.051 39.9532 264.296 39.4804 264.144L36.7886 263.283C36.3158 263.131 36.0609 262.643 36.2178 262.187L39.3496 253.111C39.5069 252.655 40.0149 252.41 40.4876 252.561ZM52.2594 250.444C52.7 249.699 53.6847 249.44 54.4565 249.863C55.229 250.288 55.499 251.236 55.0596 251.979L54.8031 252.409L54.8025 252.411C54.2356 253.372 53.5057 254.225 52.6506 254.94L51.9635 255.515L58.885 257.73C59.7279 258 60.1845 258.878 59.9046 259.69C59.7094 260.256 59.2054 260.643 58.6294 260.732L57.8472 260.853L58.2756 261.494C58.5303 261.877 58.6092 262.361 58.4498 262.824C58.2027 263.54 57.4618 263.967 56.716 263.872L55.9774 263.776L56.1413 264.476C56.2041 264.745 56.1934 265.03 56.0966 265.311C55.8715 265.963 55.2382 266.377 54.5633 266.371L54.0961 266.368L54.0433 266.814C54.0305 266.924 54.0057 267.038 53.9674 267.149C53.6872 267.961 52.7758 268.4 51.9328 268.131L47.831 266.817C47.1289 266.592 46.5136 266.175 46.0585 265.614L44.7992 264.055L44.6612 263.874C44.006 262.95 43.8336 261.778 44.2032 260.707L45.7579 256.201C46.116 255.163 46.9435 254.342 48.0075 253.959L48.4016 253.818C49.9269 253.275 51.2013 252.234 52.0037 250.876L52.2591 250.445L52.2594 250.444Z" fill="#2F9387" stroke="#131515"/>
<path d="M100.938 225.738H167.362C170.512 225.738 173.066 228.198 173.066 231.232V232.432H95.234V231.232C95.234 228.198 97.7876 225.738 100.938 225.738Z" fill="white" stroke="#131515"/>
<path d="M157.144 208.429L159.032 225.701H109.27L111.157 208.429H157.144Z" fill="white" stroke="#131515"/>
<path d="M110.689 205.044H157.611V207.929H110.689V205.044Z" fill="#131515"/>
<path d="M220.074 90.3991H48.7407C45.0179 90.3991 42 93.306 42 96.8919V199.852C42 203.438 45.0179 206.345 48.7407 206.345H220.074C223.797 206.345 226.815 203.438 226.815 199.852V96.8919C226.815 93.306 223.797 90.3991 220.074 90.3991Z" fill="#90DED5" stroke="#131515"/>
<path d="M217.479 95.7969H51.3373C48.76 95.7969 46.6707 97.8093 46.6707 100.292V196.453C46.6707 198.935 48.76 200.948 51.3373 200.948H217.479C220.056 200.948 222.146 198.935 222.146 196.453V100.292C222.146 97.8093 220.056 95.7969 217.479 95.7969Z" fill="white" stroke="#131515"/>
<path d="M54.0902 101.194C55.0932 101.194 55.9068 101.977 55.9071 102.943C55.9071 103.91 55.0933 104.693 54.0902 104.693C53.0873 104.693 52.2744 103.91 52.2744 102.943C52.2746 101.978 53.0875 101.195 54.0902 101.194Z" fill="#90DED5" stroke="#131515"/>
<path d="M64.3624 101.194C65.3654 101.194 66.1789 101.977 66.1793 102.943C66.1793 103.91 65.3655 104.693 64.3624 104.693C63.3594 104.693 62.5465 103.91 62.5465 102.943C62.5468 101.978 63.3597 101.195 64.3624 101.194Z" fill="#90DED5" stroke="#131515"/>
<path d="M46.1522 111.889H222.664" stroke="#131515"/>
<path d="M87.7064 128.025C100.724 128.025 111.276 138.19 111.276 150.729C111.276 163.267 100.724 173.431 87.7064 173.431C74.6888 173.431 64.1361 163.267 64.1361 150.729C64.1362 138.19 74.6889 128.025 87.7064 128.025Z" fill="white" stroke="#131515"/>
<path d="M81.2972 160.306L80.98 141.818L100.516 150.752L81.2972 160.306Z" fill="#2F9387" stroke="#131515"/>
<path d="M193.85 121.754H148.232C145.655 121.754 143.565 123.767 143.565 126.249V186.406C143.565 188.889 145.655 190.901 148.232 190.901H193.85C196.428 190.901 198.517 188.889 198.517 186.406V126.249C198.517 123.767 196.428 121.754 193.85 121.754Z" fill="white" stroke="#131515"/>
<path d="M151.044 160.763H191.037" stroke="#131515"/>
<path d="M151.044 165.197H191.037" stroke="#131515"/>
<path d="M151.044 170.034H191.037" stroke="#131515"/>
<path d="M151.044 174.872H191.037" stroke="#131515"/>
<path d="M151.044 179.71H191.037" stroke="#131515"/>
<path d="M151.044 184.548H191.037" stroke="#131515"/>
<path d="M155.216 154.134C158.091 154.433 173.813 154.097 185.37 154.074C187.13 154.071 189.987 153.686 190.542 150.602C191.097 147.518 185.613 140.805 182.614 140.811C179.615 140.817 178.473 142.55 176.745 142.554C173.905 142.559 171.627 136.613 167.524 136.62C164.052 136.627 151.615 148.221 151.162 149.953C150.779 151.411 152.342 153.836 155.216 154.134Z" fill="#90DED5" stroke="#131515"/>
<path d="M187.315 129.28C189.186 129.28 190.703 130.74 190.703 132.542C190.703 134.345 189.186 135.805 187.315 135.805C185.444 135.805 183.928 134.345 183.928 132.542C183.928 130.74 185.444 129.28 187.315 129.28Z" fill="#90DED5" stroke="#131515"/>
<path d="M234.603 284.35L235.45 270.698L227.423 271.065L225.656 283.712L234.603 284.35Z" fill="white" stroke="#131515"/>
<path d="M255.954 68.6696C255.954 68.6696 253.459 78.6655 257.4 83.6002C261.341 88.5349 242.293 91.4355 240.717 88.9145C239.141 86.3935 247.757 72.4654 242.293 72.4654C235.462 72.4654 235.462 68.1634 236.513 63.3553C237.563 58.5471 240.717 51.4614 249.124 51.4614C253.882 51.4614 258.647 53.7902 259.896 58.5471C260.97 62.6402 258.582 66.4763 255.954 68.6696Z" fill="white" stroke="#131515"/>
<path d="M235.854 68.2905C235.959 71.8334 240.89 73.2252 243.342 73.4783C248.202 72.5926 257.486 69.6186 259.762 65.5068C260.814 63.6089 264.202 61.5327 265.796 58.4631C266.759 56.6069 265.761 49.4908 262.609 47.7193C259.456 45.9479 256.688 46.6207 254.245 45.8616C250.83 44.8006 246.117 38.9323 240.059 43.9636C236.248 47.1269 238.745 52.6007 241.371 53.7395C243.999 54.8783 246.888 53.7395 250.83 54.8783C254.771 56.0171 252.721 58.8114 252.143 59.8129C250.83 62.0905 246.626 64.3681 243.342 64.6211C240.057 64.8742 235.723 63.8619 235.854 68.2905Z" fill="#131515"/>
<path d="M255.955 60.9245C254.064 61.127 253.065 62.7803 252.803 63.5816C253.853 64.383 256.322 65.7326 257.794 64.7204C259.634 63.4551 258.32 60.6715 255.955 60.9245Z" fill="white"/>
<path d="M281.573 283.423V270.911H273.029L272.607 283.664L281.573 283.423Z" fill="white" stroke="#131515"/>
<path d="M207.314 288.746C209.481 286.68 221.586 282.245 226.074 278.689C226.509 279.805 226.074 282.04 227.512 282.68C229.771 283.683 234.39 281.285 236.416 279.961C237.937 283.725 240.848 291.674 240.326 293.349C239.675 295.44 232.29 296.905 217.088 296.486C201.885 296.068 205.462 290.512 207.314 288.746Z" fill="white" stroke="#131515"/>
<path d="M274.394 281.573C278.564 278.561 284.239 283.944 286.556 287.012C286.991 288.267 287.598 291.322 286.556 293.497C285.254 296.216 274.394 296.635 269.616 294.543C264.838 292.452 269.182 285.339 274.394 281.573Z" fill="white" stroke="#131515"/>
<path d="M208.444 288.678C212.136 293.28 235.026 291.591 238.153 289.583" stroke="#131515"/>
<path d="M285.254 288.477C285.254 293.289 272.049 293.497 269.616 290.15" stroke="#131515"/>
<path d="M222.283 163.731C224.682 136.024 281.353 139.047 281.353 163.731C281.353 193.297 220.108 188.834 222.283 163.731Z" fill="#131515"/>
<path d="M282.522 275.753H272.098L253.854 203.373L235.177 273.243H226.924V222.201C226.924 219.188 228.372 177.155 229.096 156.514H269.926C271.953 167.672 276.181 191.659 276.875 198.353C277.57 205.047 280.93 252.743 282.522 275.753Z" fill="#131515"/>
<path d="M230.879 134.093C230.879 136.102 225.812 153.897 223.277 162.544C223.277 162.544 237.38 168.211 252.271 162.544C267.162 156.876 281.265 162.544 281.265 162.544L272.578 127.818L286.477 137.65C289.373 134.373 295.381 126.06 296.25 119.032C297.119 112.003 294.979 102.265 291.689 98.1127C285.391 90.1634 265.411 81.3774 261.936 81.3774C257.592 81.3774 240.869 82.4235 236.309 84.5153C231.748 86.6073 223.277 97.276 221.323 101.251C219.369 105.226 213.939 109.409 211.984 111.083C210.029 112.756 205.469 117.358 204.6 120.705C203.731 124.053 208.292 127.818 216.11 127.818C222.366 127.818 228.562 121.961 230.879 119.032V134.093Z" fill="white" stroke="#131515"/>
<path d="M239.364 121.314C245.154 128.217 257.172 143.572 258.91 149.764" stroke="#131515"/>
<path d="M281.278 118.536C282.147 119.707 276.14 124.429 272.592 127.358C271.037 122.863 269.029 111.925 270.419 110.587C272.157 108.912 280.192 117.071 281.278 118.536Z" stroke="#131515"/>
<path d="M187.022 128.159C191.366 129.331 202.153 128.647 207.003 128.159C208.74 127.462 212.346 125.607 212.866 123.766C213.519 121.465 209.175 119.164 207.003 119.164C204.831 119.164 202.224 122.093 193.755 122.093C186.979 122.093 189.628 119.164 187.022 116.863C184.499 114.635 176.015 114.431 175.295 116.863C174.86 118.327 178.552 118.955 180.941 119.164C183.331 119.373 184.416 122.093 183.113 122.093C181.81 122.093 177.249 122.511 176.815 123.766C176.38 125.021 181.592 126.695 187.022 128.159Z" fill="white" stroke="#131515"/>
<path d="M274.576 134.644C276.14 134.308 276.248 133.481 277.696 131.668L283.885 135.747C283.017 136.898 281.297 138.521 279.976 139.454C278.347 140.605 275.228 141.186 271.752 141.186C268.973 141.186 263.283 141.186 263.283 139.454C263.427 138.478 264.107 136.149 265.671 134.644C267.626 132.761 272.621 135.061 274.576 134.644Z" fill="white" stroke="#131515"/>
<path d="M7.51962 47.8403L73.2829 16.338M12.8705 22.1309L17.4493 30.999M49.6986 4.48968L54.2774 13.3578M2.21022 37.5568C0.935032 35.087 1.97992 32.0892 4.54402 30.8609L61.0219 3.80655C63.586 2.57828 66.6984 3.58472 67.9736 6.0545L96.0612 60.4546C97.3364 62.9244 96.2916 65.9222 93.7274 67.1506L37.2495 94.2049C34.6855 95.4331 31.5731 94.4267 30.2978 91.9569L2.21022 37.5568ZM20.8818 51.4779L34.0344 45.1775L40.5755 57.8463L27.4229 64.1467L20.8818 51.4779ZM29.3849 67.947L42.5376 61.6465L49.0787 74.3154L35.9261 80.6157L29.3849 67.947ZM37.9798 43.2876L51.1324 36.9871L57.6736 49.6559L44.5209 55.9563L37.9798 43.2876ZM46.483 59.7566L59.6356 53.4561L66.1767 66.1249L53.0241 72.4254L46.483 59.7566ZM55.0791 35.0969L68.2317 28.7965L74.7728 41.4652L61.6202 47.7657L55.0791 35.0969ZM63.5823 51.5659L76.7349 45.2655L83.276 57.9342L70.1234 64.2347L63.5823 51.5659ZM41.9205 44.5613L51.1275 40.151L55.7062 49.0191L46.4994 53.4295L41.9205 44.5613Z" stroke="#131515"/>
</g>
<defs>
<clipPath id="clip0_1_1292">
<rect width="298.667" height="298.667" fill="white"/>
</clipPath>
</defs>
</svg>
