<svg width="288" height="299" viewBox="0 0 288 299" fill="none" xmlns="http://www.w3.org/2000/svg">
<rect width="288" height="298" fill="white"/>
<path d="M29.0594 232.546L77.3633 248.599C80.5174 249.647 82.2178 253.227 81.0857 256.634L73.5957 279.172L73.483 279.486C72.2448 282.691 68.8596 284.396 65.8044 283.38L33.4217 272.619L33.2417 272.702L16.986 280.2L20.8896 268.454L17.4987 267.327C14.3453 266.279 12.6449 262.697 13.7769 259.29L21.2669 236.752L21.3799 236.437C22.6183 233.233 26.0041 231.531 29.0594 232.546Z" fill="white" stroke="#131515"/>
<path d="M39.0416 252.843L41.6374 253.706C42.0933 253.858 42.3391 254.347 42.1878 254.803L39.1678 263.89C39.0161 264.346 38.5263 264.591 38.0704 264.439L35.4747 263.577C35.0188 263.425 34.773 262.936 34.9243 262.48L37.9443 253.393C38.0959 252.937 38.5858 252.692 39.0416 252.843ZM50.393 250.723C50.8179 249.978 51.7674 249.718 52.5116 250.142C53.2565 250.567 53.5169 251.516 53.0932 252.26L52.8459 252.691L52.8453 252.693C52.2986 253.655 51.5948 254.509 50.7702 255.224L50.1077 255.8L56.782 258.018C57.5948 258.288 58.0351 259.167 57.7652 259.98C57.5769 260.546 57.0909 260.934 56.5355 261.023L55.7812 261.144L56.1943 261.786C56.4399 262.169 56.516 262.654 56.3623 263.117C56.124 263.834 55.4096 264.262 54.6904 264.166L53.9782 264.07L54.1363 264.771C54.1968 265.04 54.1865 265.326 54.0932 265.607C53.8761 266.26 53.2654 266.674 52.6146 266.668L52.1641 266.665L52.1132 267.112C52.1008 267.222 52.0769 267.336 52.04 267.447C51.7698 268.26 50.891 268.7 50.0781 268.43L46.1228 267.115C45.4457 266.89 44.8524 266.472 44.4136 265.91L43.1992 264.35L43.0662 264.168C42.4344 263.243 42.2681 262.07 42.6245 260.998L44.1237 256.487C44.469 255.448 45.267 254.626 46.293 254.242L46.673 254.101C48.1438 253.558 49.3727 252.515 50.1464 251.156L50.3927 250.724L50.393 250.723Z" fill="#2F9387" stroke="#131515"/>
<path d="M97.3328 225.99H161.385C164.422 225.99 166.885 228.453 166.885 231.49V232.691H91.8328V231.49C91.8328 228.453 94.2952 225.99 97.3328 225.99Z" fill="white" stroke="#131515"/>
<path d="M151.532 208.662L153.352 225.953H105.367L107.187 208.662H151.532Z" fill="white" stroke="#131515"/>
<path d="M106.736 205.273H151.982V208.161H106.736V205.273Z" fill="#131515"/>
<rect x="40.5" y="90.5" width="178.214" height="116.075" rx="6.5" fill="#90DED5" stroke="#131515"/>
<rect x="45.0039" y="95.9038" width="169.208" height="105.268" rx="4.5" fill="white" stroke="#131515"/>
<path d="M52.1584 101.307C53.1256 101.307 53.9102 102.091 53.9104 103.058C53.9104 104.026 53.1257 104.81 52.1584 104.81C51.1914 104.81 50.4075 104.026 50.4075 103.058C50.4077 102.092 51.1915 101.308 52.1584 101.307Z" fill="#90DED5" stroke="#131515"/>
<path d="M62.0637 101.307C63.0309 101.307 63.8154 102.091 63.8157 103.058C63.8157 104.026 63.031 104.81 62.0637 104.81C61.0966 104.81 60.3127 104.026 60.3127 103.058C60.313 102.092 61.0968 101.308 62.0637 101.307Z" fill="#90DED5" stroke="#131515"/>
<line x1="44.5039" y1="112.014" x2="214.712" y2="112.014" stroke="#131515"/>
<path d="M84.574 128.168C97.1266 128.168 107.302 138.344 107.302 150.897C107.302 163.449 97.1267 173.625 84.574 173.625C72.0213 173.625 61.8455 163.449 61.8455 150.897C61.8456 138.344 72.0214 128.168 84.574 128.168Z" fill="white" stroke="#131515"/>
<path d="M78.3938 160.485L78.0879 141.976L96.9258 150.92L78.3938 160.485Z" fill="#2F9387" stroke="#131515"/>
<rect x="138.438" y="121.89" width="52.989" height="69.2243" rx="4.5" fill="white" stroke="#131515"/>
<path d="M145.65 160.942H184.214" stroke="#131515"/>
<path d="M145.65 165.381H184.214" stroke="#131515"/>
<path d="M145.65 170.224H184.214" stroke="#131515"/>
<path d="M145.65 175.067H184.214" stroke="#131515"/>
<path d="M145.65 179.911H184.214" stroke="#131515"/>
<path d="M145.65 184.754H184.214" stroke="#131515"/>
<path d="M149.673 154.306C152.445 154.605 167.605 154.269 178.75 154.246C180.447 154.243 183.202 153.858 183.737 150.77C184.272 147.683 178.984 140.962 176.092 140.968C173.2 140.974 172.099 142.709 170.433 142.713C167.694 142.718 165.498 136.765 161.541 136.773C158.193 136.78 146.2 148.386 145.763 150.12C145.394 151.58 146.901 154.008 149.673 154.306Z" fill="#90DED5" stroke="#131515"/>
<path d="M180.625 129.424C182.429 129.424 183.892 130.886 183.892 132.69C183.892 134.495 182.429 135.957 180.625 135.957C178.821 135.957 177.359 134.495 177.359 132.69C177.359 130.886 178.821 129.424 180.625 129.424Z" fill="#90DED5" stroke="#131515"/>
<path d="M226.224 284.667L227.041 271L219.301 271.368L217.597 284.029L226.224 284.667Z" fill="white" stroke="#131515"/>
<path d="M246.813 68.7462C246.813 68.7462 244.407 78.7533 248.207 83.6935C252.007 88.6337 233.64 91.5375 232.12 89.0137C230.6 86.4899 238.909 72.5463 233.64 72.5463C227.053 72.5463 227.053 68.2395 228.066 63.426C229.079 58.6124 232.12 51.5188 240.227 51.5188C244.815 51.5188 249.41 53.8502 250.614 58.6124C251.65 62.7101 249.347 66.5505 246.813 68.7462Z" fill="white" stroke="#131515"/>
<path d="M227.431 68.3667C227.532 71.9136 232.287 73.3069 234.651 73.5603C239.338 72.6736 248.29 69.6963 250.485 65.5799C251.499 63.6799 254.766 61.6014 256.303 58.5283C257.232 56.6701 256.27 49.546 253.23 47.7726C250.19 45.9992 247.521 46.6727 245.165 45.9128C241.872 44.8506 237.327 38.9758 231.485 44.0127C227.811 47.1795 230.218 52.6594 232.751 53.7995C235.285 54.9395 238.071 53.7995 241.872 54.9395C245.672 56.0796 243.695 58.877 243.138 59.8797C241.872 62.1598 237.818 64.4399 234.651 64.6932C231.484 64.9466 227.304 63.9332 227.431 68.3667Z" fill="#131515"/>
<path d="M246.814 60.9925C244.99 61.1952 244.027 62.8504 243.774 63.6526C244.787 64.4549 247.168 65.806 248.587 64.7927C250.361 63.5259 249.094 60.7392 246.814 60.9925Z" fill="white"/>
<path d="M271.517 283.739L271.517 271.213L263.278 271.213L262.871 283.981L271.517 283.739Z" fill="white" stroke="#131515"/>
<path d="M199.91 289.068C202 287 213.672 282.56 218 279C218.419 280.117 218 282.355 219.387 282.995C221.565 284 226.019 281.599 227.973 280.273C229.439 284.042 232.246 292 231.743 293.676C231.115 295.77 223.994 297.236 209.335 296.817C194.675 296.398 198.124 290.836 199.91 289.068Z" fill="white" stroke="#131515"/>
<path d="M264.594 281.887C268.615 278.872 274.088 284.261 276.322 287.332C276.741 288.589 277.327 291.647 276.322 293.825C275.066 296.547 264.594 296.966 259.987 294.872C255.38 292.778 259.568 285.657 264.594 281.887Z" fill="white" stroke="#131515"/>
<path d="M201 289C204.56 293.607 226.632 291.917 229.648 289.906" stroke="#131515"/>
<path d="M275.066 288.799C275.066 293.616 262.333 293.825 259.987 290.474" stroke="#131515"/>
<path d="M214.344 163.914C216.658 136.176 271.305 139.202 271.305 163.914C271.305 193.513 212.247 189.045 214.344 163.914Z" fill="#131515"/>
<path d="M272.432 276.061H262.38L244.788 203.6L226.778 273.548H218.82V222.449C218.82 219.433 220.216 177.353 220.914 156.689H260.286C262.24 167.859 266.317 191.873 266.987 198.574C267.657 205.276 270.897 253.025 272.432 276.061Z" fill="#131515"/>
<path d="M222.633 134.243C222.633 136.254 217.747 154.069 215.303 162.725C215.303 162.725 228.902 168.399 243.261 162.725C257.621 157.051 271.22 162.725 271.22 162.725L262.843 127.961L276.246 137.804C279.038 134.523 284.832 126.201 285.67 119.165C286.508 112.128 284.444 102.379 281.272 98.2222C275.199 90.2641 255.932 81.4683 252.581 81.4683C248.392 81.4683 232.267 82.5155 227.869 84.6097C223.471 86.704 215.303 97.3846 213.419 101.364C211.534 105.343 206.298 109.531 204.413 111.207C202.528 112.882 198.131 117.489 197.293 120.84C196.455 124.191 200.853 127.961 208.392 127.961C214.424 127.961 220.399 122.097 222.633 119.165V134.243Z" fill="white" stroke="#131515"/>
<path d="M230.815 121.449C236.399 128.36 247.987 143.732 249.663 149.931" stroke="#131515"/>
<path d="M271.232 118.668C272.07 119.841 266.278 124.568 262.857 127.5C261.357 123 259.421 112.05 260.761 110.71C262.437 109.034 270.185 117.202 271.232 118.668Z" stroke="#131515"/>
<path d="M180.343 128.302C184.531 129.475 194.933 128.791 199.61 128.302C201.285 127.604 204.762 125.747 205.264 123.904C205.893 121.601 201.704 119.297 199.61 119.297C197.516 119.297 195.002 122.229 186.835 122.229C180.301 122.229 182.856 119.297 180.343 116.993C177.91 114.763 169.729 114.559 169.034 116.993C168.615 118.459 172.175 119.088 174.479 119.297C176.783 119.506 177.83 122.229 176.573 122.229C175.317 122.229 170.919 122.648 170.5 123.904C170.081 125.161 175.107 126.836 180.343 128.302Z" fill="white" stroke="#131515"/>
<path d="M264.77 134.794C266.278 134.458 266.382 133.63 267.778 131.815L273.746 135.899C272.909 137.051 271.251 138.676 269.977 139.61C268.406 140.762 265.398 141.344 262.047 141.344C259.367 141.344 253.88 141.344 253.88 139.61C254.019 138.633 254.675 136.301 256.183 134.794C258.068 132.909 262.885 135.212 264.77 134.794Z" fill="white" stroke="#131515"/>
<path d="M7.25108 47.8937L70.6657 16.3562M12.4109 22.1556L16.8261 31.0336M47.9237 4.49469L52.3389 13.3727M2.1313 37.5987C0.901653 35.1262 1.90922 32.125 4.38175 30.8953L58.8426 3.8108C61.3151 2.58116 64.3163 3.58872 65.546 6.06126L92.6305 60.5221C93.8601 62.9946 92.8526 65.9958 90.38 67.2255L35.9192 94.31C33.4467 95.5396 30.4455 94.5321 29.2158 92.0595L2.1313 37.5987ZM20.136 51.5354L32.8189 45.2279L39.1264 57.9109L26.4435 64.2183L20.136 51.5354ZM28.3355 68.0228L41.0184 61.7153L47.3259 74.3983L34.643 80.7057L28.3355 68.0228ZM36.6234 43.3359L49.3063 37.0284L55.6138 49.7113L42.9309 56.0188L36.6234 43.3359ZM44.8229 59.8233L57.5058 53.5158L63.8133 66.1987L51.1304 72.5062L44.8229 59.8233ZM53.112 35.1361L65.7949 28.8286L72.1024 41.5115L59.4195 47.819L53.112 35.1361ZM61.3115 51.6235L73.9944 45.316L80.3019 57.9989L67.619 64.3064L61.3115 51.6235ZM40.4234 44.611L49.3015 40.1958L53.7167 49.0738L44.8387 53.4891L40.4234 44.611Z" stroke="#131515"/>
</svg>
