<svg width="299" height="299" viewBox="0 0 299 299" fill="none" xmlns="http://www.w3.org/2000/svg">
<rect width="298.667" height="298.667" fill="white"/>
<g clip-path="url(#clip0_1_1290)">
<path d="M298.667 0H6.10352e-05V297.668H298.667V0Z" fill="white"/>
<path d="M238.368 272.137L242.326 273.092C244.196 273.544 245.367 275.519 244.837 277.556L242.563 286.298C241.515 290.328 237.551 292.772 233.765 291.859L233.269 291.739C232.488 291.551 231.968 290.717 232.203 289.811C232.438 288.906 233.305 288.406 234.087 288.594L234.582 288.714C236.806 289.25 239.034 287.805 239.611 285.586L239.871 284.587L235.41 283.512C233.54 283.06 232.369 281.084 232.899 279.048L233.969 274.933C234.499 272.896 236.498 271.686 238.368 272.137ZM254.2 275.958L258.158 276.913C260.028 277.364 261.199 279.34 260.669 281.377L258.394 290.119C257.346 294.149 253.384 296.593 249.596 295.68L249.102 295.56C248.32 295.371 247.799 294.537 248.034 293.631C248.27 292.726 249.138 292.227 249.919 292.415L250.414 292.535C252.639 293.071 254.865 291.626 255.443 289.407L255.702 288.408L251.241 287.332C249.371 286.881 248.2 284.905 248.73 282.868L249.801 278.754C250.33 276.717 252.33 275.507 254.2 275.958Z" fill="#90DED5" stroke="#131515"/>
<path d="M113.458 230.925H179.993C183.144 230.925 185.697 233.386 185.697 236.419V237.631H107.754V236.419C107.754 233.386 110.308 230.925 113.458 230.925Z" fill="white" stroke="#131515"/>
<path d="M169.754 213.592L171.644 230.889H121.808L123.7 213.592H169.754Z" fill="white" stroke="#131515"/>
<path d="M123.232 210.202H170.22V213.091H123.232V210.202Z" fill="#131515"/>
<path d="M232.782 95.3936H61.1853C57.4625 95.3936 54.4445 98.3005 54.4445 101.886V205.012C54.4445 208.598 57.4625 211.505 61.1853 211.505H232.782C236.505 211.505 239.522 208.598 239.522 205.012V101.886C239.522 98.3005 236.505 95.3936 232.782 95.3936Z" fill="#90DED5" stroke="#131515"/>
<path d="M230.181 100.797H63.7886C61.2112 100.797 59.1219 102.81 59.1219 105.292V201.604C59.1219 204.086 61.2112 206.099 63.7886 206.099H230.181C232.758 206.099 234.848 204.086 234.848 201.604V105.292C234.848 102.81 232.758 100.797 230.181 100.797Z" fill="white" stroke="#131515"/>
<path d="M66.5542 106.201C67.5591 106.201 68.3732 106.987 68.3732 107.955C68.373 108.922 67.559 109.707 66.5542 109.707C65.5494 109.707 64.7345 108.922 64.7344 107.955C64.7344 106.987 65.5493 106.201 66.5542 106.201Z" fill="#90DED5" stroke="#131515"/>
<path d="M76.84 106.201C77.8448 106.201 78.6589 106.987 78.6589 107.955C78.6588 108.922 77.8448 109.707 76.84 109.707C75.8352 109.707 75.0203 108.922 75.0201 107.955C75.0201 106.987 75.8352 106.201 76.84 106.201Z" fill="#90DED5" stroke="#131515"/>
<path d="M58.6033 116.915H235.366" stroke="#131515"/>
<path d="M97.1099 126.359H158.527C162.576 126.359 165.931 129.807 165.931 134.15V162.476C165.93 166.818 162.575 170.267 158.527 170.267H97.1078C93.0591 170.266 89.7038 166.815 89.7038 162.473V134.147L89.714 133.744C89.9086 129.727 92.9797 126.568 96.7331 126.369L97.1099 126.359Z" fill="#90DED5" stroke="#131515"/>
<path d="M163.881 128.856L129.505 155.164C128.373 156.032 126.769 156.032 125.635 155.164L91.2593 128.856" stroke="#131515"/>
<path d="M141.691 149.509C140.932 146.945 143.507 144.633 146.11 145.54L179.126 157.054C181.511 157.886 182.14 160.851 180.287 162.518L175.331 166.968L174.955 167.305L175.303 167.67L198.408 191.986C199.673 193.317 199.579 195.384 198.197 196.603L190.862 203.069C189.479 204.288 187.333 204.197 186.067 202.866L163.087 178.683L162.734 178.312L162.351 178.655C161.689 179.248 161.129 179.748 160.719 180.112C160.515 180.294 160.349 180.442 160.226 180.548C160.165 180.602 160.115 180.645 160.078 180.677C160.061 180.693 160.045 180.705 160.034 180.715C160.028 180.72 160.023 180.724 160.02 180.727C160.017 180.729 160.016 180.731 160.016 180.731L160.001 180.741L159.988 180.753L156.897 183.528C155.041 185.194 152.015 184.384 151.319 182.035L141.691 149.509Z" fill="#2F9387" stroke="#131515"/>
<path d="M232.73 2.49719H243.535C249.213 2.49731 253.82 6.89701 253.82 12.2968V34.1825C253.82 44.571 244.992 52.9935 234.081 52.9935H232.73C230.023 52.9933 227.846 50.911 227.846 48.3435C227.846 45.7762 230.023 43.6936 232.73 43.6934H234.081C239.578 43.6934 244.053 39.4358 244.053 34.1825V32.3954H232.73C227.052 32.3952 222.445 27.9956 222.445 22.5959V12.2968C222.445 6.89706 227.052 2.49739 232.73 2.49719ZM275.947 2.49719H286.751C292.429 2.49719 297.038 6.89694 297.038 12.2968V34.1825C297.038 44.5711 288.208 52.9935 277.298 52.9935H275.947C273.241 52.9935 271.064 50.9112 271.064 48.3435C271.064 45.776 273.241 43.6934 275.947 43.6934H277.298C282.795 43.6934 287.27 39.4358 287.27 34.1825V32.3954H275.947C270.27 32.3954 265.662 27.9957 265.662 22.5959V12.2968C265.662 6.89694 270.27 2.49719 275.947 2.49719Z" fill="white" stroke="#131515"/>
<path d="M291.945 187.949L238.549 175.959C236.039 175.395 233.53 176.898 232.945 179.316L220.497 230.748C219.912 233.165 221.472 235.582 223.982 236.146L277.378 248.136C279.888 248.7 282.397 247.197 282.982 244.779L295.43 193.348C296.015 190.93 294.455 188.513 291.945 187.949Z" fill="white" stroke="#131515"/>
<path d="M230.181 188.531L293.676 202.789" stroke="#131515"/>
<path d="M249.255 201.576L237.566 198.952L234.841 210.211L246.53 212.836L249.255 201.576Z" fill="white" stroke="#131515"/>
<path d="M245.407 217.477L233.717 214.852L230.992 226.111L242.681 228.736L245.407 217.477Z" fill="white" stroke="#131515"/>
<path d="M265.765 205.283L254.076 202.658L251.35 213.918L263.04 216.542L265.765 205.283Z" fill="white" stroke="#131515"/>
<path d="M261.915 221.186L250.226 218.561L247.501 229.82L259.19 232.445L261.915 221.186Z" fill="white" stroke="#131515"/>
<path d="M282.273 208.99L270.584 206.365L267.859 217.624L279.548 220.249L282.273 208.99Z" fill="white" stroke="#131515"/>
<path d="M278.426 224.893L266.737 222.268L264.012 233.527L275.701 236.152L278.426 224.893Z" fill="white" stroke="#131515"/>
<path d="M264.525 207.071L255.636 205.075L253.564 213.638L262.453 215.634L264.525 207.071Z" fill="#2F9387"/>
<path d="M248.981 173.919L246.909 182.482" stroke="#131515"/>
<path d="M284.541 181.905L282.469 190.467" stroke="#131515"/>
<path d="M232.663 83.4069C244.035 83.4069 253.253 92.2864 253.253 103.239C253.253 114.192 244.034 123.071 232.663 123.071C221.292 123.071 212.074 114.192 212.074 103.239C212.074 92.2865 221.292 83.4071 232.663 83.4069Z" fill="white" stroke="#131515"/>
<path d="M231.114 114.229V103.709L239.264 97.2723" stroke="#131515"/>
<path d="M233.558 88.4804C234.279 88.4804 234.862 87.9181 234.862 87.2244C234.862 86.5308 234.279 85.9684 233.558 85.9684C232.838 85.9684 232.254 86.5308 232.254 87.2244C232.254 87.9181 232.838 88.4804 233.558 88.4804Z" fill="#131515"/>
<path d="M242.851 90.9934C243.571 90.9934 244.155 90.431 244.155 89.7374C244.155 89.0437 243.571 88.4814 242.851 88.4814C242.131 88.4814 241.547 89.0437 241.547 89.7374C241.547 90.431 242.131 90.9934 242.851 90.9934Z" fill="#131515"/>
<path d="M248.392 97.5875C249.112 97.5875 249.696 97.0252 249.696 96.3315C249.696 95.6378 249.112 95.0755 248.392 95.0755C247.672 95.0755 247.088 95.6378 247.088 96.3315C247.088 97.0252 247.672 97.5875 248.392 97.5875Z" fill="#131515"/>
<path d="M249.696 106.537C250.416 106.537 251 105.974 251 105.281C251 104.587 250.416 104.025 249.696 104.025C248.976 104.025 248.392 104.587 248.392 105.281C248.392 105.974 248.976 106.537 249.696 106.537Z" fill="#131515"/>
<path d="M245.782 114.699C246.502 114.699 247.086 114.137 247.086 113.443C247.086 112.75 246.502 112.187 245.782 112.187C245.062 112.187 244.478 112.75 244.478 113.443C244.478 114.137 245.062 114.699 245.782 114.699Z" fill="#131515"/>
<path d="M238.94 119.252C239.66 119.252 240.244 118.69 240.244 117.996C240.244 117.303 239.66 116.74 238.94 116.74C238.219 116.74 237.636 117.303 237.636 117.996C237.636 118.69 238.219 119.252 238.94 119.252Z" fill="#131515"/>
<path d="M229.812 120.509C230.532 120.509 231.116 119.947 231.116 119.253C231.116 118.559 230.532 117.997 229.812 117.997C229.091 117.997 228.508 118.559 228.508 119.253C228.508 119.947 229.091 120.509 229.812 120.509Z" fill="#131515"/>
<path d="M221.825 116.742C222.546 116.742 223.129 116.18 223.129 115.486C223.129 114.792 222.546 114.23 221.825 114.23C221.105 114.23 220.521 114.792 220.521 115.486C220.521 116.18 221.105 116.742 221.825 116.742Z" fill="#131515"/>
<path d="M216.934 110.657C217.654 110.657 218.238 110.095 218.238 109.401C218.238 108.707 217.654 108.145 216.934 108.145C216.214 108.145 215.63 108.707 215.63 109.401C215.63 110.095 216.214 110.657 216.934 110.657Z" fill="#131515"/>
<path d="M215.629 102.689C216.349 102.689 216.933 102.126 216.933 101.433C216.933 100.739 216.349 100.177 215.629 100.177C214.909 100.177 214.325 100.739 214.325 101.433C214.325 102.126 214.909 102.689 215.629 102.689Z" fill="#131515"/>
<path d="M218.238 95.0747C218.958 95.0747 219.542 94.5123 219.542 93.8187C219.542 93.125 218.958 92.5627 218.238 92.5627C217.518 92.5627 216.934 93.125 216.934 93.8187C216.934 94.5123 217.518 95.0747 218.238 95.0747Z" fill="#131515"/>
<path d="M225.247 89.7367C225.967 89.7367 226.551 89.1743 226.551 88.4807C226.551 87.787 225.967 87.2247 225.247 87.2247C224.526 87.2247 223.943 87.787 223.943 88.4807C223.943 89.1743 224.526 89.7367 225.247 89.7367Z" fill="#131515"/>
<path d="M153.917 14.0947L160.541 6.80298" stroke="#131515"/>
<path d="M162.617 22.2402L179.414 9.47968" stroke="#131515"/>
<path d="M49.9782 79.6816C49.9782 79.6816 52.4492 89.5769 48.5479 94.462C44.6467 99.347 65.0629 99.7227 65.0629 99.7227C62.2887 94.2949 58.0926 83.4393 63.5023 83.4393C70.2644 83.4393 70.2646 79.1806 69.2244 74.4208C68.184 69.661 65.0629 62.6467 56.7402 62.6467C52.03 62.6466 47.3131 64.952 46.077 69.661C45.0134 73.7129 47.3774 77.5105 49.9782 79.6816Z" fill="white" stroke="#131515"/>
<path d="M69.8772 79.3097C69.7731 82.8169 64.8922 84.1948 62.4648 84.4453C57.6532 83.5685 48.4634 80.6245 46.2097 76.5541C45.1694 74.6752 41.8152 72.62 40.2377 69.5812C39.284 67.7437 40.2712 60.6992 43.3922 58.9456C46.5131 57.192 49.2525 57.858 51.6714 57.1066C55.0525 56.0563 59.7175 50.2471 65.7158 55.2277C69.4869 58.3592 67.0161 63.7779 64.4153 64.9052C61.8144 66.0324 58.9538 64.9052 55.0525 66.0324C51.1513 67.1598 53.1803 69.926 53.7521 70.9175C55.0525 73.1721 59.2138 75.4268 62.4648 75.6773C65.7159 75.9278 70.0072 74.9257 69.8772 79.3097Z" fill="#131515"/>
<path d="M49.9778 72.0159C51.8504 72.2164 52.8387 73.8531 53.0988 74.6464C52.0585 75.4397 49.6137 76.7757 48.1573 75.7737C46.3367 74.5211 47.6371 71.7654 49.9778 72.0159Z" fill="white"/>
<path d="M107.836 121.975H93.6423V109.214C95.7714 109.29 100.361 109.396 101.686 109.214C103.01 109.031 103.972 106.251 104.288 104.884C103.815 100.858 102.868 92.3972 102.868 90.7566C102.868 88.7058 98.1371 83.009 98.6103 81.414C99.0834 79.8189 101.686 80.5025 102.868 81.414C104.051 82.3255 104.288 84.3762 107.836 84.3762C111.385 84.3762 110.675 76.6288 113.278 76.8566C115.88 77.0846 117.063 82.0976 116.59 84.3762C116.211 86.1992 114.223 88.6298 113.278 89.6172V115.822C113.278 118.374 111.622 121.975 107.836 121.975Z" fill="white" stroke="#131515"/>
<path d="M101.842 60.1485L101.842 60.1485C99.1355 60.8742 97.5526 63.5756 98.3061 66.1822L107.525 98.0739C108.278 100.68 111.083 102.205 113.789 101.479C116.495 100.754 118.078 98.0523 117.325 95.4457L108.106 63.554C107.352 60.9474 104.548 59.4227 101.842 60.1485Z" fill="#2F9387"/>
<path d="M87.5394 71.3234L79.2595 55.8284L128.939 9.57135L158.037 61.9808L87.5394 71.3234Z" fill="white" stroke="#131515"/>
<path d="M90.6064 67.4198L83.8239 54.9904C82.8817 53.2637 80.6647 52.5997 78.8721 53.5073C77.0795 54.4148 76.3901 56.5502 77.3323 58.2769L84.1148 70.7063C85.057 72.4329 87.274 73.097 89.0666 72.1894C90.8592 71.2819 91.5486 69.1464 90.6064 67.4198Z" fill="#131515"/>
<path d="M164.73 56.677L136.755 6.9236C135.536 4.7548 132.722 3.94885 130.47 5.12345C128.219 6.29805 127.382 9.00841 128.601 11.1772L156.576 60.9307C157.796 63.0995 160.61 63.9054 162.861 62.7308C165.113 61.5562 165.95 58.8458 164.73 56.677Z" fill="#2F9387"/>
<path d="M88.3346 57.1048L108.443 39.3311" stroke="#131515"/>
<path d="M113.648 35.0017L131.154 19.051" stroke="#131515"/>
<path d="M159.158 27.8304C162.36 33.5531 161.719 40.1696 158.037 44.4394L144.141 19.5959C149.868 18.9835 155.957 22.1077 159.158 27.8304Z" fill="#131515"/>
<path d="M165.745 31.4122H176.153" stroke="#131515"/>
<path d="M68.3309 278.862L67.6212 264.621L77.3205 265.418L79.0948 278.065L68.3309 278.862Z" fill="white" stroke="#131515"/>
<path d="M63.7167 287.292C62.7705 285.013 65.5305 277.988 67.0287 274.759H77.556C83.2337 277.95 94.9439 284.717 96.3633 286.267C97.7827 287.816 96.3633 290.254 93.5245 290.254C86.0332 290.406 70.6245 290.756 68.9213 290.938C66.7922 291.166 64.8996 290.14 63.7167 287.292Z" fill="white" stroke="#131515"/>
<path d="M82.9951 277.836L78.1454 282.962" stroke="#131515"/>
<path d="M86.783 280.227L82.643 285.468" stroke="#131515"/>
<path d="M14.274 273.619L16.5348 260.061H25.9975L23.7368 274.986L14.274 273.619Z" fill="white" stroke="#131515"/>
<path d="M24.4465 273.163L14.0375 270.314C12.4998 271.796 8.88028 275.328 6.70384 277.606C4.52741 279.886 5.77128 283.355 8.24154 283.873C16.2061 285.544 32.7501 288.955 35.2104 289.228C38.2858 289.57 37.5168 285.011 37.2212 283.873C36.6295 281.594 28.5076 276.392 24.4465 273.163Z" fill="white" stroke="#131515"/>
<path d="M32.491 279.545L27.1682 283.533" stroke="#131515"/>
<path d="M28.8227 276.411L23.4999 280.399" stroke="#131515"/>
<path d="M14.5186 263.204L32.971 153.828L80.0482 157.702V265.027H64.9078L53.789 193.477L23.9813 265.027L14.5186 263.204Z" fill="#131515" stroke="#131515"/>
<path d="M54.963 189.788C58.275 222.602 61.2912 231.317 66.2591 264.358" stroke="white"/>
<path d="M81.8135 160.713L29.0586 158.205L32.3705 123.57L25.7466 131.773L13.6816 115.366C17.9398 109.897 27.8757 98.2765 33.5534 95.542C39.231 92.8077 46.8012 91.3645 49.8766 90.9847C50.3498 92.4279 52.2423 95.3597 56.0274 95.542C59.8125 95.7243 62.1782 92.5799 62.888 90.9847C64.6227 90.9847 69.303 90.4923 74.0067 90.9847C84.8888 92.1241 90.9608 99.7956 96.4807 104.201V123.57H78.5015L81.8135 160.713Z" fill="white" stroke="#131515"/>
<path d="M25.6424 129.225L15.8116 116.122C14.2346 118.78 8.71472 122.429 7.5317 125.848C6.09441 130 5.87572 135.873 5.87572 138.836C5.87572 141.798 7.5317 170.053 5.87572 172.56C4.21973 175.067 1.85404 177.573 2.09061 179.396C2.32718 181.219 4.4563 179.625 7.5317 179.396C10.6071 179.168 13.6825 171.876 14.1556 170.053C14.6287 168.23 14.6287 150.229 15.8116 144.077C16.7579 139.155 23.04 132.111 25.6424 129.225Z" fill="white" stroke="#131515"/>
</g>
<defs>
<clipPath id="clip0_1_1290">
<rect width="298.667" height="298.667" fill="white"/>
</clipPath>
</defs>
</svg>
