<svg width="288" height="299" viewBox="0 0 288 299" fill="none" xmlns="http://www.w3.org/2000/svg">
<rect width="288" height="298" fill="white"/>
<path d="M229.855 272.441L233.671 273.397C235.475 273.849 236.604 275.827 236.093 277.866L233.9 286.618C232.889 290.652 229.067 293.099 225.416 292.185L224.938 292.065C224.185 291.876 223.683 291.041 223.91 290.134C224.137 289.228 224.973 288.728 225.727 288.916L226.204 289.036C228.349 289.573 230.497 288.126 231.053 285.905L231.304 284.905L227.002 283.828C225.199 283.376 224.07 281.398 224.581 279.359L225.613 275.24C226.124 273.201 228.052 271.989 229.855 272.441ZM245.121 276.266L248.938 277.222C250.741 277.674 251.87 279.652 251.359 281.691L249.166 290.443C248.155 294.477 244.334 296.924 240.682 296.01L240.205 295.89C239.451 295.701 238.949 294.866 239.176 293.959C239.403 293.053 240.24 292.553 240.993 292.741L241.471 292.861C243.616 293.398 245.763 291.951 246.32 289.73L246.57 288.73L242.268 287.653C240.465 287.201 239.336 285.223 239.847 283.184L240.879 279.065C241.39 277.026 243.318 275.814 245.121 276.266Z" fill="#90DED5" stroke="#131515"/>
<path d="M109.406 231.183H173.565C176.603 231.183 179.065 233.646 179.065 236.683V237.896H103.906V236.683C103.906 233.646 106.368 231.183 109.406 231.183Z" fill="white" stroke="#131515"/>
<path d="M163.691 213.83L165.514 231.147H117.458L119.282 213.83H163.691Z" fill="white" stroke="#131515"/>
<path d="M118.831 210.437H164.141V213.329H118.831V210.437Z" fill="#131515"/>
<rect x="52.5" y="95.5" width="178.468" height="116.241" rx="6.5" fill="#90DED5" stroke="#131515"/>
<rect x="57.0103" y="100.91" width="169.45" height="105.419" rx="4.5" fill="white" stroke="#131515"/>
<path d="M64.1772 106.32C65.1462 106.32 65.9312 107.106 65.9312 108.075C65.931 109.044 65.1461 109.829 64.1772 109.829C63.2083 109.829 62.4225 109.044 62.4224 108.075C62.4224 107.106 63.2082 106.32 64.1772 106.32Z" fill="#90DED5" stroke="#131515"/>
<path d="M74.0957 106.32C75.0646 106.32 75.8496 107.106 75.8496 108.075C75.8495 109.044 75.0646 109.829 74.0957 109.829C73.1267 109.829 72.341 109.044 72.3408 108.075C72.3408 107.106 73.1267 106.32 74.0957 106.32Z" fill="#90DED5" stroke="#131515"/>
<line x1="56.5103" y1="117.045" x2="226.96" y2="117.045" stroke="#131515"/>
<path d="M93.6416 126.5H152.865C156.77 126.5 160.005 129.952 160.005 134.3V162.657C160.004 167.004 156.769 170.457 152.865 170.457H93.6396C89.7355 170.456 86.5 167.001 86.5 162.654V134.297L86.5098 133.893C86.6975 129.872 89.6589 126.709 93.2783 126.51L93.6416 126.5Z" fill="#90DED5" stroke="#131515"/>
<path d="M158.028 129L124.88 155.337C123.788 156.206 122.241 156.206 121.148 155.337L88 129" stroke="#131515"/>
<path d="M136.631 149.676C135.899 147.109 138.382 144.794 140.892 145.702L172.729 157.229C175.028 158.062 175.635 161.031 173.848 162.699L169.069 167.154L168.707 167.492L169.042 167.857L191.322 192.2C192.542 193.533 192.451 195.602 191.118 196.822L184.045 203.296C182.712 204.516 180.642 204.425 179.422 203.092L157.262 178.882L156.922 178.511L156.553 178.854C155.914 179.448 155.374 179.949 154.979 180.313C154.782 180.495 154.622 180.643 154.504 180.75C154.445 180.804 154.397 180.847 154.361 180.879C154.344 180.895 154.329 180.907 154.318 180.917C154.313 180.922 154.308 180.926 154.305 180.929C154.302 180.931 154.301 180.932 154.301 180.933L154.287 180.943L154.274 180.955L151.293 183.733C149.504 185.401 146.586 184.59 145.915 182.238L136.631 149.676Z" fill="#2F9387" stroke="#131515"/>
<path d="M224.418 2.5H234.837C240.312 2.50012 244.755 6.90473 244.755 12.3105V34.2207C244.755 44.6208 236.242 53.0527 225.721 53.0527H224.418C221.808 53.0525 219.709 50.9678 219.709 48.3975C219.709 45.8273 221.808 43.7424 224.418 43.7422H225.721C231.022 43.7422 235.337 39.4798 235.337 34.2207V32.4316H224.418C218.943 32.4314 214.5 28.0269 214.5 22.6211V12.3105C214.5 6.90478 218.943 2.5002 224.418 2.5ZM266.092 2.5H276.51C281.985 2.5 286.429 6.90466 286.429 12.3105V34.2207C286.429 44.6209 277.915 53.0527 267.394 53.0527H266.092C263.482 53.0527 261.383 50.968 261.383 48.3975C261.383 45.8271 263.482 43.7422 266.092 43.7422H267.394C272.695 43.7422 277.01 39.4798 277.01 34.2207V32.4316H266.092C260.617 32.4316 256.174 28.027 256.174 22.6211V12.3105C256.174 6.90466 260.617 2.5 266.092 2.5Z" fill="white" stroke="#131515"/>
<rect x="0.37342" y="0.600466" width="61.8693" height="61.8697" rx="4.5" transform="matrix(0.973884 0.227048 -0.227043 0.973885 225.42 174.464)" fill="white" stroke="#131515"/>
<line y1="-0.5" x2="62.8693" y2="-0.5" transform="matrix(0.973884 0.227047 -0.227044 0.973885 221.847 189.228)" stroke="#131515"/>
<rect x="0.37342" y="0.600466" width="11.5739" height="11.5739" transform="matrix(0.973884 0.227047 -0.227044 0.973885 228.854 198.504)" fill="white" stroke="#131515"/>
<rect x="0.37342" y="0.600465" width="11.5739" height="11.5739" transform="matrix(0.973884 0.227046 -0.227045 0.973884 225.143 214.422)" fill="white" stroke="#131515"/>
<rect x="0.37342" y="0.600466" width="11.5739" height="11.5739" transform="matrix(0.973884 0.227047 -0.227044 0.973884 244.774 202.215)" fill="white" stroke="#131515"/>
<rect x="0.37342" y="0.600466" width="11.5739" height="11.5739" transform="matrix(0.973884 0.227047 -0.227044 0.973885 241.062 218.135)" fill="white" stroke="#131515"/>
<rect x="0.37342" y="0.600466" width="11.5739" height="11.5739" transform="matrix(0.973884 0.227047 -0.227044 0.973884 260.693 205.926)" fill="white" stroke="#131515"/>
<rect x="257.211" y="222.516" width="11.5739" height="11.5739" transform="rotate(13.1232 257.211 222.516)" fill="white" stroke="#131515"/>
<rect width="8.80171" height="8.80176" transform="matrix(0.973884 0.227045 -0.227046 0.973884 246.506 205.304)" fill="#2F9387"/>
<line y1="-0.5" x2="8.80176" y2="-0.5" transform="matrix(-0.227044 0.973885 -0.973884 -0.227047 239.602 174)" stroke="#131515"/>
<line x1="274.379" y1="182.108" x2="272.381" y2="190.68" stroke="#131515"/>
<path d="M224.354 83.5C235.319 83.5 244.208 92.3894 244.208 103.354C244.208 114.319 235.318 123.208 224.354 123.208C213.389 123.208 204.5 114.319 204.5 103.354C204.5 92.3895 213.389 83.5002 224.354 83.5Z" fill="white" stroke="#131515"/>
<path d="M222.86 114.356V103.825L230.719 97.3809" stroke="#131515"/>
<ellipse cx="225.217" cy="87.3218" rx="1.25739" ry="1.25739" fill="#131515"/>
<ellipse cx="234.178" cy="89.8375" rx="1.25739" ry="1.25739" fill="#131515"/>
<ellipse cx="239.521" cy="96.439" rx="1.25739" ry="1.25739" fill="#131515"/>
<ellipse cx="240.778" cy="105.398" rx="1.25739" ry="1.25739" fill="#131515"/>
<ellipse cx="237.004" cy="113.57" rx="1.25739" ry="1.25739" fill="#131515"/>
<ellipse cx="230.406" cy="118.128" rx="1.25739" ry="1.25739" fill="#131515"/>
<ellipse cx="221.604" cy="119.386" rx="1.25739" ry="1.25739" fill="#131515"/>
<ellipse cx="213.903" cy="115.615" rx="1.25739" ry="1.25739" fill="#131515"/>
<ellipse cx="209.186" cy="109.523" rx="1.25739" ry="1.25739" fill="#131515"/>
<ellipse cx="207.928" cy="101.546" rx="1.25739" ry="1.25739" fill="#131515"/>
<ellipse cx="210.444" cy="93.9234" rx="1.25739" ry="1.25739" fill="#131515"/>
<ellipse cx="217.202" cy="88.5794" rx="1.25739" ry="1.25739" fill="#131515"/>
<path d="M148.42 14.1104L154.807 6.81055" stroke="#131515"/>
<path d="M156.809 22.265L173.006 9.49023" stroke="#131515"/>
<path d="M48.1932 79.7705C48.1932 79.7705 50.5759 89.6769 46.814 94.5674C43.0521 99.4579 62.7391 99.834 62.7391 99.834C60.064 94.4002 56.0178 83.5324 61.2343 83.5324C67.7549 83.5324 67.7551 79.269 66.752 74.5039C65.7488 69.7388 62.7391 62.7166 54.7137 62.7166C50.1717 62.7165 45.6233 65.0245 44.4313 69.7388C43.4057 73.7952 45.6853 77.597 48.1932 79.7705Z" fill="white" stroke="#131515"/>
<path d="M67.3815 79.3982C67.2811 82.9093 62.5746 84.2887 60.2339 84.5395C55.5941 83.6617 46.7325 80.7144 44.5593 76.6395C43.5561 74.7585 40.3217 72.701 38.8006 69.6588C37.8809 67.8193 38.8329 60.7669 41.8424 59.0114C44.8519 57.2558 47.4934 57.9225 49.8259 57.1703C53.0863 56.1188 57.5847 50.3031 63.3687 55.2893C67.0052 58.4243 64.6226 63.849 62.1147 64.9776C59.6067 66.1061 56.8482 64.9776 53.0863 66.1061C49.3244 67.2347 51.2809 70.004 51.8323 70.9966C53.0863 73.2537 57.099 75.5109 60.2339 75.7617C63.3688 76.0125 67.5069 75.0093 67.3815 79.3982Z" fill="#131515"/>
<path d="M48.1928 72.0963C49.9985 72.297 50.9515 73.9355 51.2023 74.7297C50.1992 75.5239 47.8417 76.8614 46.4373 75.8583C44.6817 74.6043 45.9357 71.8455 48.1928 72.0963Z" fill="white"/>
<path d="M103.985 122.111H90.2979V109.336C92.3509 109.412 96.7765 109.518 98.0539 109.336C99.3314 109.153 100.259 106.37 100.563 105.001C100.107 100.971 99.1945 92.5003 99.1945 90.8579C99.1945 88.8048 94.6321 83.1017 95.0884 81.5049C95.5446 79.908 98.0539 80.5924 99.1945 81.5049C100.335 82.4174 100.563 84.4704 103.985 84.4704C107.407 84.4704 106.722 76.7143 109.232 76.9424C111.741 77.1706 112.882 82.1892 112.426 84.4704C112.061 86.2954 110.144 88.7287 109.232 89.7172V115.951C109.232 118.506 107.635 122.111 103.985 122.111Z" fill="white" stroke="#131515"/>
<rect width="9.80917" height="42.951" rx="4.90458" transform="matrix(0.963354 -0.268232 0.268231 0.963355 93.4795 61.5312)" fill="#2F9387"/>
<path d="M84.4129 71.403L76.4287 55.8907L124.334 9.58203L152.393 62.05L84.4129 71.403Z" fill="white" stroke="#131515"/>
<rect width="21.1291" height="7.07173" rx="3.53587" transform="matrix(0.465253 0.885178 -0.885177 0.465254 79.1851 51.9219)" fill="#131515"/>
<rect width="65.5865" height="8.94175" rx="4.47088" transform="matrix(0.476229 0.879322 -0.879319 0.476233 129.742 3)" fill="#2F9387"/>
<path d="M85.1797 57.1685L104.57 39.375" stroke="#131515"/>
<path d="M109.589 35.0408L126.47 19.0723" stroke="#131515"/>
<path d="M153.474 27.8614C156.561 33.5905 155.943 40.2144 152.393 44.489L138.993 19.6177C144.516 19.0047 150.387 22.1324 153.474 27.8614Z" fill="#131515"/>
<path d="M159.825 31.4473H169.862" stroke="#131515"/>
<path d="M65.8904 279.173L65.2061 264.916L74.559 265.714L76.2699 278.375L65.8904 279.173Z" fill="white" stroke="#131515"/>
<path d="M61.4411 287.613C60.5287 285.331 63.1901 278.298 64.6348 275.066H74.7861C80.261 278.26 91.553 285.035 92.9217 286.586C94.2904 288.137 92.9217 290.578 90.1843 290.578C82.9605 290.73 68.1022 291.08 66.4598 291.263C64.4067 291.491 62.5817 290.464 61.4411 287.613Z" fill="white" stroke="#131515"/>
<path d="M80.031 278.146L75.3545 283.278" stroke="#131515"/>
<path d="M83.6835 280.54L79.6914 285.787" stroke="#131515"/>
<path d="M13.7642 273.924L15.9442 260.351H25.069L22.889 275.293L13.7642 273.924Z" fill="white" stroke="#131515"/>
<path d="M23.5733 273.468L13.5361 270.616C12.0533 272.099 8.56304 275.635 6.46433 277.916C4.36563 280.198 5.56508 283.671 7.94711 284.19C15.6272 285.863 31.5804 289.277 33.9528 289.551C36.9184 289.893 36.1768 285.329 35.8918 284.19C35.3212 281.908 27.4894 276.7 23.5733 273.468Z" fill="white" stroke="#131515"/>
<path d="M31.3305 279.857L26.1978 283.849" stroke="#131515"/>
<path d="M27.7933 276.72L22.6606 280.712" stroke="#131515"/>
<path d="M14 263.498L31.7934 154L77.1893 157.878V265.323H62.5896L51.8679 193.693L23.1248 265.323L14 263.498Z" fill="#131515" stroke="#131515"/>
<path d="M53 190C56.1937 222.85 59.1022 231.575 63.8927 264.653" stroke="white"/>
<path d="M78.8915 160.892L28.0207 158.382L31.2144 123.708L24.827 131.92L13.1929 115.495C17.299 110.02 26.8801 98.3862 32.355 95.6487C37.8298 92.9113 45.1297 91.4665 48.0952 91.0863C48.5515 92.5311 50.3764 95.4662 54.0264 95.6487C57.6763 95.8312 59.9575 92.6832 60.6419 91.0863C62.3147 91.0863 66.8278 90.5933 71.3635 91.0863C81.857 92.2269 87.7121 99.907 93.0349 104.317V123.708H75.6978L78.8915 160.892Z" fill="white" stroke="#131515"/>
<path d="M24.7265 129.369L15.2468 116.252C13.7261 118.913 8.4034 122.566 7.26263 125.988C5.87667 130.145 5.66579 136.025 5.66579 138.991C5.66579 141.956 7.26263 170.243 5.66579 172.753C4.06895 175.262 1.78775 177.771 2.01587 179.596C2.24399 181.421 4.29707 179.825 7.26263 179.596C10.2282 179.368 13.1938 172.068 13.65 170.243C14.1062 168.418 14.1062 150.397 15.2468 144.238C16.1593 139.31 22.2171 132.258 24.7265 129.369Z" fill="white" stroke="#131515"/>
</svg>
