<svg width="378" height="379" viewBox="0 0 378 379" fill="none" xmlns="http://www.w3.org/2000/svg">
<rect width="377" height="379" fill="white"/>
<rect x="0.338259" y="0.621742" width="85.6725" height="52.9844" rx="4.5" transform="matrix(0.958781 0.284146 -0.282262 0.959337 178.834 143.86)" fill="white" stroke="#131515"/>
<path d="M190.695 170.485L213.812 166.346L223.895 181.57L240.41 175.702" stroke="#131515"/>
<ellipse cx="1.6786" cy="1.6837" rx="1.6786" ry="1.6837" transform="matrix(0.958781 0.284146 -0.282262 0.959337 189.547 168.444)" fill="#131515"/>
<ellipse cx="1.6786" cy="1.6837" rx="1.6786" ry="1.6837" transform="matrix(0.958781 0.284147 -0.282262 0.959337 212.782 164.285)" fill="#131515"/>
<ellipse cx="1.6786" cy="1.6837" rx="1.6786" ry="1.6837" transform="matrix(0.958781 0.284146 -0.282262 0.959337 222.929 178.337)" fill="#131515"/>
<ellipse cx="1.6786" cy="1.6837" rx="1.6786" ry="1.6837" transform="matrix(0.958781 0.284146 -0.282262 0.959337 238.265 173.593)" fill="#131515"/>
<rect width="4.33186" height="11.9488" transform="matrix(0.958781 0.284146 -0.282262 0.959337 184.969 179.399)" fill="#B8E6E1"/>
<rect width="4.33186" height="13.4696" transform="matrix(0.958781 0.284146 -0.282262 0.959337 192.222 179.962)" fill="#2F9387"/>
<rect width="4.33186" height="14.7731" transform="matrix(0.958781 0.284146 -0.282262 0.959337 199.413 180.733)" fill="#B8E6E1"/>
<rect width="4.33186" height="18.6836" transform="matrix(0.958781 0.284146 -0.282262 0.959337 207.342 179.004)" fill="#B8E6E1"/>
<rect width="4.33186" height="13.4696" transform="matrix(0.958781 0.284146 -0.282262 0.959337 212.695 186.028)" fill="#2F9387"/>
<rect width="4.33186" height="11.9488" transform="matrix(0.958781 0.284146 -0.282262 0.959337 219.087 189.51)" fill="#B8E6E1"/>
<rect width="4.33186" height="9.55905" transform="matrix(0.958781 0.284146 -0.282262 0.959337 225.233 193.825)" fill="#B8E6E1"/>
<rect width="4.33186" height="19.9871" transform="matrix(0.958781 0.284146 -0.282262 0.959337 235.003 185.843)" fill="#2F9387"/>
<rect x="0.648337" y="0.280033" width="56.8193" height="51.4211" rx="4.5" transform="matrix(0.929066 -0.369915 0.367609 0.929981 28.8368 309.579)" fill="white" stroke="#131515"/>
<path d="M81.3413 315.187L65.0329 321.68L58.6874 305.627C58.6874 305.627 57.8842 303.58 60.199 302.84C72.252 298.988 80.5217 308.155 82.2386 312.498C82.7422 313.772 83.0349 314.513 81.3413 315.187Z" fill="#B8E6E1" stroke="#131515"/>
<path d="M84.2767 331.795L67.7435 324.68L84.491 318.012C86.1846 317.338 86.5988 317.468 87.1576 318.881C88.2152 321.557 87.3659 328.029 86.2924 330.191C85.2189 332.354 85.1408 331.961 84.2767 331.795Z" fill="#90DED5" stroke="#131515"/>
<path d="M55.9543 308.721L63.0214 326.599L78.2025 333.232C78.8912 333.504 80.469 333.945 79.505 335.701C77.0995 340.083 62.5981 352.341 48.9884 337.104C40.8048 327.942 44.5439 313.587 54.1952 308.219C54.9331 307.809 55.7676 308.249 55.9543 308.721Z" fill="#2F9387" stroke="#131515"/>
<rect x="0.324449" y="0.629112" width="48.8363" height="48.9833" rx="4.5" transform="matrix(0.952243 0.305342 -0.303345 0.952881 250.635 69.3669)" fill="white" stroke="#131515"/>
<line y1="-0.5" x2="49.8363" y2="-0.5" transform="matrix(0.952243 0.305342 -0.303345 0.952881 246.79 80.8669)" stroke="#131515"/>
<rect x="0.324449" y="0.629112" width="8.96727" height="8.99666" transform="matrix(0.952243 0.305342 -0.303345 0.952881 251.814 88.6432)" fill="white" stroke="#131515"/>
<rect x="0.324449" y="0.629112" width="8.96727" height="8.99666" transform="matrix(0.952243 0.305343 -0.303345 0.952881 247.874 101.028)" fill="white" stroke="#131515"/>
<rect x="0.324449" y="0.629112" width="8.96727" height="8.99666" transform="matrix(0.952243 0.305342 -0.303345 0.952881 264.155 92.6003)" fill="white" stroke="#131515"/>
<rect x="0.324449" y="0.629112" width="8.96727" height="8.99666" transform="matrix(0.952243 0.305342 -0.303345 0.952881 260.213 104.983)" fill="white" stroke="#131515"/>
<rect x="0.324449" y="0.629112" width="8.96727" height="8.99666" transform="matrix(0.952243 0.305343 -0.303345 0.952881 276.492 96.5563)" fill="white" stroke="#131515"/>
<rect x="0.324449" y="0.629112" width="8.96727" height="8.99666" transform="matrix(0.952243 0.305342 -0.303345 0.952881 272.552 108.94)" fill="white" stroke="#131515"/>
<rect width="6.97709" height="6.99766" transform="matrix(0.952243 0.305343 -0.303345 0.952881 265.246 95.1843)" fill="#2F9387"/>
<line y1="-0.5" x2="6.99766" y2="-0.5" transform="matrix(-0.303345 0.952881 -0.952243 -0.305342 261.781 69.9268)" stroke="#131515"/>
<line y1="-0.5" x2="6.99766" y2="-0.5" transform="matrix(-0.303345 0.952881 -0.952243 -0.305342 288.356 78.448)" stroke="#131515"/>
<path d="M110.615 113.498L139.467 125.98L139.769 126.11L139.768 126.441L139.623 157.973L202.278 85.045L110.615 113.498Z" fill="#2F9387" stroke="#131515"/>
<path d="M140.78 125.047L200.271 85.9646" stroke="#131515"/>
<path d="M73.1553 217.161C71.6792 215.958 58.4355 200.632 68.3964 179.772C74.2492 167.515 97.3987 162.158 104.489 168.235C111.58 174.312 110.458 187.366 102.043 182.188C88.457 173.828 111.326 145.089 118.276 139.302C123.953 134.576 133.603 128.231 137.085 125.133" stroke="#131515"/>
<path d="M267.03 214.43C271.705 214.431 275.498 218.234 275.498 222.93C275.498 226.225 273.363 229.606 271.134 232.219C270.03 233.514 268.924 234.596 268.094 235.354C267.679 235.733 267.334 236.03 267.094 236.232C267.072 236.251 267.05 236.268 267.029 236.285C267.009 236.268 266.988 236.251 266.966 236.232C266.725 236.03 266.381 235.733 265.966 235.354C265.136 234.596 264.031 233.514 262.927 232.219C260.698 229.605 258.563 226.225 258.563 222.93C258.563 218.234 262.356 214.43 267.03 214.43Z" fill="#90DED5" stroke="#131515"/>
<ellipse cx="267.03" cy="221.93" rx="3.98557" ry="4" fill="#131515"/>
<path d="M161.603 314.43C170.233 314.43 177.232 321.452 177.232 330.118C177.232 338.784 170.233 345.805 161.603 345.805C152.973 345.805 145.974 338.784 145.974 330.118C145.974 321.452 152.973 314.431 161.603 314.43Z" fill="white" stroke="#131515"/>
<path d="M160.42 338.868V330.493L166.647 325.368" stroke="#131515"/>
<ellipse cx="162.288" cy="317.368" rx="0.996392" ry="1" fill="#131515"/>
<ellipse cx="169.387" cy="319.368" rx="0.996392" ry="1" fill="#131515"/>
<ellipse cx="173.624" cy="324.618" rx="0.996392" ry="1" fill="#131515"/>
<ellipse cx="174.619" cy="331.743" rx="0.996392" ry="1" fill="#131515"/>
<ellipse cx="171.63" cy="338.243" rx="0.996392" ry="1" fill="#131515"/>
<ellipse cx="166.396" cy="341.868" rx="0.996392" ry="1" fill="#131515"/>
<ellipse cx="159.425" cy="342.868" rx="0.996392" ry="1" fill="#131515"/>
<ellipse cx="153.321" cy="339.868" rx="0.996392" ry="1" fill="#131515"/>
<ellipse cx="149.586" cy="335.024" rx="0.996392" ry="1" fill="#131515"/>
<ellipse cx="148.589" cy="328.68" rx="0.996392" ry="1" fill="#131515"/>
<ellipse cx="150.581" cy="322.618" rx="0.996392" ry="1" fill="#131515"/>
<ellipse cx="155.938" cy="318.368" rx="0.996392" ry="1" fill="#131515"/>
<path d="M227.409 261.217L235.588 266.073C239.861 268.61 241.282 274.161 238.753 278.451L228.472 295.896C223.599 304.162 212.983 306.896 204.748 302.007L203.725 301.4C201.701 300.199 201.033 297.587 202.231 295.554C203.429 293.521 206.032 292.851 208.056 294.052L209.079 294.659C213.266 297.145 218.677 295.751 221.153 291.551L222.011 290.093L213.402 284.982C209.129 282.445 207.708 276.894 210.237 272.604L215.075 264.394C217.604 260.104 223.136 258.68 227.409 261.217ZM260.126 280.64L268.305 285.496C272.578 288.033 273.999 293.583 271.47 297.874L261.189 315.318C256.316 323.585 245.7 326.319 237.465 321.43L236.443 320.824C234.419 319.622 233.75 317.01 234.949 314.977C236.147 312.944 238.75 312.274 240.774 313.476L241.796 314.082C245.983 316.568 251.394 315.174 253.869 310.973L254.728 309.516L246.119 304.405C241.846 301.869 240.425 296.317 242.954 292.027L247.792 283.817C250.321 279.527 255.853 278.103 260.126 280.64Z" fill="#2F9387" stroke="#131515"/>
<path d="M116.551 234.653L174.247 215.293C178.069 214.01 182.315 216.255 183.692 220.388L192.693 247.405C194.068 251.537 192.022 255.894 188.2 257.176L149.558 270.143L149.464 270.317L139.191 289.409L134.46 275.209L130.502 276.537C126.681 277.819 122.433 275.572 121.057 271.44L112.056 244.422L111.937 244.035C110.81 240.022 112.849 235.895 116.551 234.653Z" fill="white" stroke="#131515"/>
<path d="M140.654 246.945L143.755 245.905C144.349 245.705 144.992 246.025 145.192 246.625L148.821 257.518C149.02 258.118 148.699 258.762 148.104 258.961L145.004 260.002C144.409 260.201 143.766 259.881 143.567 259.281L139.938 248.388C139.738 247.788 140.06 247.145 140.654 246.945ZM149.922 236.847C149.787 235.771 150.547 234.79 151.615 234.655C152.684 234.52 153.664 235.281 153.799 236.356L153.873 236.947L153.873 236.949C154.041 238.277 153.981 239.615 153.703 240.906L153.519 241.763L161.326 239.144C162.347 238.801 163.456 239.354 163.798 240.381C164.037 241.098 163.84 241.858 163.348 242.368L162.818 242.918L163.532 243.184C164.067 243.384 164.511 243.817 164.706 244.402C165.008 245.309 164.611 246.283 163.814 246.73L163.189 247.081L163.733 247.547C163.997 247.772 164.204 248.069 164.322 248.424C164.597 249.249 164.294 250.131 163.635 250.618L163.273 250.886L163.5 251.274C163.571 251.395 163.632 251.528 163.679 251.668C164.021 252.696 163.467 253.806 162.446 254.149L157.723 255.734C157 255.976 156.23 256.027 155.486 255.883L155.168 255.809L152.888 255.186L152.887 255.185L152.625 255.105C151.328 254.662 150.305 253.633 149.866 252.317L148.065 246.91C147.64 245.635 147.817 244.238 148.54 243.105L148.803 242.701L148.802 242.7C149.807 241.139 150.227 239.277 149.994 237.438L149.922 236.848L149.922 236.847Z" fill="#2F9387" stroke="#131515"/>
<path d="M337.926 123.793C337.926 123.793 335.518 133.843 339.321 138.805C343.124 143.767 324.743 146.683 323.222 144.148C321.701 141.614 330.016 127.609 324.743 127.609C318.151 127.609 318.151 123.284 319.165 118.449C320.179 113.615 323.222 106.49 331.335 106.49C335.926 106.49 340.524 108.832 341.729 113.615C342.766 117.73 340.462 121.587 337.926 123.793Z" fill="white" stroke="#131515"/>
<path d="M318.528 123.412C318.63 126.974 323.388 128.374 325.754 128.628C330.444 127.738 339.403 124.748 341.6 120.613C342.614 118.705 345.884 116.617 347.421 113.531C348.351 111.664 347.389 104.509 344.346 102.728C341.304 100.947 338.634 101.623 336.276 100.86C332.98 99.7935 328.432 93.893 322.585 98.9519C318.909 102.133 321.317 107.636 323.853 108.781C326.388 109.926 329.177 108.781 332.98 109.926C336.783 111.071 334.805 113.881 334.247 114.888C332.98 117.178 328.923 119.468 325.754 119.723C322.585 119.977 318.402 118.959 318.528 123.412Z" fill="#131515"/>
<path d="M337.925 116.005C336.099 116.209 335.136 117.871 334.882 118.677C335.896 119.483 338.279 120.84 339.699 119.822C341.474 118.55 340.206 115.751 337.925 116.005Z" fill="white"/>
<path d="M316.968 340.518L317.786 326.792L310.04 327.162L308.335 339.878L316.968 340.518Z" fill="white" stroke="#131515"/>
<path d="M360.719 341.207L360.719 328.627L352.473 328.627L352.066 341.451L360.719 341.207Z" fill="white" stroke="#131515"/>
<path d="M290.99 345.076C293.002 345.076 302.168 337.924 306.499 334.348C306.918 335.47 308.302 337.966 310.481 338.976C312.661 339.985 317.118 337.574 319.074 336.241C320.541 340.028 323.349 348.02 322.846 349.703C322.217 351.806 315.092 353.279 300.421 352.858C285.751 352.437 288.475 345.076 290.99 345.076Z" fill="white" stroke="#131515"/>
<path d="M353.444 337.925C357.468 334.896 362.945 340.309 365.18 343.394C365.6 344.656 366.186 347.727 365.18 349.915C363.923 352.649 353.444 353.07 348.833 350.966C344.222 348.863 348.414 341.711 353.444 337.925Z" fill="white" stroke="#131515"/>
<path d="M293.085 345.918C296.648 350.545 317.732 347.937 320.75 345.918" stroke="#131515"/>
<path d="M363.924 344.866C363.924 349.704 351.182 349.914 348.835 346.549" stroke="#131515"/>
<path d="M305.435 219.376C307.751 191.517 362.438 194.556 362.438 219.376C362.438 249.104 303.336 244.617 305.435 219.376Z" fill="#131515"/>
<path d="M363.565 332.012H353.506L335.901 259.236L317.877 329.488H309.913V278.166C309.913 275.137 311.31 232.873 312.009 212.12H351.41C353.366 223.338 357.446 247.457 358.116 254.187C358.787 260.918 362.029 308.875 363.565 332.012Z" fill="#131515"/>
<path d="M313.729 189.576C313.729 191.596 308.839 209.488 306.394 218.182C306.394 218.182 320.003 223.881 334.373 218.182C348.743 212.484 362.352 218.182 362.352 218.182L353.969 183.266L367.382 193.152C370.176 189.857 375.974 181.499 376.813 174.432C377.651 167.365 375.586 157.573 372.412 153.398C366.334 145.405 347.052 136.571 343.699 136.571C339.508 136.571 323.37 137.623 318.969 139.726C314.568 141.83 306.394 152.557 304.508 156.553C302.622 160.55 297.382 164.756 295.496 166.439C293.61 168.122 289.209 172.749 288.37 176.115C287.532 179.48 291.933 183.266 299.478 183.266C305.514 183.266 311.494 177.377 313.729 174.432V189.576Z" fill="white" stroke="#131515"/>
<path d="M321.918 176.726C327.507 183.667 339.104 199.106 340.781 205.332" stroke="#131515"/>
<path d="M362.365 173.933C363.204 175.111 356.567 181.295 353.144 184.239C352.166 178.7 350.545 167.286 351.886 165.94C353.563 164.257 361.317 172.46 362.365 173.933Z" fill="#131515"/>
<path d="M271.406 183.61C275.598 184.788 286.007 184.101 290.688 183.61C292.364 182.909 295.843 181.044 296.346 179.193C296.975 176.879 292.783 174.565 290.688 174.565C288.592 174.565 286.077 177.51 277.903 177.51C271.364 177.51 273.921 174.565 271.406 172.252C268.971 170.011 260.785 169.807 260.089 172.252C259.67 173.724 263.233 174.355 265.538 174.565C267.843 174.776 268.891 177.51 267.634 177.51C266.376 177.51 261.975 177.931 261.556 179.193C261.137 180.455 266.167 182.137 271.406 183.61Z" fill="white" stroke="#131515"/>
<path d="M355.897 190.129C357.406 189.792 357.51 188.96 358.907 187.137L364.88 191.239C364.042 192.396 362.383 194.028 361.108 194.967C359.536 196.123 356.526 196.708 353.172 196.708C350.49 196.708 344.999 196.708 344.999 194.967C345.138 193.985 345.795 191.643 347.304 190.129C349.19 188.236 354.011 190.549 355.897 190.129Z" fill="white" stroke="#131515"/>
<path d="M103.458 135.158C95.0375 135.503 83.6241 124.954 78.9699 119.636L86.9178 113.384L101.31 123.301V100.665H109.473L111.406 126.535C111.406 129.122 111.878 134.814 103.458 135.158Z" fill="white" stroke="#131515"/>
<rect width="9.23915" height="40.5802" rx="4.61957" transform="matrix(0.963103 -0.269132 0.267333 0.963604 95.9711 76.2449)" fill="#2F9387"/>
<path d="M87.4357 85.5738L79.9174 70.914L125.027 27.1501L151.448 76.7348L87.4357 85.5738Z" fill="white" stroke="#131515"/>
<rect width="19.9525" height="6.66427" rx="3.33213" transform="matrix(0.463935 0.885869 -0.884482 0.466574 82.5079 67.1648)" fill="#131515"/>
<rect width="61.9318" height="8.42686" rx="4.21343" transform="matrix(0.4749 0.88004 -0.878597 0.477563 130.119 20.9304)" fill="#2F9387"/>
<path d="M88.1544 72.1221L106.413 55.3064" stroke="#131515"/>
<path d="M111.139 51.2099L127.034 36.1189" stroke="#131515"/>
<path d="M152.463 44.4268C155.37 49.841 154.788 56.101 151.446 60.1407L138.828 36.6361C144.028 36.0568 149.557 39.0126 152.463 44.4268Z" fill="#131515"/>
<path d="M147.705 31.4297L153.72 24.531" stroke="#131515"/>
<path d="M155.604 39.137L170.855 27.0642" stroke="#131515"/>
<path d="M158.444 47.8142H167.896" stroke="#131515"/>
<path d="M29.0278 280.572V262.786H20.3281V280.572H29.0278Z" fill="white" stroke="#131515"/>
<path d="M63.0295 258.052L49.4224 246.657L43.9672 252.4L57.456 264.756L63.0295 258.052Z" fill="white" stroke="#2F9387"/>
<path d="M58.5639 246.617L49.1123 258.474L36.4385 246.617L34.9349 268.175H19.0391V225.489C17.0343 223.262 12.5091 217.772 10.4469 213.632C7.86925 208.458 6.3017 197.145 10.4469 192.505C16.0321 186.253 31.2773 172.527 40.2276 164.91H89.7109C82.7014 188.431 42.8828 194.931 42.8828 217.728C42.8828 220.428 52.7641 238.712 58.5639 246.617Z" fill="#2F9387"/>
<path d="M21.1874 259.983V212.123C23.6176 193.925 31.5625 186.273 42.0238 172.886" stroke="white"/>
<path d="M64.5796 110.582C59.4242 113.341 53.5528 109.432 51.2615 107.132C47.753 109.36 40.3063 115.281 38.5878 121.145C36.8694 127.009 37.8718 129.05 38.5878 129.337H51.2615C51.2615 132.068 52.3355 137.875 52.3355 140.117C52.3355 149.955 44.4054 156.305 40.7359 164.694H90.1417C90.1417 160.957 89.798 152.707 88.4233 149.603C87.0485 146.498 82.4086 130.344 80.2606 122.654L92.075 115.324C91.359 113.743 88.9388 109.547 84.9863 105.407C81.0339 101.268 74.1743 102.389 71.2386 103.467C71.167 104.689 69.735 107.822 64.5796 110.582Z" fill="white" stroke="#131515"/>
<path d="M68.1205 252.653C64.2276 251.561 60.3291 253.903 60.3291 253.903L57.38 263.432C59.9118 268.635 74.5727 290.876 79.847 286.056C88.4018 278.239 72.0135 253.746 68.1205 252.653Z" fill="white" stroke="#131515"/>
<path d="M63.5831 252.516C69.9829 255.371 83.1843 278.386 79.0333 286.266" stroke="#131515"/>
<path d="M65.9344 277.022C66.4933 276.691 69.2005 273.659 69.4826 272.41" stroke="#131515"/>
<path d="M63.0322 273.774C63.5911 273.443 67.0818 269.383 67.364 268.133" stroke="#131515"/>
<path d="M35.8528 278.483C34.5102 274.656 30.7504 274.279 30.7504 274.279L19.5804 277.082C16.7882 282.148 8.75451 307.203 15.7139 308.773C27.0019 311.318 37.1953 282.31 35.8528 278.483Z" fill="white" stroke="#131515"/>
<path d="M33.083 274.776C35.1236 283.885 21.3222 308.03 14.9317 308.461" stroke="#131515"/>
<path d="M14.6343 291.889C15.225 292.159 19.2527 292.644 20.4341 292.159" stroke="#131515"/>
<path d="M16.0844 287.901C16.6751 288.171 21.9916 288.71 23.173 288.225" stroke="#131515"/>
<path d="M62.1187 65.4775C66.9518 65.4775 72.4309 70.9458 70.4977 76.0499C68.5644 81.1539 59.8647 77.559 59.8647 84.8889C54.0649 86.6136 57.5123 91.3565 58.6832 91.8954C59.2497 95.9211 58.6832 100.726 49.1377 100.726C43.9301 100.726 47.4194 96.7016 40.5454 96.7016C35.9823 96.7016 34.1012 103.17 27.0125 103.17C24.6545 103.17 19.6661 96.1416 10.9021 99.0735C5.74672 100.798 -1.7716 90.6657 0.37652 87.2163C4.58715 80.455 8.75384 87.2163 12.1909 83.3358C14.7952 80.3954 13.0498 76.437 17.0239 74.2812C24.565 70.1905 27.9793 73.311 31.5237 71.3708C35.068 69.4305 32.8125 67.4902 38.8271 66.1967C42.8178 65.3385 47.4747 69.2488 51.4858 70.2205C54.6004 70.975 55.017 65.4775 62.1187 65.4775Z" fill="#131515"/>
<path d="M106.035 101.284C106.706 99.5219 104.967 98.7872 104.097 98.0382C102.672 97.3308 100.377 97.4141 99.9021 98.9953C99.5893 100.037 101.07 101.876 102.633 102.241C104.057 102.574 105.481 102.74 106.035 101.284Z" fill="white" stroke="#131515"/>
<path d="M114.568 89.7977C115.478 92.0799 113.119 93.0315 111.937 94.0016C110.004 94.9178 106.889 94.81 106.245 92.762C105.82 91.4129 107.829 89.0311 109.95 88.5581C111.884 88.1269 113.817 87.9113 114.568 89.7977Z" fill="white" stroke="#131515"/>
<path d="M58.1303 100.716C58.3307 102.672 53.9339 106.115 52.1438 107.049C54.8647 109.493 58.1303 113.795 66.7227 112.358C70.847 111.668 75.1283 106.115 75.9875 102.522C70.6173 102.522 64.6715 99.4504 66.7227 92.9171C66.7227 91.2069 58.1303 88.8866 58.1303 92.5553C57.8041 94.4316 57.7574 97.0752 58.1303 100.716Z" fill="white" stroke="#131515"/>
<path d="M56.5069 87.3501C55.6477 88.8592 55.0032 87.7812 55.0032 91.015C55.0032 95.0408 64.4375 96.5114 67.0325 95.9358C69.0946 95.5908 70.0398 92.7397 70.0398 90.3683C70.0398 90.3683 72.365 89.5169 72.5222 88.2825C72.6795 87.048 70.0398 75.8863 70.0398 75.8863C68.6077 75.3832 64.9703 79.6752 61.8771 80.8825C58.0105 82.3916 57.3661 85.841 56.5069 87.3501Z" fill="white" stroke="#131515"/>
<path d="M42.0246 147.34C40.1343 144.58 40.0096 135.112 40.5466 129.256H51.7985V144.86C56.7901 150.032 64.0061 156.855 71.9904 154.777C74.8903 154.023 75.1051 152.514 79.4013 152.837C82.8382 153.096 85.4159 156.286 85.4159 158.873C85.4159 161.46 77.3606 160.059 72.8496 160.059C67.4784 160.059 59.9612 160.059 55.8798 158.011C53.5722 156.853 44.3875 150.789 42.0246 147.34Z" fill="white" stroke="#131515"/>
</svg>
