<svg width="377" height="319" viewBox="0 0 377 319" fill="none" xmlns="http://www.w3.org/2000/svg">
<rect width="377" height="318" fill="white"/>
<path d="M113.547 263.66H179.173C182.211 263.66 184.673 266.122 184.673 269.16V270.516H108.047V269.16L108.054 268.876C108.202 265.971 110.605 263.66 113.547 263.66Z" fill="white" stroke="#131515"/>
<path d="M169.002 245.98L170.862 263.639H121.861L123.721 245.98H169.002Z" fill="white" stroke="#131515"/>
<path d="M123.27 242.534H169.452V245.48H123.27V242.534Z" fill="#131515"/>
<rect x="55.6517" y="125.44" width="181.922" height="118.432" rx="6.5" fill="#90DED5" stroke="#131515"/>
<rect x="60.2487" y="130.952" width="172.73" height="107.408" rx="4.5" fill="white" stroke="#131515"/>
<circle cx="67.5602" cy="138.26" r="1.79678" fill="#90DED5" stroke="#131515"/>
<circle cx="77.672" cy="138.26" r="1.79678" fill="#90DED5" stroke="#131515"/>
<line x1="59.7487" y1="147.41" x2="233.479" y2="147.41" stroke="#131515"/>
<path d="M199.717 155.758H232.435C232.82 155.759 233.205 155.964 233.511 156.368C233.817 156.772 234.021 157.352 234.021 158.014V167.431L234.011 167.675C233.968 168.236 233.779 168.725 233.511 169.079C233.205 169.482 232.82 169.687 232.435 169.687H204.879L204.73 169.863L201.193 174V169.687H199.716C199.331 169.687 198.945 169.482 198.64 169.078C198.334 168.673 198.13 168.092 198.13 167.43V158.013L198.14 157.769C198.183 157.209 198.372 156.72 198.64 156.367C198.946 155.963 199.332 155.758 199.717 155.758Z" fill="white" stroke="#131515"/>
<circle cx="206.82" cy="162.607" r="2.75613" fill="#2F9387"/>
<circle cx="216.013" cy="162.607" r="2.75613" fill="#2F9387"/>
<circle cx="225.204" cy="162.607" r="2.75613" fill="#2F9387"/>
<path d="M223.541 213.637C231.482 213.637 237.921 220.072 237.921 228.009C237.92 235.946 231.482 242.38 223.541 242.38C215.599 242.38 209.161 235.946 209.161 228.009C209.161 220.072 215.599 213.637 223.541 213.637Z" fill="white" stroke="#131515"/>
<path d="M222.448 236.048V228.354L228.193 223.645" stroke="#131515"/>
<circle cx="224.171" cy="216.295" r="0.918709" fill="#131515"/>
<circle cx="230.721" cy="218.134" r="0.918709" fill="#131515"/>
<circle cx="234.627" cy="222.956" r="0.918709" fill="#131515"/>
<circle cx="235.547" cy="229.501" r="0.918709" fill="#131515"/>
<circle cx="232.788" cy="235.475" r="0.918709" fill="#131515"/>
<circle cx="227.963" cy="238.806" r="0.918709" fill="#131515"/>
<circle cx="221.528" cy="239.725" r="0.918701" fill="#131515"/>
<circle cx="215.898" cy="236.969" r="0.918709" fill="#131515"/>
<circle cx="212.452" cy="232.518" r="0.918709" fill="#131515"/>
<circle cx="211.533" cy="226.686" r="0.918709" fill="#131515"/>
<circle cx="213.37" cy="221.117" r="0.918709" fill="#131515"/>
<circle cx="218.312" cy="217.214" r="0.918709" fill="#131515"/>
<path d="M123.218 173.697L136.264 183.028L136.533 183.221L136.461 183.543L132.98 199.198L172.525 169.457L123.218 173.697Z" fill="#2F9387" stroke="#131515"/>
<path d="M136.915 182.886L172.177 169.4" stroke="#131515"/>
<path d="M91.4694 222.858C90.8387 222.07 85.6901 212.658 93.2038 203.002C97.6187 197.329 110.233 197.171 113.228 201.111C116.224 205.051 114.175 211.67 110.39 208.045C104.281 202.193 119.378 189.922 123.635 187.716C127.112 185.914 132.833 183.724 134.988 182.516" stroke="#131515"/>
<path d="M85.0287 156.601C85.5258 156.601 86.0124 156.643 86.4847 156.721H86.4867C86.5848 156.737 86.6775 156.81 86.7211 156.926L86.7367 156.979L87.1898 159.045L87.2455 159.301L87.4877 159.401C88.0176 159.619 88.5146 159.908 88.9652 160.254L89.1722 160.414L89.4213 160.335L91.4379 159.694C91.5427 159.661 91.646 159.677 91.722 159.725L91.7885 159.783C92.0657 160.118 92.3181 160.474 92.5433 160.849L92.7054 161.127V161.128C92.8797 161.443 93.033 161.766 93.1664 162.099L93.2416 162.303C93.2823 162.414 93.2522 162.553 93.1449 162.649L93.1429 162.651L91.5756 164.077L91.3822 164.253L91.4164 164.512C91.4535 164.792 91.474 165.078 91.474 165.366C91.474 165.654 91.4534 165.94 91.4164 166.219L91.3822 166.479L91.5756 166.655L93.1429 168.081L93.1449 168.084C93.2519 168.18 93.282 168.318 93.2416 168.428C93.0924 168.832 92.9125 169.22 92.7045 169.595L92.5404 169.878C92.3149 170.254 92.0613 170.611 91.7836 170.947L91.7826 170.949C91.7208 171.024 91.6104 171.068 91.4877 171.047L91.434 171.035L89.4183 170.394L89.1693 170.315L88.9623 170.474C88.5116 170.821 88.0138 171.11 87.4838 171.328L87.2416 171.427L87.1859 171.683L86.7338 173.75C86.7012 173.897 86.5951 173.989 86.4828 174.007H86.4808C86.0085 174.086 85.5219 174.127 85.0248 174.127C84.5277 174.127 84.041 174.086 83.5687 174.007H83.5677C83.4695 173.991 83.376 173.919 83.3324 173.802L83.3168 173.75L82.8646 171.683L82.808 171.427L82.5658 171.328L82.1752 171.151C81.7905 170.961 81.4263 170.734 81.0883 170.474L80.8802 170.315L80.6312 170.394L78.6185 171.039C78.4789 171.083 78.3421 171.037 78.2689 170.949H78.2679C77.9908 170.613 77.7382 170.258 77.5131 169.882L77.347 169.595C77.1921 169.315 77.0527 169.028 76.9301 168.733L76.8119 168.432C76.7714 168.321 76.8014 168.183 76.9086 168.086L76.9105 168.085L78.4779 166.659L78.6713 166.483L78.6371 166.224C78.5999 165.94 78.5795 165.654 78.5795 165.366C78.5795 165.078 78.6 164.792 78.6371 164.512L78.6713 164.253L78.4779 164.077L76.9105 162.651L76.9086 162.649L76.8715 162.611C76.7948 162.519 76.7768 162.401 76.8119 162.304C76.9607 161.902 77.1398 161.515 77.347 161.14L77.517 160.847L77.516 160.846C77.7405 160.473 77.9938 160.12 78.2699 159.786L78.2709 159.784C78.3415 159.698 78.4759 159.651 78.6195 159.697V159.698L80.6351 160.337L80.8842 160.417L81.0922 160.257C81.5427 159.911 82.0399 159.623 82.5697 159.405L82.8119 159.305L82.8676 159.049L83.3197 156.982C83.3524 156.835 83.4586 156.744 83.5707 156.725L83.5765 156.724C84.0465 156.642 84.5316 156.601 85.0287 156.601ZM85.0287 161.971C84.1282 161.971 83.2641 162.329 82.6273 162.965C81.9908 163.602 81.6333 164.466 81.6332 165.366C81.6332 166.266 81.9906 167.13 82.6273 167.767C83.2641 168.404 84.1282 168.761 85.0287 168.761C85.929 168.761 86.7924 168.404 87.4291 167.767C88.0658 167.13 88.4242 166.266 88.4242 165.366C88.4241 164.465 88.0658 163.602 87.4291 162.965C86.7924 162.329 85.9291 161.971 85.0287 161.971Z" fill="#2F9387" stroke="#131515"/>
<path d="M220.154 254.221C220.872 254.221 221.575 254.28 222.257 254.394L222.259 254.395C222.48 254.431 222.67 254.59 222.756 254.821L222.787 254.924L223.43 257.86L223.486 258.116L223.728 258.215C224.499 258.533 225.222 258.952 225.876 259.456L226.083 259.615L226.333 259.536L229.197 258.626H229.198C229.471 258.539 229.757 258.622 229.92 258.817V258.818C230.321 259.303 230.687 259.818 231.013 260.361L231.251 260.771C231.5 261.221 231.72 261.683 231.912 262.161V262.162L232.022 262.463C232.111 262.706 232.041 262.991 231.829 263.182L231.826 263.185L229.599 265.212L229.406 265.387L229.44 265.647C229.494 266.053 229.523 266.468 229.523 266.887C229.523 267.306 229.494 267.721 229.44 268.128L229.406 268.387L229.599 268.563L231.826 270.589L231.829 270.591C232.041 270.782 232.111 271.069 232.022 271.312C231.806 271.896 231.547 272.456 231.247 272.998L231.005 273.414C230.68 273.955 230.315 274.468 229.916 274.952L229.914 274.954C229.753 275.149 229.47 275.232 229.192 275.143L226.328 274.233L226.079 274.154L225.872 274.313C225.217 274.816 224.494 275.236 223.723 275.553L223.481 275.653L223.424 275.909L222.782 278.845C222.719 279.132 222.506 279.333 222.253 279.375H222.252C221.57 279.488 220.866 279.548 220.148 279.548C219.43 279.548 218.727 279.488 218.044 279.375H218.043C217.822 279.339 217.632 279.18 217.545 278.949L217.515 278.845L216.873 275.909L216.816 275.653L216.574 275.553C215.803 275.236 215.08 274.816 214.425 274.313L214.218 274.154L213.968 274.233L211.109 275.149C210.869 275.225 210.62 275.17 210.453 275.024L210.386 274.956C209.986 274.471 209.62 273.957 209.294 273.415L209.057 273.006C208.832 272.6 208.629 272.182 208.451 271.753L208.28 271.317C208.191 271.074 208.262 270.788 208.474 270.597L208.476 270.595L210.703 268.569L210.896 268.393L210.863 268.133C210.809 267.721 210.779 267.306 210.779 266.887C210.779 266.468 210.808 266.053 210.862 265.647L210.897 265.387L210.703 265.212L208.476 263.185L208.474 263.182L208.401 263.107C208.268 262.948 208.216 262.744 208.253 262.555L208.28 262.463C208.497 261.876 208.758 261.313 209.06 260.768L209.059 260.767L209.296 260.359C209.622 259.818 209.988 259.306 210.387 258.823L210.388 258.821C210.529 258.65 210.763 258.565 211.005 258.606L211.11 258.631L213.975 259.542L214.223 259.621L214.431 259.462C215.086 258.958 215.809 258.538 216.58 258.221L216.822 258.122L216.877 257.866L217.52 254.929C217.583 254.643 217.796 254.441 218.048 254.4L218.053 254.399C218.734 254.281 219.436 254.221 220.154 254.221ZM220.154 262.273C218.93 262.273 217.756 262.759 216.891 263.625C216.026 264.49 215.54 265.664 215.54 266.887C215.54 268.111 216.026 269.285 216.891 270.15C217.756 271.015 218.93 271.502 220.154 271.502C221.378 271.502 222.551 271.015 223.417 270.15C224.282 269.285 224.768 268.111 224.768 266.887C224.768 265.664 224.282 264.49 223.417 263.625C222.551 262.759 221.378 262.273 220.154 262.273Z" fill="#2F9387" stroke="#131515"/>
<path d="M154.333 210.227H182.099C183.763 210.227 185.18 211.705 185.18 213.616V226.904C185.18 228.815 183.762 230.292 182.099 230.292H154.332C152.669 230.292 151.25 228.813 151.25 226.902V213.615L151.254 213.437C151.339 211.613 152.721 210.227 154.333 210.227Z" fill="#2F9387" stroke="#131515"/>
<path d="M184.755 211.861L170.205 223.415C169.113 224.283 167.566 224.283 166.474 223.415L151.924 211.861" stroke="#131515"/>
<path d="M285.848 306.067L286.627 293.047L279.249 293.398L277.625 305.46L285.848 306.067Z" fill="white" stroke="#131515"/>
<path d="M330.608 305.415L328.704 293.635L320.95 294.887L322.508 306.958L330.608 305.415Z" fill="white" stroke="#131515"/>
<path d="M261.104 310.389C263.021 310.389 273.016 304.166 277.142 300.774C277.541 301.838 278.633 304.914 281.084 304.914C283.371 304.914 285.991 303.273 287.854 302.01C289.252 305.601 291.927 313.183 291.447 314.779C290.849 316.774 284.061 318.17 270.088 317.771C256.114 317.372 258.709 310.389 261.104 310.389Z" fill="white" stroke="#131515"/>
<path d="M324.595 303.488C329.382 303.292 333.136 305.864 334.046 308.594C334.446 309.792 335.005 311.938 334.046 314.013C332.444 317.484 322.649 318.353 318.476 315.777C314.371 313.244 317.309 303.788 324.595 303.488Z" fill="white" stroke="#131515"/>
<path d="M260.966 310.473C265.358 317.057 289.463 313.915 290.66 310.922" stroke="#131515"/>
<path d="M334.379 310.326C332.133 315.464 318.648 315.065 316.412 311.872" stroke="#131515"/>
<path d="M314.076 84.1471C308.985 81.6532 301.523 80.3563 296.931 84.1471C281.11 97.2095 318.111 112.379 296.931 162.358C308.01 163.821 353.661 164.512 359.89 162.358C367.675 159.664 365.379 148.591 365.379 144.9C365.379 141.209 366.277 141.009 372.566 136.52C378.854 132.031 377.357 121.756 374.761 117.766C372.166 113.775 355.697 114.573 350.707 112.379C345.716 110.184 350.407 97.9138 342.822 93.3249C335.236 88.736 329.247 92.3273 323.258 91.8285C317.27 91.3297 319.166 86.6411 314.076 84.1471Z" fill="#131515"/>
<path d="M274.864 191.142C277.07 164.716 329.159 167.599 329.159 191.142C329.159 219.341 272.865 215.084 274.864 191.142Z" fill="#131515"/>
<path d="M330.234 297.984H320.652L303.884 228.952L288.641 296.908L278.134 295.843C278.134 280.812 279.13 249.781 279.13 246.908C279.13 244.035 280.461 203.946 281.126 184.26H318.656C320.519 194.901 324.405 217.779 325.044 224.163C325.683 230.548 328.77 276.037 330.234 297.984Z" fill="#2F9387" stroke="#131515"/>
<path d="M303.04 228.956C302.142 230.033 293.191 271.072 286.677 295.39" stroke="white"/>
<path d="M282.764 162.874C282.764 164.789 278.106 181.761 275.777 190.008C275.777 190.008 288.739 195.413 302.427 190.008C316.115 184.602 328.09 189.249 328.09 189.249L321.092 156.888L333.868 166.265C336.53 163.14 342.052 155.212 342.851 148.508C343.649 141.805 341.682 132.517 338.659 128.557C332.87 120.975 314.504 112.595 311.31 112.595C307.318 112.595 291.947 113.593 287.754 115.588C283.562 117.583 275.777 127.759 273.98 131.549C272.184 135.34 267.193 139.331 265.396 140.927C263.6 142.523 259.408 146.912 258.609 150.105C257.811 153.297 262.003 156.888 269.189 156.888C274.938 156.888 280.634 151.302 282.764 148.508V162.874Z" fill="white" stroke="#131515"/>
<path d="M329.09 148.036C329.889 149.153 323.567 155.019 320.307 157.812C319.375 152.559 317.831 141.731 319.109 140.455C320.706 138.858 328.092 146.64 329.09 148.036Z" fill="#131515"/>
<path d="M305.961 112.196C306.28 114.271 312.548 112.196 312.548 115.588C312.548 118.98 306.768 122.571 301.569 122.571C294.782 122.571 288.993 119.76 288.993 117.184C288.993 113.792 296.419 115.229 297.377 113.792C298.335 112.356 297.776 106.676 297.377 104.016L304.164 102.619C304.63 104.947 305.641 110.121 305.961 112.196Z" fill="white" stroke="#131515"/>
<path d="M299.635 92.0263C295.164 93.9417 294.343 103.05 298.288 106.342C302.232 109.634 309.718 103.05 309.718 103.05C311.415 103.05 313.611 102.95 313.611 100.606C313.61 98.0119 311.181 98.5421 311.415 97.3135C312.762 90.2307 305.225 89.6321 299.635 92.0263Z" fill="white" stroke="#131515"/>
<path d="M233.071 153.025C232.672 154.223 237.463 155.819 242.454 157.215C247.048 158.501 264.26 160.169 266.209 153.025C266.808 150.831 262.815 148.636 260.819 148.636C258.823 148.636 256.427 151.429 248.642 151.429C242.414 151.429 244.849 148.636 242.454 146.441C240.134 144.317 232.337 144.122 231.674 146.441C231.275 147.838 234.668 148.437 236.864 148.636C239.06 148.836 240.058 151.429 238.86 151.429C237.663 151.429 233.47 151.828 233.071 153.025Z" fill="white" stroke="#131515"/>
<path d="M322.929 163.401C324.367 163.082 324.466 162.293 325.797 160.563L331.486 164.454C330.687 165.551 329.108 167.099 327.893 167.99C326.395 169.087 323.528 169.641 320.334 169.641C317.779 169.641 312.549 169.641 312.549 167.99C312.682 167.059 313.307 164.837 314.745 163.401C316.541 161.605 321.133 163.8 322.929 163.401Z" fill="white" stroke="#131515"/>
<rect x="0.623188" y="0.334343" width="78.9316" height="48.6125" rx="4.5" transform="matrix(0.957432 -0.288659 0.288945 0.957346 115.75 67.3643)" fill="white" stroke="#131515"/>
<path d="M138.496 81.4849L154.249 66.6216L169.699 73.2242L179.486 60.3684" stroke="#131515"/>
<ellipse cx="1.54804" cy="1.54734" rx="1.54804" ry="1.54734" transform="matrix(0.957432 -0.288659 0.288945 0.957346 136.581 80.5001)" fill="#131515"/>
<ellipse cx="1.54804" cy="1.54734" rx="1.54804" ry="1.54734" transform="matrix(0.957432 -0.288658 0.288945 0.957346 152.414 65.5593)" fill="#131515"/>
<ellipse cx="1.54804" cy="1.54734" rx="1.54804" ry="1.54734" transform="matrix(0.957432 -0.288659 0.288945 0.957346 167.323 71.2295)" fill="#131515"/>
<ellipse cx="1.54804" cy="1.54734" rx="1.54804" ry="1.54734" transform="matrix(0.957432 -0.288658 0.288945 0.957346 176.767 59.8354)" fill="#131515"/>
<rect width="3.99495" height="10.9811" transform="matrix(0.957432 -0.288659 0.288945 0.957346 138.568 91.2309)" fill="#B8E6E1"/>
<rect width="3.99495" height="12.3787" transform="matrix(0.957432 -0.288659 0.288944 0.957346 144.447 87.9972)" fill="#2F9387"/>
<rect width="3.99495" height="13.5767" transform="matrix(0.957432 -0.288659 0.288945 0.957346 150.386 84.955)" fill="#B8E6E1"/>
<rect width="3.99495" height="17.1705" transform="matrix(0.957432 -0.288659 0.288944 0.957346 155.631 79.6212)" fill="#B8E6E1"/>
<rect width="3.99495" height="12.3787" transform="matrix(0.957432 -0.288659 0.288944 0.957346 163.299 82.3131)" fill="#2F9387"/>
<rect width="3.99495" height="10.9811" transform="matrix(0.957432 -0.288659 0.288944 0.957346 169.987 81.7587)" fill="#B8E6E1"/>
<rect width="3.99495" height="8.78492" transform="matrix(0.957432 -0.288659 0.288945 0.957346 176.905 81.9653)" fill="#B8E6E1"/>
<rect width="3.99495" height="18.3685" transform="matrix(0.957432 -0.288659 0.288944 0.957346 180.42 70.8961)" fill="#2F9387"/>
<rect x="0.649262" y="0.280433" width="52.3101" height="47.1869" rx="4.5" transform="matrix(0.929592 -0.36859 0.368932 0.929457 22.9231 273.471)" fill="white" stroke="#131515"/>
<path d="M71.3658 278.589L56.3206 284.555L50.4667 269.807C50.4667 269.807 49.7257 267.926 51.8612 267.246C62.9805 263.707 70.6096 272.129 72.1935 276.119C72.6581 277.29 72.9281 277.97 71.3658 278.589Z" fill="#B8E6E1" stroke="#131515"/>
<path d="M74.0729 293.848L58.8204 287.312L74.2706 281.186C75.833 280.566 76.2152 280.686 76.7307 281.984C77.7063 284.442 76.9228 290.388 75.9325 292.375C74.9421 294.361 74.8701 294.001 74.0729 293.848Z" fill="#90DED5" stroke="#131515"/>
<path d="M47.9443 272.649L54.4639 289.074L68.469 295.167C69.1043 295.418 70.5599 295.822 69.6706 297.435C67.4514 301.461 54.0733 312.723 41.5179 298.725C33.9682 290.308 37.4177 277.119 46.3214 272.188C47.0022 271.811 47.772 272.215 47.9443 272.649Z" fill="#2F9387" stroke="#131515"/>
<rect x="0.32406" y="0.628354" width="44.9581" height="44.9377" rx="4.5" transform="matrix(0.95261 0.304193 -0.304491 0.952515 227.563 52.7623)" fill="white" stroke="#131515"/>
<line y1="-0.5" x2="45.9581" y2="-0.5" transform="matrix(0.95261 0.304193 -0.304491 0.952515 224.001 63.3322)" stroke="#131515"/>
<rect x="0.324059" y="0.628354" width="8.19162" height="8.18754" transform="matrix(0.95261 0.304193 -0.304492 0.952515 228.656 70.4706)" fill="white" stroke="#131515"/>
<rect x="0.324059" y="0.628354" width="8.19162" height="8.18754" transform="matrix(0.95261 0.304193 -0.304491 0.952515 225.019 81.8481)" fill="white" stroke="#131515"/>
<rect x="0.324059" y="0.628354" width="8.19162" height="8.18754" transform="matrix(0.95261 0.304193 -0.304491 0.952515 240.039 74.1068)" fill="white" stroke="#131515"/>
<rect x="0.324059" y="0.628354" width="8.19162" height="8.18754" transform="matrix(0.95261 0.304193 -0.304491 0.952515 236.403 85.4827)" fill="white" stroke="#131515"/>
<rect x="0.324059" y="0.628354" width="8.19162" height="8.18754" transform="matrix(0.95261 0.304193 -0.304491 0.952515 251.422 77.7415)" fill="white" stroke="#131515"/>
<rect x="0.324059" y="0.628354" width="8.19162" height="8.18754" transform="matrix(0.95261 0.304193 -0.304491 0.952515 247.786 89.1179)" fill="white" stroke="#131515"/>
<rect width="6.43413" height="6.43128" transform="matrix(0.95261 0.304193 -0.304491 0.952515 241.025 76.4844)" fill="#2F9387"/>
<line y1="-0.5" x2="6.43128" y2="-0.5" transform="matrix(-0.304492 0.952515 -0.952611 -0.304193 237.828 53.2795)" stroke="#131515"/>
<line y1="-0.5" x2="6.43128" y2="-0.5" transform="matrix(-0.304491 0.952515 -0.95261 -0.304193 262.346 61.1118)" stroke="#131515"/>
<path d="M19.6411 238.711V222.251H11.5563V238.711H19.6411Z" fill="white" stroke="#131515"/>
<path d="M51.2419 217.869L38.5966 207.323L33.5269 212.638L46.0623 224.073L51.2419 217.869Z" fill="white" stroke="#131515"/>
<path d="M47.0899 207.286L38.3064 218.259L26.5284 207.286L25.131 227.238H10.3588V187.733C8.49567 185.672 4.29033 180.591 2.37393 176.76C-0.0215663 171.972 -1.47832 161.502 2.37393 157.207C7.56431 151.421 20.806 138.719 29.1237 131.669H73.8312C73.8312 153.148 32.5172 155.611 32.5172 180.551C32.5172 183.049 41.7 199.97 47.0899 207.286Z" fill="#131515"/>
<path d="M12.3552 219.656V175.364C14.6136 158.522 21.997 151.44 31.7188 139.052" stroke="white"/>
<path d="M55.9724 212.876C52.3546 211.865 48.7317 214.033 48.7317 214.033L45.991 222.852C48.3439 227.667 61.9686 248.25 66.8701 243.79C74.8202 236.555 59.5902 213.887 55.9724 212.876Z" fill="white" stroke="#131515"/>
<path d="M51.7554 212.749C57.7028 215.391 69.9711 236.691 66.1135 243.983" stroke="#131515"/>
<path d="M53.9424 235.43C54.4618 235.124 56.9775 232.318 57.2398 231.161" stroke="#131515"/>
<path d="M51.2426 232.424C51.7619 232.117 55.0059 228.36 55.2682 227.203" stroke="#131515"/>
<path d="M25.9847 236.779C24.7371 233.238 21.243 232.888 21.243 232.888L10.8625 235.482C8.26762 240.171 0.801789 263.359 7.26925 264.811C17.7594 267.167 27.2324 240.321 25.9847 236.779Z" fill="white" stroke="#131515"/>
<path d="M23.4083 233.348C25.3048 241.778 12.4789 264.124 6.54004 264.523" stroke="#131515"/>
<path d="M6.2677 249.185C6.81667 249.434 10.5596 249.883 11.6576 249.434" stroke="#131515"/>
<path d="M7.61511 245.495C8.16408 245.744 13.1048 246.243 14.2027 245.794" stroke="#131515"/>
<path d="M42.4283 74.126C42.6146 75.9363 38.5285 79.1227 36.865 79.9873C39.3935 82.2485 42.4283 86.2299 50.4133 84.8998C54.2461 84.2614 58.2248 79.1227 59.0233 75.7975C54.0327 75.7975 48.5071 72.9547 50.4133 66.9084C50.4133 65.3257 42.4283 63.1783 42.4283 66.5736C42.1252 68.31 42.0817 70.7566 42.4283 74.126Z" fill="white" stroke="#131515"/>
<path d="M40.9186 61.7544C40.1201 63.151 39.5212 62.1534 39.5212 65.1462C39.5212 68.8719 53.5702 71.7682 55.9818 71.2354C62.9277 70.0784 54.4237 55.056 53.495 51.1451C52.1641 50.6795 48.7838 54.6516 45.9092 55.7689C42.316 57.1655 41.7171 60.3578 40.9186 61.7544Z" fill="white" stroke="#131515"/>
<path d="M85.6903 105.715C77.865 106.034 67.2583 96.2708 62.9331 91.3494L70.3192 85.5635L83.6941 94.7412V73.792H91.2798L93.0765 97.7339C93.0765 100.128 93.5156 105.395 85.6903 105.715Z" fill="white" stroke="#131515"/>
<rect width="8.58353" height="37.5667" rx="4.29177" transform="matrix(0.963392 -0.268096 0.268367 0.963317 78.7319 51.193)" fill="#2F9387"/>
<path d="M70.7967 59.8247L63.8098 46.2576L105.731 5.75576L130.285 51.6445L70.7967 59.8247Z" fill="white" stroke="#131515"/>
<rect width="18.4819" height="6.18764" rx="3.09382" transform="matrix(0.465452 0.885073 -0.885282 0.465056 66.2208 42.7898)" fill="#131515"/>
<rect width="57.3695" height="7.82384" rx="3.91192" transform="matrix(0.476431 0.879212 -0.879429 0.476031 110.464 -7.98532e-05)" fill="#2F9387"/>
<path d="M71.4646 47.3745L88.4327 31.8122" stroke="#131515"/>
<path d="M92.8258 28.0228L107.598 14.0566" stroke="#131515"/>
<path d="M131.229 21.7438C133.93 26.7545 133.39 32.5478 130.284 36.2863L118.558 14.5338C123.39 13.9977 128.528 16.7332 131.229 21.7438Z" fill="#131515"/>
<path d="M126.807 9.71656L132.396 3.33203" stroke="#131515"/>
<path d="M134.147 16.8482L148.32 5.67527" stroke="#131515"/>
<path d="M136.788 24.8808H145.572" stroke="#131515"/>
<path d="M49.559 82.9689C44.768 85.5227 39.3115 81.9048 37.1822 79.7766C33.9217 81.8383 27.0013 87.3183 25.4043 92.7452C23.8073 98.172 24.7389 100.061 25.4043 100.327H37.1822C37.1822 102.854 38.1803 108.228 38.1803 110.303C38.1803 119.407 30.8107 125.284 27.4006 133.047H73.3143C73.3143 129.589 72.9949 121.954 71.7173 119.081C70.4397 116.208 66.1278 101.258 64.1316 94.1418L75.1109 87.3582C74.4455 85.8951 72.1964 82.0112 68.5233 78.1805C64.8502 74.3498 58.4755 75.3872 55.7473 76.3848C55.6808 77.5154 54.3499 80.4151 49.559 82.9689Z" fill="white" stroke="#131515"/>
<path d="M88.085 74.3643C88.7079 72.7336 87.0923 72.0537 86.2833 71.3605C84.9594 70.7058 82.8265 70.7829 82.3852 72.2462C82.0946 73.2102 83.4704 74.912 84.9227 75.25C86.2465 75.5581 87.5702 75.7121 88.085 74.3643Z" fill="white" stroke="#131515"/>
<path d="M96.0125 63.7349C96.8578 65.8471 94.6653 66.7277 93.5674 67.6255C91.7706 68.4735 88.8759 68.3737 88.277 66.4783C87.8825 65.2298 89.7497 63.0255 91.7208 62.5877C93.5174 62.1887 95.3138 61.9892 96.0125 63.7349Z" fill="white" stroke="#131515"/>
<path d="M28.5968 116.987C26.8401 114.433 26.7243 105.671 27.2234 100.251H37.6799V114.692C42.3187 119.478 49.0247 125.793 56.4446 123.87C59.1396 123.172 59.3392 121.775 63.3317 122.074C66.5257 122.314 68.9212 125.267 68.9212 127.661C68.9212 130.055 61.4352 128.758 57.2431 128.758C52.2515 128.758 45.2656 128.758 41.4728 126.863C39.3283 125.791 30.7927 120.179 28.5968 116.987Z" fill="white" stroke="#131515"/>
<path d="M60.7403 70.0859C60.6348 73.7762 55.6853 75.226 53.2238 75.4895C48.3445 74.5669 40.4377 72.893 37.018 68.5239C35.8316 67.0081 32.9305 63.7133 32.3884 61.2555C31.4801 57.1378 33.3259 55.0806 36.4908 53.2354C39.6556 51.3903 39.5105 50.5994 41.9633 49.8086C44.0733 49.1283 45.1284 50.2694 48.1612 48.5561C51.194 46.8427 53.5471 47.1306 55.2016 48.5561C57.5447 50.5749 57.839 53.743 55.2016 54.9292C52.5643 56.1154 49.6633 54.9292 45.7073 56.1154C41.7512 57.3016 43.8087 60.2122 44.3886 61.2555C45.7073 63.6278 49.9271 66.0002 53.2238 66.2638C56.5205 66.5274 60.8722 65.473 60.7403 70.0859Z" fill="#131515"/>
<path d="M40.5651 63.0154C42.464 63.2263 43.4662 64.9484 43.73 65.7831C42.675 66.6178 40.1959 68.0237 38.719 66.9693C36.8728 65.6513 38.1915 62.7518 40.5651 63.0154Z" fill="white"/>
</svg>
