<svg width="288" height="298" viewBox="0 0 288 298" fill="none" xmlns="http://www.w3.org/2000/svg">
<rect width="288" height="298" fill="white"/>
<path d="M99.981 243.342H166.475C169.513 243.342 171.975 245.804 171.975 248.842V250.291H94.481V248.842C94.481 245.804 96.9435 243.342 99.981 243.342Z" fill="white" stroke="#131515"/>
<path d="M156.129 225.457L158.009 243.335H108.448L110.33 225.457H156.129Z" fill="white" stroke="#131515"/>
<path d="M109.879 221.975H156.578V224.956H109.879V221.975Z" fill="#131515"/>
<rect x="41.5" y="103.5" width="183.969" height="119.834" rx="6.5" fill="#90DED5" stroke="#131515"/>
<rect x="46.1481" y="109.077" width="174.675" height="108.68" rx="4.5" fill="white" stroke="#131515"/>
<circle cx="53.5493" cy="116.478" r="1.82374" fill="#90DED5" stroke="#131515"/>
<circle cx="63.7725" cy="116.478" r="1.82374" fill="#90DED5" stroke="#131515"/>
<line x1="45.6481" y1="125.738" x2="221.323" y2="125.738" stroke="#131515"/>
<path d="M61.7347 136.694H208.175" stroke="#131515"/>
<path d="M61.7347 141.878H208.175" stroke="#131515"/>
<path d="M61.7347 147.062H208.175" stroke="#131515"/>
<path d="M61.7347 163.909H208.175" stroke="#131515"/>
<path d="M61.7347 169.093H208.175" stroke="#131515"/>
<path d="M61.7347 174.276H208.175" stroke="#131515"/>
<path d="M61.7347 191.123H208.175" stroke="#131515"/>
<path d="M61.7347 196.307H208.175" stroke="#131515"/>
<path d="M61.7347 201.491H208.175" stroke="#131515"/>
<path d="M68.459 183.309C68.9102 180.942 66.4906 179.059 64.3075 180.078L36.2135 193.194C34.213 194.128 33.9063 196.846 35.6484 198.201L40.37 201.874L40.761 202.178L40.4599 202.572L22.1292 226.593C21.14 227.89 21.3889 229.744 22.6854 230.733L29.6652 236.059C30.9622 237.049 32.8162 236.8 33.8059 235.503L52.0376 211.613L52.3429 211.212L52.7412 211.521C53.3725 212.011 53.9059 212.423 54.2951 212.723C54.4899 212.873 54.6485 212.995 54.7647 213.083C54.8225 213.127 54.8693 213.162 54.9045 213.188C54.9222 213.201 54.9368 213.212 54.9475 213.22C54.9581 213.227 54.9626 213.231 54.9632 213.231L54.9778 213.241L54.9905 213.251L57.9372 215.542C59.6798 216.898 62.2393 215.932 62.6528 213.764L68.459 183.309Z" fill="#2F9387" stroke="#131515"/>
<rect x="0.595665" y="25.287" width="82.6492" height="82.6492" rx="4.5" transform="rotate(-12.3942 0.595665 25.287)" fill="white" stroke="#131515"/>
<line x1="4.20274" y1="44.0262" x2="85.9025" y2="26.072" stroke="#131515"/>
<rect x="18.4968" y="52.1855" width="15.7298" height="15.7298" transform="rotate(-12.3942 18.4968 52.1855)" fill="white" stroke="#131515"/>
<rect x="23.1648" y="73.4278" width="15.7298" height="15.7298" transform="rotate(-12.3942 23.1648 73.4278)" fill="white" stroke="#131515"/>
<rect x="39.7375" y="47.5162" width="15.7298" height="15.7298" transform="rotate(-12.3942 39.7375 47.5162)" fill="white" stroke="#131515"/>
<rect x="44.4067" y="68.7585" width="15.7298" height="15.7298" transform="rotate(-12.3942 44.4067 68.7585)" fill="white" stroke="#131515"/>
<rect x="60.9797" y="42.8484" width="15.7298" height="15.7298" transform="rotate(-12.3942 60.9797 42.8484)" fill="white" stroke="#131515"/>
<rect x="65.6494" y="64.0907" width="15.7298" height="15.7298" transform="rotate(-12.3942 65.6494 64.0907)" fill="white" stroke="#131515"/>
<rect x="43.1284" y="49.6854" width="11.7109" height="11.7109" transform="rotate(-12.3942 43.1284 49.6854)" fill="#2F9387"/>
<line x1="17.3848" y1="15.9469" x2="19.8984" y2="27.3848" stroke="#131515"/>
<line x1="63.1368" y1="5.89268" x2="65.6504" y2="17.3306" stroke="#131515"/>
<path d="M57.7139 245.5C68.8778 245.5 77.9285 254.55 77.9287 265.714C77.9287 276.878 68.8779 285.929 57.7139 285.929C46.55 285.929 37.5 276.878 37.5 265.714C37.5002 254.55 46.5501 245.5 57.7139 245.5Z" fill="#B8E6E1" stroke="#131515"/>
<path d="M56.1946 276.911V266.194L64.1924 259.636" stroke="#131515"/>
<circle cx="58.594" cy="249.399" r="1.27965" fill="#131515"/>
<circle cx="67.7114" cy="251.958" r="1.27965" fill="#131515"/>
<circle cx="73.1502" cy="258.676" r="1.27965" fill="#131515"/>
<circle cx="74.4296" cy="267.794" r="1.27965" fill="#131515"/>
<circle cx="70.5906" cy="276.111" r="1.27965" fill="#131515"/>
<circle cx="63.8725" cy="280.75" r="1.27965" fill="#131515"/>
<circle cx="54.915" cy="282.03" r="1.27965" fill="#131515"/>
<circle cx="47.0774" cy="278.191" r="1.27965" fill="#131515"/>
<circle cx="42.2787" cy="271.993" r="1.27965" fill="#131515"/>
<circle cx="40.9989" cy="263.875" r="1.27965" fill="#131515"/>
<circle cx="43.558" cy="256.117" r="1.27965" fill="#131515"/>
<circle cx="50.4363" cy="250.678" r="1.27965" fill="#131515"/>
<path d="M220.724 48.5067C215.368 45.8815 207.518 44.5164 202.687 48.5066C186.043 62.2562 224.969 78.2234 202.687 130.831C214.343 132.372 262.369 133.1 268.921 130.831C277.112 127.996 274.697 116.341 274.697 112.455C274.697 108.57 275.642 108.36 282.257 103.635C288.873 98.9096 287.297 88.094 284.567 83.8938C281.837 79.6935 264.511 80.5336 259.261 78.2234C254.01 75.9133 258.946 62.9976 250.965 58.1673C242.985 53.337 236.684 57.1172 230.384 56.5922C224.084 56.0671 226.079 51.1318 220.724 48.5067Z" fill="#131515"/>
<path d="M179.548 160.741C181.869 132.924 236.668 135.959 236.668 160.741C236.668 190.423 177.445 185.942 179.548 160.741Z" fill="#131515"/>
<path d="M190.028 282.809L190.848 269.104L183.086 269.473L181.378 282.169L190.028 282.809Z" fill="white" stroke="#131515"/>
<path d="M237.118 282.123L235.114 269.723L226.958 271.041L228.597 283.746L237.118 282.123Z" fill="white" stroke="#131515"/>
<path d="M163.998 287.358C166.014 287.358 176.529 280.807 180.87 277.237C181.29 278.357 182.439 281.595 185.017 281.595C187.423 281.595 190.18 279.867 192.14 278.537C193.61 282.317 196.424 290.298 195.92 291.978C195.29 294.078 188.15 295.548 173.449 295.128C158.748 294.708 161.478 287.358 163.998 287.358Z" fill="white" stroke="#131515"/>
<path d="M230.794 280.095C235.83 279.888 239.779 282.596 240.737 285.47C241.157 286.73 241.745 288.99 240.737 291.174C239.051 294.827 228.747 295.742 224.356 293.031C220.038 290.364 223.129 280.411 230.794 280.095Z" fill="white" stroke="#131515"/>
<path d="M163.851 287.445C168.471 294.375 193.83 291.068 195.09 287.917" stroke="#131515"/>
<path d="M241.083 287.288C238.72 292.696 224.534 292.276 222.182 288.916" stroke="#131515"/>
<path d="M236.723 274.317H226.642L209.001 201.653L190.94 271.797L181.912 272.063C181.912 256.242 182.959 223.578 182.959 220.554C182.959 217.53 184.359 175.331 185.06 154.61H224.542C226.502 165.811 230.59 189.892 231.262 196.612C231.934 203.333 235.182 251.216 236.723 274.317Z" fill="#2F9387" stroke="#131515"/>
<path d="M187.783 131.376C187.783 133.393 182.883 151.258 180.432 159.938C180.432 159.938 194.069 165.628 208.469 159.938C222.869 154.248 235.467 159.139 235.467 159.139L228.105 125.076L241.546 134.947C244.346 131.656 250.156 123.312 250.996 116.256C251.837 109.199 249.767 99.4225 246.586 95.2542C240.496 87.2738 221.175 78.4532 217.815 78.4532C213.614 78.4532 197.443 79.5034 193.033 81.6035C188.623 83.7037 180.432 94.4143 178.542 98.4045C176.652 102.395 171.402 106.595 169.512 108.275C167.622 109.955 163.211 114.575 162.371 117.936C161.531 121.296 165.942 125.076 173.502 125.076C179.55 125.076 185.543 119.196 187.783 116.256V131.376Z" fill="white" stroke="#131515"/>
<path d="M236.596 115.757C237.436 116.933 230.785 123.107 227.355 126.047C226.375 120.517 224.751 109.12 226.095 107.776C227.775 106.096 235.546 114.286 236.596 115.757Z" fill="#131515"/>
<path d="M212.266 78.0341C212.602 80.2182 219.196 78.0341 219.196 81.6043C219.196 85.1745 213.115 88.9547 207.645 88.9547C200.505 88.9547 194.414 85.9953 194.414 83.2844C194.414 79.7142 202.227 81.2263 203.235 79.7142C204.243 78.2021 203.655 72.2237 203.235 69.4236L210.375 67.9535C210.865 70.4036 211.929 75.85 212.266 78.0341Z" fill="white" stroke="#131515"/>
<path d="M205.609 56.801C200.905 58.8171 200.041 68.4042 204.191 71.8694C208.341 75.3346 216.216 68.4042 216.216 68.4042C218.001 68.4042 220.311 68.2992 220.311 65.8316C220.311 63.1014 217.756 63.6596 218.001 62.3664C219.418 54.911 211.489 54.2809 205.609 56.801Z" fill="white" stroke="#131515"/>
<path d="M135.504 121.008C135.084 122.268 140.124 123.948 145.375 125.419C150.208 126.772 168.315 128.528 170.366 121.008C170.996 118.698 166.796 116.388 164.696 116.388C162.596 116.388 160.076 119.328 151.885 119.328C145.333 119.328 147.895 116.388 145.375 114.078C142.935 111.841 134.731 111.637 134.034 114.078C133.614 115.548 137.184 116.178 139.494 116.388C141.804 116.598 142.854 119.328 141.594 119.328C140.334 119.328 135.924 119.748 135.504 121.008Z" fill="white" stroke="#131515"/>
<path d="M230.116 131.928C231.628 131.592 231.732 130.762 233.132 128.942L239.118 133.037C238.278 134.192 236.616 135.822 235.337 136.759C233.762 137.914 230.746 138.497 227.386 138.497C224.697 138.497 219.195 138.497 219.195 136.759C219.335 135.779 219.993 133.441 221.505 131.928C223.395 130.038 228.226 132.349 230.116 131.928Z" fill="white" stroke="#131515"/>
<path d="M209.712 200.302C208.872 201.31 197.322 248.272 191.231 271.024" stroke="white"/>
</svg>
