<svg width="299" height="299" viewBox="0 0 299 299" fill="none" xmlns="http://www.w3.org/2000/svg">
<path d="M298.667 0H0V298.667H298.667V0Z" fill="white"/>
<path d="M103.684 243.886H172.641C175.791 243.886 178.345 246.354 178.345 249.399V250.851H97.9803V249.399C97.9803 246.354 100.534 243.886 103.684 243.886Z" fill="white" stroke="#131515"/>
<path d="M161.912 225.961L163.861 243.879H112.465L114.416 225.961H161.912Z" fill="white" stroke="#131515"/>
<path d="M113.949 222.472H162.377V225.459H113.949V222.472Z" fill="#131515"/>
<path d="M227.079 103.732H49.7777C46.0549 103.732 43.037 106.648 43.037 110.246V217.319C43.037 220.917 46.0549 223.834 49.7777 223.834H227.079C230.802 223.834 233.82 220.917 233.82 217.319V110.246C233.82 106.648 230.802 103.732 227.079 103.732Z" fill="#90DED5" stroke="#131515"/>
<path d="M224.335 109.321H52.524C49.9466 109.321 47.8573 111.34 47.8573 113.831V213.734C47.8573 216.225 49.9466 218.244 52.524 218.244H224.335C226.912 218.244 229.002 216.225 229.002 213.734V113.831C229.002 111.34 226.912 109.321 224.335 109.321Z" fill="white" stroke="#131515"/>
<path d="M55.5326 118.566C56.5772 118.566 57.4239 117.748 57.4239 116.739C57.4239 115.729 56.5772 114.911 55.5326 114.911C54.4881 114.911 53.6414 115.729 53.6414 116.739C53.6414 117.748 54.4881 118.566 55.5326 118.566Z" fill="#90DED5" stroke="#131515"/>
<path d="M66.1344 118.566C67.179 118.566 68.0257 117.748 68.0257 116.739C68.0257 115.729 67.179 114.911 66.1344 114.911C65.0899 114.911 64.2432 115.729 64.2432 116.739C64.2432 117.748 65.0899 118.566 66.1344 118.566Z" fill="#90DED5" stroke="#131515"/>
<path d="M47.3387 126.019H229.52" stroke="#131515"/>
<path d="M64.0211 137H215.885" stroke="#131515"/>
<path d="M64.0211 142.195H215.885" stroke="#131515"/>
<path d="M64.0211 147.391H215.885" stroke="#131515"/>
<path d="M64.0211 164.276H215.885" stroke="#131515"/>
<path d="M64.0211 169.471H215.885" stroke="#131515"/>
<path d="M64.0211 174.666H215.885" stroke="#131515"/>
<path d="M64.0211 191.551H215.885" stroke="#131515"/>
<path d="M64.0211 196.746H215.885" stroke="#131515"/>
<path d="M64.0211 201.942H215.885" stroke="#131515"/>
<path d="M70.9946 183.719C71.4625 181.347 68.9533 179.46 66.6893 180.481L37.5548 193.626C35.4802 194.562 35.1621 197.286 36.9688 198.644L41.8652 202.326L42.2707 202.63L41.9585 203.025L22.9488 227.1C21.923 228.4 22.1811 230.258 23.5256 231.249L30.764 236.587C32.109 237.579 34.0317 237.33 35.058 236.03L53.965 212.086L54.2816 211.685L54.6946 211.994C55.3493 212.485 55.9025 212.898 56.3061 213.199C56.5081 213.349 56.6726 213.472 56.7931 213.56C56.853 213.604 56.9015 213.639 56.938 213.665C56.9564 213.678 56.9715 213.689 56.9826 213.697C56.9936 213.704 56.9989 213.708 56.9989 213.708L57.0141 213.718L57.0272 213.728L60.0831 216.024C61.8902 217.383 64.5445 216.415 64.9733 214.242L70.9946 183.719Z" fill="#2F9387" stroke="#131515"/>
<path d="M79.7725 8.53237L5.17558 24.3755C2.65832 24.9102 1.06612 27.3157 1.61931 29.7485L18.0126 101.842C18.5658 104.275 21.0549 105.814 23.5721 105.279L98.169 89.4359C100.686 88.9013 102.279 86.4958 101.725 84.063L85.332 11.9693C84.7788 9.53651 82.2898 7.99775 79.7725 8.53237Z" fill="white" stroke="#131515"/>
<path d="M4.3584 44.1247L89.0841 26.1303" stroke="#131515"/>
<path d="M35.1141 48.9185L19.1819 52.3022L22.6831 67.6998L38.6153 64.3161L35.1141 48.9185Z" fill="white" stroke="#131515"/>
<path d="M39.9549 70.2083L24.0227 73.5921L27.5239 88.9896L43.4561 85.6059L39.9549 70.2083Z" fill="white" stroke="#131515"/>
<path d="M57.1414 44.2388L41.2092 47.6225L44.7105 63.0201L60.6427 59.6363L57.1414 44.2388Z" fill="white" stroke="#131515"/>
<path d="M61.9836 65.5286L46.0514 68.9123L49.5526 84.3099L65.4848 80.9262L61.9836 65.5286Z" fill="white" stroke="#131515"/>
<path d="M79.1704 39.5605L63.2382 42.9443L66.7394 58.3418L82.6716 54.9581L79.1704 39.5605Z" fill="white" stroke="#131515"/>
<path d="M84.013 60.8503L68.0808 64.2341L71.582 79.6316L87.5143 76.2479L84.013 60.8503Z" fill="white" stroke="#131515"/>
<path d="M56.5873 47.2774L44.7257 49.7966L47.3324 61.2601L59.194 58.7409L56.5873 47.2774Z" fill="#2F9387"/>
<path d="M18.0287 15.9826L20.6354 27.4461" stroke="#131515"/>
<path d="M65.4752 5.90585L68.0819 17.3694" stroke="#131515"/>
<path d="M59.8515 246.049C71.4289 246.049 80.8148 255.119 80.815 266.308C80.815 277.497 71.429 286.569 59.8515 286.569C48.2741 286.569 38.8889 277.497 38.8889 266.308C38.8891 255.119 48.2742 246.049 59.8515 246.049Z" fill="#B8E6E1" stroke="#131515"/>
<path d="M58.2759 277.531V266.79L66.5699 260.217" stroke="#131515"/>
<path d="M60.7642 251.239C61.4971 251.239 62.0912 250.665 62.0912 249.957C62.0912 249.249 61.4971 248.674 60.7642 248.674C60.0313 248.674 59.4371 249.249 59.4371 249.957C59.4371 250.665 60.0313 251.239 60.7642 251.239Z" fill="#131515"/>
<path d="M70.2193 253.804C70.9522 253.804 71.5463 253.23 71.5463 252.522C71.5463 251.813 70.9522 251.239 70.2193 251.239C69.4864 251.239 68.8922 251.813 68.8922 252.522C68.8922 253.23 69.4864 253.804 70.2193 253.804Z" fill="#131515"/>
<path d="M75.8595 260.537C76.5924 260.537 77.1866 259.963 77.1866 259.255C77.1866 258.546 76.5924 257.972 75.8595 257.972C75.1266 257.972 74.5325 258.546 74.5325 259.255C74.5325 259.963 75.1266 260.537 75.8595 260.537Z" fill="#131515"/>
<path d="M77.1863 269.676C77.9192 269.676 78.5133 269.101 78.5133 268.393C78.5133 267.685 77.9192 267.111 77.1863 267.111C76.4534 267.111 75.8593 267.685 75.8593 268.393C75.8593 269.101 76.4534 269.676 77.1863 269.676Z" fill="#131515"/>
<path d="M73.2051 278.011C73.938 278.011 74.5321 277.437 74.5321 276.729C74.5321 276.02 73.938 275.446 73.2051 275.446C72.4722 275.446 71.8781 276.02 71.8781 276.729C71.8781 277.437 72.4722 278.011 73.2051 278.011Z" fill="#131515"/>
<path d="M66.2382 282.661C66.9711 282.661 67.5652 282.086 67.5652 281.378C67.5652 280.67 66.9711 280.096 66.2382 280.096C65.5053 280.096 64.9111 280.67 64.9111 281.378C64.9111 282.086 65.5053 282.661 66.2382 282.661Z" fill="#131515"/>
<path d="M56.9489 283.943C57.6818 283.943 58.2759 283.369 58.2759 282.661C58.2759 281.953 57.6818 281.378 56.9489 281.378C56.216 281.378 55.6218 281.953 55.6218 282.661C55.6218 283.369 56.216 283.943 56.9489 283.943Z" fill="#131515"/>
<path d="M48.8211 280.096C49.554 280.096 50.1481 279.522 50.1481 278.813C50.1481 278.105 49.554 277.531 48.8211 277.531C48.0882 277.531 47.494 278.105 47.494 278.813C47.494 279.522 48.0882 280.096 48.8211 280.096Z" fill="#131515"/>
<path d="M43.8446 273.884C44.5775 273.884 45.1717 273.31 45.1717 272.601C45.1717 271.893 44.5775 271.319 43.8446 271.319C43.1117 271.319 42.5176 271.893 42.5176 272.601C42.5176 273.31 43.1117 273.884 43.8446 273.884Z" fill="#131515"/>
<path d="M42.5174 265.748C43.2503 265.748 43.8444 265.174 43.8444 264.465C43.8444 263.757 43.2503 263.183 42.5174 263.183C41.7844 263.183 41.1903 263.757 41.1903 264.465C41.1903 265.174 41.7844 265.748 42.5174 265.748Z" fill="#131515"/>
<path d="M45.1713 257.972C45.9042 257.972 46.4983 257.398 46.4983 256.69C46.4983 255.982 45.9042 255.407 45.1713 255.407C44.4384 255.407 43.8442 255.982 43.8442 256.69C43.8442 257.398 44.4384 257.972 45.1713 257.972Z" fill="#131515"/>
<path d="M52.3043 252.521C53.0372 252.521 53.6314 251.947 53.6314 251.239C53.6314 250.53 53.0372 249.956 52.3043 249.956C51.5714 249.956 50.9773 250.53 50.9773 251.239C50.9773 251.947 51.5714 252.521 52.3043 252.521Z" fill="#131515"/>
<path d="M228.899 48.6152C223.345 45.9841 215.204 44.616 210.194 48.6151C192.933 62.3955 233.301 78.3984 210.194 131.124C222.282 132.668 272.086 133.398 278.881 131.124C287.375 128.282 284.871 116.601 284.871 112.707C284.871 108.813 285.851 108.602 292.711 103.867C299.572 99.1309 297.938 88.2911 295.107 84.0815C292.275 79.8718 274.308 80.7138 268.863 78.3984C263.418 76.0831 268.537 63.1385 260.26 58.2974C251.984 53.4563 245.45 57.245 238.917 56.7188C232.383 56.1925 234.452 51.2462 228.899 48.6152Z" fill="#131515"/>
<path d="M186.198 161.101C188.605 133.221 245.434 136.263 245.434 161.101C245.434 190.849 184.017 186.358 186.198 161.101Z" fill="#131515"/>
<path d="M197.066 283.442L197.916 269.706L189.867 270.076L188.096 282.8L197.066 283.442Z" fill="white" stroke="#131515"/>
<path d="M245.9 282.754L243.822 270.326L235.364 271.647L237.064 284.381L245.9 282.754Z" fill="white" stroke="#131515"/>
<path d="M170.072 288.001C172.163 288.001 183.067 281.435 187.569 277.857C188.004 278.98 189.196 282.225 191.869 282.225C194.365 282.225 197.224 280.493 199.256 279.16C200.781 282.949 203.699 290.947 203.176 292.631C202.523 294.736 195.119 296.209 179.873 295.788C164.628 295.367 167.459 288.001 170.072 288.001Z" fill="white" stroke="#131515"/>
<path d="M239.342 280.722C244.564 280.514 248.66 283.228 249.653 286.109C250.089 287.371 250.699 289.637 249.653 291.825C247.905 295.487 237.219 296.404 232.665 293.687C228.188 291.014 231.393 281.038 239.342 280.722Z" fill="white" stroke="#131515"/>
<path d="M169.92 288.088C174.711 295.034 201.009 291.719 202.316 288.561" stroke="#131515"/>
<path d="M250.012 287.931C247.562 293.351 232.85 292.93 230.411 289.562" stroke="#131515"/>
<path d="M245.491 274.931H235.036L216.742 202.104L198.012 272.405L188.65 272.672C188.65 256.815 189.735 224.078 189.735 221.047C189.735 218.017 191.187 175.723 191.914 154.956H232.858C234.891 166.182 239.13 190.317 239.827 197.052C240.524 203.788 243.893 251.778 245.491 274.931Z" fill="#2F9387" stroke="#131515"/>
<path d="M194.738 131.67C194.738 133.691 189.656 151.596 187.115 160.296C187.115 160.296 201.257 165.999 216.19 160.296C231.123 154.593 244.188 159.495 244.188 159.495L236.553 125.356L250.492 135.249C253.396 131.951 259.421 123.588 260.292 116.516C261.164 109.443 259.018 99.6449 255.719 95.4673C249.403 87.4691 229.367 78.6287 225.882 78.6287C221.526 78.6287 204.756 79.6813 200.182 81.7861C195.609 83.891 187.115 94.6255 185.155 98.6247C183.195 102.624 177.75 106.833 175.79 108.517C173.83 110.201 169.256 114.831 168.385 118.2C167.514 121.567 172.088 125.356 179.928 125.356C186.2 125.356 192.415 119.463 194.738 116.516V131.67Z" fill="white" stroke="#131515"/>
<path d="M245.359 116.016C246.23 117.195 239.333 123.382 235.776 126.329C234.759 120.787 233.075 109.364 234.469 108.017C236.211 106.333 244.27 114.542 245.359 116.016Z" fill="#131515"/>
<path d="M220.128 78.2087C220.476 80.3977 227.314 78.2087 227.314 81.7869C227.314 85.3651 221.008 89.1537 215.336 89.1537C207.931 89.1537 201.615 86.1877 201.615 83.4707C201.615 79.8925 209.717 81.408 210.762 79.8925C211.808 78.3771 211.198 72.3853 210.762 69.5789L218.167 68.1055C218.675 70.5611 219.778 76.0197 220.128 78.2087Z" fill="white" stroke="#131515"/>
<path d="M213.224 56.9281C208.346 58.9487 207.45 68.5572 211.754 72.0302C216.057 75.5031 224.224 68.5572 224.224 68.5572C226.075 68.5572 228.471 68.452 228.471 65.9789C228.471 63.2426 225.821 63.802 226.075 62.5059C227.545 55.0339 219.322 54.4023 213.224 56.9281Z" fill="white" stroke="#131515"/>
<path d="M140.523 121.279C140.087 122.542 145.314 124.225 150.759 125.7C155.771 127.056 174.549 128.816 176.676 121.279C177.329 118.964 172.974 116.648 170.796 116.648C168.618 116.648 166.005 119.595 157.51 119.595C150.716 119.595 153.373 116.648 150.759 114.333C148.229 112.091 139.721 111.887 138.998 114.333C138.563 115.807 142.265 116.438 144.66 116.648C147.056 116.859 148.145 119.595 146.838 119.595C145.532 119.595 140.958 120.016 140.523 121.279Z" fill="white" stroke="#131515"/>
<path d="M238.639 132.223C240.207 131.886 240.315 131.055 241.767 129.23L247.974 133.335C247.103 134.492 245.38 136.126 244.053 137.065C242.42 138.223 239.292 138.807 235.808 138.807C233.019 138.807 227.313 138.807 227.313 137.065C227.459 136.083 228.141 133.74 229.709 132.223C231.669 130.329 236.679 132.645 238.639 132.223Z" fill="white" stroke="#131515"/>
<path d="M217.479 200.75C216.608 201.76 204.63 248.827 198.314 271.63" stroke="white"/>
</svg>
