<svg width="288" height="299" viewBox="0 0 288 299" fill="none" xmlns="http://www.w3.org/2000/svg">
<rect width="288" height="298" fill="white"/>
<rect x="0.406699" y="0.589059" width="70.8478" height="68.3682" rx="4.5" transform="matrix(0.981332 0.19232 -0.167935 0.985798 216.756 29.9301)" fill="white" stroke="#131515"/>
<path d="M267.973 73.5599L246.568 69.365L250.404 46.8476C250.404 46.8476 250.9 43.9794 253.819 44.7793C269.019 48.9444 271.716 65.0773 270.678 71.1699C270.373 72.957 270.196 73.9956 267.973 73.5599Z" fill="#B8E6E1" stroke="#131515"/>
<path d="M260.187 94.2979L247.455 74.6475L269.437 78.9554C271.66 79.391 272.01 79.8288 271.673 81.8117C271.033 85.5646 265.903 92.2412 263.357 93.9155C260.812 95.5899 260.987 95.0935 260.187 94.2979Z" fill="#90DED5" stroke="#131515"/>
<path d="M245.504 48.3988L241.232 73.477L252.857 91.6325C253.403 92.424 254.775 94.0309 252.611 95.3256C247.212 98.5562 223.932 102.115 219.593 75.3952C216.984 59.3282 230.316 45.8261 243.982 46.5949C245.027 46.6537 245.617 47.736 245.504 48.3988Z" fill="#2F9387" stroke="#131515"/>
<path d="M125.796 254.472H187.571C190.608 254.472 193.071 256.934 193.071 259.972V261.484H120.296V259.972C120.296 256.934 122.759 254.472 125.796 254.472Z" fill="white" stroke="#131515"/>
<path d="M178.176 236.443L179.945 254.474H133.422L135.191 236.443H178.176Z" fill="white" stroke="#131515"/>
<path d="M134.737 232.937H178.628V235.941H134.737V232.937Z" fill="#131515"/>
<rect x="70.5" y="113.5" width="172.848" height="120.811" rx="6.5" fill="#90DED5" stroke="#131515"/>
<rect x="74.8674" y="119.121" width="164.112" height="109.567" rx="4.5" fill="white" stroke="#131515"/>
<line x1="74.3674" y1="135.926" x2="239.479" y2="135.926" stroke="#131515"/>
<path d="M166.986 150.945C168.006 150.625 168.936 151.679 168.582 152.754L164.676 164.59C164.35 165.576 163.169 165.844 162.499 165.085L155.171 156.779C154.501 156.019 154.817 154.769 155.752 154.475L166.986 150.945Z" fill="#2F9387"/>
<rect x="0.679925" y="-0.0566591" width="34.9474" height="3.76904" rx="1.88452" transform="matrix(0.619213 -0.785223 0.740637 0.671905 181.14 207.066)" fill="#2F9387" stroke="#131515"/>
<path d="M217.321 164.132C224.142 170.32 225.001 181.275 219.223 188.602C213.445 195.929 203.23 196.839 196.409 190.651C189.588 184.463 188.729 173.507 194.507 166.18C200.286 158.853 210.5 157.944 217.321 164.132Z" fill="#2F9387" stroke="#131515"/>
<path d="M214.881 167.223C220.109 171.966 220.77 180.365 216.339 185.984C211.908 191.603 204.076 192.299 198.848 187.556C193.62 182.812 192.96 174.413 197.391 168.795C201.822 163.176 209.653 162.481 214.881 167.223Z" fill="white" stroke="#131515"/>
<circle cx="81.7934" cy="126.428" r="1.68402" fill="#90DED5" stroke="#131515"/>
<circle cx="91.4028" cy="126.428" r="1.68402" fill="#90DED5" stroke="#131515"/>
<path d="M157.039 156.954L162.69 161.383C159.393 164.764 152.387 171.78 150.736 172.806C148.671 174.088 145.845 173.039 143.998 172.806C142.52 172.62 140.774 173.272 140.086 173.622C130.813 183.84 111.875 204.533 110.31 205.559C108.354 206.841 107.593 206.258 105.746 205.559C104.268 204.999 104.043 201.596 104.116 199.964C114.331 189.357 135.065 167.887 136.282 166.862C137.5 165.836 138.673 165.579 139.108 165.579C141.39 165.502 146.128 165.393 146.824 165.579C147.519 165.766 148.852 165.113 149.432 164.764L157.039 156.954Z" fill="#2F9387"/>
<path d="M94.3594 148.772C100.105 148.772 104.821 153.779 104.821 160.03C104.821 164.404 102.176 168.862 99.4502 172.278C98.096 173.975 96.7398 175.392 95.7227 176.385C95.2146 176.881 94.7922 177.27 94.4971 177.535C94.4479 177.579 94.4012 177.619 94.3594 177.656C94.3176 177.619 94.2717 177.579 94.2227 177.535C93.9275 177.27 93.5044 176.881 92.9961 176.385C91.979 175.392 90.6236 173.975 89.2695 172.278C86.5434 168.862 83.8975 164.404 83.8975 160.03C83.8975 153.779 88.6138 148.773 94.3594 148.772Z" fill="#90DED5" stroke="#131515"/>
<circle cx="94.3603" cy="158.37" r="4.87204" fill="#131515"/>
<path d="M45.7465 77.7657C45.7465 77.7657 48.0545 88.0582 44.4104 93.1393C40.7664 98.2204 58.3792 101.207 59.8368 98.6113C61.2945 96.0154 53.3261 81.6742 58.3792 81.6742C64.6956 81.6742 64.6958 77.2445 63.7241 72.2937C62.7523 67.3428 59.8368 60.0469 52.0628 60.0469C47.663 60.0469 43.257 62.4448 42.1024 67.3428C41.1089 71.5574 43.3171 75.5074 45.7465 77.7657Z" fill="white" stroke="#131515"/>
<path d="M64.3329 77.3757C64.2357 81.0237 59.6765 82.4568 57.4091 82.7174C52.9146 81.8053 44.3306 78.7432 42.2253 74.5094C41.2536 72.5551 38.1205 70.4174 36.647 67.2566C35.7561 65.3454 36.6783 58.0181 39.5935 56.1941C42.5088 54.3701 45.0676 55.0628 47.327 54.2812C50.4853 53.1888 54.8428 47.1463 60.4457 52.327C63.9683 55.5841 61.6604 61.2203 59.231 62.3929C56.8016 63.5654 54.1294 62.3929 50.4853 63.5654C46.8413 64.738 48.7365 67.6152 49.2706 68.6466C50.4853 70.9917 54.3724 73.3368 57.4091 73.5974C60.4458 73.858 64.4543 72.8157 64.3329 77.3757Z" fill="#131515"/>
<path d="M45.747 69.7901C47.4961 69.9985 48.4193 71.7009 48.6622 72.5261C47.6905 73.3512 45.4069 74.7409 44.0464 73.6986C42.3458 72.3958 43.5605 69.5295 45.747 69.7901Z" fill="white"/>
<path d="M99.7918 121.752H86.5332V108.48C88.522 108.559 92.8089 108.669 94.0464 108.48C95.2839 108.29 96.1825 105.398 96.4771 103.976C96.0352 99.789 95.1513 90.9879 95.1513 89.2814C95.1513 87.1482 90.7318 81.2229 91.1737 79.5638C91.6157 77.9047 94.0464 78.6157 95.1513 79.5638C96.2562 80.5118 96.4771 82.645 99.7918 82.645C103.106 82.645 102.444 74.5865 104.874 74.8235C107.305 75.0605 108.41 80.2748 107.968 82.645C107.614 84.5411 105.758 87.0692 104.874 88.0963V115.353C104.874 118.007 103.327 121.752 99.7918 121.752Z" fill="white" stroke="#131515"/>
<rect width="9.55327" height="44.4149" rx="4.77663" transform="matrix(0.958184 -0.286154 0.251266 0.967918 88.9119 60.8135)" fill="#2F9387"/>
<path d="M80.1275 71.0687L72.3933 54.9518L118.798 6.83789L145.978 61.3512L80.1275 71.0687Z" fill="white" stroke="#131515"/>
<rect width="21.6399" height="6.9609" rx="3.48045" transform="matrix(0.440044 0.897976 -0.871109 0.491089 75.0635 50.8301)" fill="#131515"/>
<rect width="67.1253" height="8.80824" rx="4.40412" transform="matrix(0.45074 0.892655 -0.864695 0.502298 124.038 0)" fill="#2F9387"/>
<path d="M80.8699 56.281L99.6529 37.7939" stroke="#131515"/>
<path d="M104.512 33.2902L120.865 16.6992" stroke="#131515"/>
<path d="M147.026 25.8314C150.016 31.7838 149.418 38.666 145.979 43.1071L132.999 17.2663C138.348 16.6294 144.036 19.8791 147.026 25.8314Z" fill="#131515"/>
<path d="M142.13 11.5444L148.317 3.95996" stroke="#131515"/>
<path d="M150.255 20.0169L165.944 6.74414" stroke="#131515"/>
<path d="M153.177 29.5575H162.899" stroke="#131515"/>
<path d="M62.8885 284.937L62.2256 270.124L71.2856 270.954L72.9429 284.108L62.8885 284.937Z" fill="white" stroke="#131515"/>
<path d="M58.5798 293.708C57.6959 291.338 60.274 284.03 61.6735 280.672H71.5069C76.8104 283.99 87.7487 291.029 89.0746 292.641C90.4004 294.253 89.0746 296.789 86.4229 296.789C79.4253 296.947 65.0323 297.31 63.4413 297.5C61.4525 297.737 59.6847 296.67 58.5798 293.708Z" fill="white" stroke="#131515"/>
<path d="M76.5896 283.871L72.0596 289.204" stroke="#131515"/>
<path d="M80.1261 286.359L76.259 291.811" stroke="#131515"/>
<path d="M12.3955 279.485L14.5073 265.383H23.3464L21.2346 280.907L12.3955 279.485Z" fill="white" stroke="#131515"/>
<path d="M21.8987 279.012L12.1757 276.049C10.7394 277.589 7.35842 281.263 5.32544 283.633C3.29245 286.003 4.45434 289.612 6.76178 290.151C14.2013 291.889 29.655 295.437 31.9531 295.721C34.8258 296.077 34.1074 291.335 33.8314 290.151C33.2787 287.781 25.6921 282.369 21.8987 279.012Z" fill="white" stroke="#131515"/>
<path d="M29.4104 285.647L24.4385 289.795" stroke="#131515"/>
<path d="M25.9866 282.389L21.0146 286.536" stroke="#131515"/>
<path d="M13.3906 271.072L30.6268 157.305L74.6011 161.335V272.968H60.4586L50.0727 198.546L22.2297 272.968L13.3906 271.072Z" fill="#2F9387" stroke="#131515"/>
<path d="M51.5215 194.354C54.6152 228.484 57.4326 237.55 62.0731 271.917" stroke="white"/>
<path d="M75.484 162.044L26.2062 159.437L29.2999 123.411L23.1126 131.943L11.8428 114.878C15.8204 109.19 25.1014 97.1022 30.4048 94.258C35.7082 91.4138 42.7795 89.9127 45.6522 89.5177C46.0941 91.0188 47.8619 94.0684 51.3976 94.258C54.9332 94.4476 57.143 91.1768 57.8059 89.5177C59.4264 89.5177 63.7981 89.0055 68.1918 89.5177C78.3567 90.7028 84.0284 98.6822 89.1846 103.265V123.411H72.3903L75.484 162.044Z" fill="#131515"/>
<path d="M23.0148 129.294L13.832 115.666C12.3589 118.431 7.20288 122.227 6.09783 125.782C4.75528 130.101 4.55099 136.21 4.55099 139.292C4.55099 142.373 6.09783 171.763 4.55099 174.37C3.00416 176.977 0.794394 179.584 1.01537 181.48C1.23635 183.376 3.22514 181.717 6.09783 181.48C8.97052 181.243 11.8432 173.659 12.2852 171.763C12.7271 169.866 12.7271 151.142 13.832 144.743C14.7159 139.623 20.584 132.297 23.0148 129.294Z" fill="white" stroke="#131515"/>
<path d="M243.665 220.5C244.699 220.5 245.71 220.585 246.693 220.749L246.695 220.75C247.092 220.815 247.42 221.097 247.567 221.491L247.619 221.666L248.534 225.846L248.59 226.102L248.832 226.201C249.947 226.66 250.992 227.267 251.938 227.994L252.146 228.153L252.395 228.074L256.472 226.778C256.937 226.63 257.437 226.767 257.729 227.117V227.118C258.304 227.815 258.83 228.553 259.299 229.334V229.335L259.643 229.928C260.024 230.617 260.359 231.328 260.646 232.063L260.645 232.066L260.755 232.367C260.914 232.8 260.784 233.297 260.422 233.623L260.42 233.625L257.25 236.509L257.057 236.686L257.091 236.944C257.169 237.531 257.211 238.132 257.211 238.738C257.211 239.344 257.169 239.944 257.091 240.531L257.057 240.791L257.25 240.967L260.42 243.851L260.422 243.853C260.739 244.138 260.879 244.555 260.802 244.944L260.755 245.109C260.443 245.952 260.068 246.76 259.636 247.541L259.291 248.134C258.822 248.914 258.297 249.654 257.721 250.351L257.72 250.352C257.431 250.704 256.934 250.84 256.465 250.69L252.388 249.395L252.139 249.315L251.932 249.475C250.985 250.202 249.94 250.809 248.825 251.268L248.583 251.367L248.527 251.623L247.612 255.803C247.506 256.287 247.14 256.645 246.688 256.719L246.687 256.72C245.704 256.884 244.691 256.969 243.657 256.969C242.624 256.969 241.612 256.884 240.629 256.72L240.627 256.719C240.231 256.654 239.902 256.372 239.755 255.978L239.703 255.803L238.788 251.623L238.732 251.367L238.49 251.268L238.075 251.089C237.116 250.656 236.212 250.111 235.384 249.475L235.176 249.315L234.927 249.395L230.856 250.697C230.391 250.845 229.892 250.707 229.601 250.356C229.025 249.66 228.5 248.922 228.031 248.142L227.687 247.549C227.254 246.767 226.878 245.959 226.566 245.116H226.567C226.408 244.684 226.538 244.186 226.9 243.86L226.903 243.858L230.072 240.975L230.266 240.799L230.231 240.54C230.154 239.945 230.111 239.344 230.111 238.738C230.111 238.132 230.154 237.531 230.231 236.944L230.266 236.686L230.072 236.509L226.903 233.625L226.9 233.623C226.538 233.297 226.407 232.799 226.566 232.366C226.878 231.524 227.254 230.716 227.687 229.935L228.031 229.342L228.03 229.341C228.499 228.56 229.026 227.823 229.602 227.126L229.603 227.124C229.891 226.771 230.388 226.637 230.857 226.786L234.935 228.081L235.184 228.161L235.391 228.001C236.337 227.273 237.382 226.667 238.497 226.208L238.739 226.108L238.795 225.853L239.71 221.674C239.816 221.189 240.182 220.831 240.635 220.757L240.64 220.756C241.62 220.585 242.631 220.5 243.665 220.5ZM243.665 232.383C241.979 232.383 240.363 233.052 239.171 234.244C237.979 235.436 237.31 237.053 237.31 238.738C237.31 240.424 237.979 242.041 239.171 243.232C240.363 244.424 241.98 245.094 243.665 245.094C245.351 245.094 246.967 244.424 248.159 243.232C249.351 242.041 250.02 240.424 250.021 238.738C250.021 237.053 249.351 235.436 248.159 234.244C246.967 233.052 245.351 232.383 243.665 232.383Z" fill="#2F9387" stroke="#131515"/>
</svg>
