<svg width="299" height="299" viewBox="0 0 299 299" fill="none" xmlns="http://www.w3.org/2000/svg">
<rect width="298.667" height="298.667" fill="white"/>
<g clip-path="url(#clip0_1_1294)">
<path d="M298.667 0H0V297.668H298.667V0Z" fill="white"/>
<path d="M292.616 43.3007L229.675 31.4194C227.146 30.9419 224.744 32.5388 224.312 34.986L213.972 93.4459C213.54 95.8931 215.239 98.264 217.768 98.7415L280.709 110.623C283.239 111.1 285.64 109.503 286.073 107.056L296.412 48.5963C296.845 46.1491 295.145 43.7781 292.616 43.3007Z" fill="white" stroke="#131515"/>
<path d="M277.898 73.4779L255.7 69.2877L259.678 46.7954C259.678 46.7954 260.193 43.9304 263.22 44.7294C278.983 48.8898 281.78 65.0047 280.703 71.0905C280.387 72.8757 280.203 73.9131 277.898 73.4779Z" fill="#B8E6E1" stroke="#131515"/>
<path d="M269.824 94.1928L256.62 74.5643L279.416 78.8674C281.721 79.3025 282.084 79.7398 281.735 81.7205C281.071 85.4692 275.751 92.1384 273.111 93.8108C270.472 95.4833 270.653 94.9875 269.824 94.1928Z" fill="#90DED5" stroke="#131515"/>
<path d="M254.597 48.3448L250.167 73.3951L262.222 91.5303C262.788 92.321 264.211 93.9261 261.967 95.2193C256.368 98.4463 232.226 102.001 227.726 75.3111C225.02 59.2621 238.846 45.775 253.018 46.5429C254.102 46.6017 254.714 47.6828 254.597 48.3448Z" fill="#2F9387" stroke="#131515"/>
<path d="M130.455 254.188H194.518C197.668 254.188 200.222 256.648 200.222 259.682V261.192H124.751V259.682C124.751 256.648 127.306 254.188 130.455 254.188Z" fill="white" stroke="#131515"/>
<path d="M184.775 236.179L186.61 254.19H138.364L140.198 236.179H184.775Z" fill="white" stroke="#131515"/>
<path d="M139.727 232.677H185.244V235.678H139.727V232.677Z" fill="#131515"/>
<path d="M245.62 113.373H79.8518C76.129 113.373 73.1111 116.28 73.1111 119.866V227.557C73.1111 231.143 76.129 234.05 79.8518 234.05H245.62C249.343 234.05 252.361 231.143 252.361 227.557V119.866C252.361 116.28 249.343 113.373 245.62 113.373Z" fill="#90DED5" stroke="#131515"/>
<path d="M243.164 118.988H82.3069C79.7296 118.988 77.6403 121.001 77.6403 123.483V223.938C77.6403 226.421 79.7296 228.433 82.3069 228.433H243.164C245.741 228.433 247.83 226.421 247.83 223.938V123.483C247.83 121.001 245.741 118.988 243.164 118.988Z" fill="white" stroke="#131515"/>
<path d="M77.1217 135.774H248.349" stroke="#131515"/>
<path d="M173.171 150.777C174.228 150.457 175.193 151.51 174.826 152.584L170.775 164.407C170.437 165.391 169.212 165.659 168.517 164.901L160.918 156.604C160.223 155.845 160.551 154.596 161.521 154.303L173.171 150.777Z" fill="#2F9387"/>
<path d="M209.473 180.331L189.452 204.786C188.784 205.602 188.89 206.83 189.689 207.529C190.489 208.227 191.679 208.132 192.347 207.315L212.368 182.861C213.036 182.044 212.93 180.816 212.131 180.118C211.331 179.419 210.142 179.515 209.473 180.331Z" fill="#2F9387" stroke="#131515"/>
<path d="M225.37 163.949C232.444 170.13 233.334 181.073 227.342 188.392C221.35 195.711 210.757 196.62 203.683 190.438C196.61 184.257 195.719 173.314 201.711 165.995C207.704 158.676 218.296 157.768 225.37 163.949Z" fill="#2F9387" stroke="#131515"/>
<path d="M222.84 167.037C228.261 171.774 228.947 180.164 224.352 185.777C219.756 191.389 211.634 192.085 206.213 187.347C200.791 182.608 200.107 174.219 204.702 168.607C209.297 162.994 217.418 162.3 222.84 167.037Z" fill="white" stroke="#131515"/>
<path d="M84.8228 127.969C85.7873 127.969 86.5692 127.216 86.5692 126.287C86.5692 125.358 85.7873 124.605 84.8228 124.605C83.8583 124.605 83.0764 125.358 83.0764 126.287C83.0764 127.216 83.8583 127.969 84.8228 127.969Z" fill="#90DED5" stroke="#131515"/>
<path d="M94.7881 127.969C95.7526 127.969 96.5345 127.216 96.5345 126.287C96.5345 125.358 95.7526 124.605 94.7881 124.605C93.8236 124.605 93.0417 125.358 93.0417 126.287C93.0417 127.216 93.8236 127.969 94.7881 127.969Z" fill="#90DED5" stroke="#131515"/>
<path d="M162.855 156.779L168.716 161.203C165.296 164.58 158.031 171.588 156.319 172.613C154.177 173.894 151.247 172.846 149.331 172.613C147.799 172.428 145.988 173.079 145.274 173.428C135.658 183.635 116.019 204.305 114.396 205.33C112.367 206.61 111.578 206.028 109.663 205.33C108.13 204.77 107.896 201.371 107.972 199.741C118.566 189.146 140.067 167.7 141.33 166.676C142.593 165.651 143.809 165.394 144.26 165.394C146.627 165.317 151.54 165.209 152.262 165.394C152.983 165.581 154.365 164.929 154.967 164.58L162.855 156.779Z" fill="#2F9387"/>
<path d="M97.8541 148.606C103.813 148.606 108.703 153.608 108.703 159.852C108.703 164.221 105.96 168.674 103.133 172.086C101.729 173.781 100.323 175.196 99.2679 176.188C98.741 176.684 98.303 177.072 97.9969 177.337C97.9459 177.381 97.8975 177.421 97.8541 177.458C97.8108 177.421 97.7632 177.381 97.7124 177.337C97.4062 177.072 96.9675 176.684 96.4403 176.188C95.3856 175.196 93.98 173.781 92.5757 172.086C89.7487 168.674 87.0048 164.221 87.0048 159.852C87.0048 153.608 91.8957 148.607 97.8541 148.606Z" fill="#90DED5" stroke="#131515"/>
<path d="M97.8551 163.06C100.646 163.06 102.908 160.881 102.908 158.193C102.908 155.506 100.646 153.327 97.8551 153.327C95.0647 153.327 92.8026 155.506 92.8026 158.193C92.8026 160.881 95.0647 163.06 97.8551 163.06Z" fill="#131515"/>
<path d="M47.4408 77.679C47.4408 77.679 49.8343 87.96 46.0552 93.0355C42.2762 98.1109 60.5414 101.094 62.053 98.5014C63.5646 95.9083 55.3011 81.5831 60.5414 81.5831C67.0917 81.5831 67.0919 77.1584 66.0842 72.2131C65.0764 67.2677 62.053 59.9799 53.991 59.9799C49.4283 59.9799 44.8591 62.3752 43.6617 67.2677C42.6314 71.4776 44.9214 75.4232 47.4408 77.679Z" fill="white" stroke="#131515"/>
<path d="M66.7156 77.2894C66.6148 80.9334 61.8867 82.3649 59.5353 82.6252C54.8744 81.7141 45.9724 78.6554 43.7892 74.4263C42.7815 72.4742 39.5323 70.3389 38.0043 67.1816C37.0804 65.2725 38.0367 57.9534 41.0599 56.1314C44.0832 54.3095 46.7367 55.0014 49.0798 54.2207C52.3551 53.1295 56.874 47.0937 62.6844 52.2687C66.3375 55.5221 63.9441 61.152 61.4247 62.3233C58.9053 63.4945 56.1342 62.3233 52.3551 63.4945C48.5761 64.6658 50.5415 67.5398 51.0954 68.5701C52.3551 70.9125 56.3862 73.255 59.5353 73.5153C62.6845 73.7756 66.8415 72.7345 66.7156 77.2894Z" fill="#131515"/>
<path d="M47.4414 69.7123C49.2552 69.9205 50.2126 71.621 50.4645 72.4453C49.4568 73.2694 47.0887 74.6576 45.6778 73.6164C43.9142 72.3151 45.1739 69.452 47.4414 69.7123Z" fill="white"/>
<path d="M103.488 121.616H89.7382V108.359C91.8006 108.438 96.2463 108.548 97.5296 108.359C98.813 108.169 99.7448 105.28 100.05 103.86C99.5921 99.6777 98.6754 90.8865 98.6754 89.1819C98.6754 87.051 94.0923 81.1323 94.5505 79.4751C95.0089 77.8178 97.5296 78.528 98.6754 79.4751C99.8213 80.422 100.05 82.5529 103.488 82.5529C106.925 82.5529 106.238 74.5033 108.758 74.7401C111.279 74.9768 112.425 80.1853 111.967 82.5529C111.6 84.4468 109.675 86.9721 108.758 87.9981V115.224C108.758 117.875 107.154 121.616 103.488 121.616Z" fill="white" stroke="#131515"/>
<path d="M96.9514 59.3804L96.9514 59.3804C94.33 60.1344 92.7622 62.8133 93.4496 65.3639L102.534 99.0695C103.221 101.62 105.903 103.076 108.525 102.322C111.146 101.568 112.714 98.8894 112.026 96.3389L102.942 62.6333C102.255 60.0827 99.5727 58.6263 96.9514 59.3804Z" fill="#2F9387"/>
<path d="M83.0952 70.9895L75.0746 54.8905L123.198 6.83026L151.385 61.2828L83.0952 70.9895Z" fill="white" stroke="#131515"/>
<path d="M86.1305 67.062L79.4319 53.8953C78.5547 52.1711 76.4359 51.5378 74.6995 52.4807C72.963 53.4237 72.2664 55.5858 73.1436 57.3099L79.8423 70.4766C80.7194 72.2008 82.8382 72.8341 84.5747 71.8912C86.3111 70.9483 87.0077 68.7862 86.1305 67.062Z" fill="#131515"/>
<path d="M157.95 55.926L130.691 3.92698C129.554 1.75817 126.864 0.989323 124.683 2.20971C122.502 3.43011 121.655 6.1776 122.792 8.3464L150.051 60.3454C151.188 62.5142 153.878 63.283 156.059 62.0626C158.24 60.8423 159.087 58.0948 157.95 55.926Z" fill="#2F9387"/>
<path d="M83.8651 56.2183L103.344 37.7518" stroke="#131515"/>
<path d="M108.383 33.2531L125.341 16.6806" stroke="#131515"/>
<path d="M152.471 25.8026C155.572 31.7484 154.952 38.6229 151.386 43.0591L137.925 17.2471C143.472 16.6109 149.371 19.857 152.471 25.8026Z" fill="#131515"/>
<path d="M147.394 11.5315L153.81 3.95554" stroke="#131515"/>
<path d="M155.82 19.9946L172.09 6.73663" stroke="#131515"/>
<path d="M158.85 29.5245H168.932" stroke="#131515"/>
<path d="M65.2177 284.619L64.5303 269.823L73.9258 270.652L75.6445 283.791L65.2177 284.619Z" fill="white" stroke="#131515"/>
<path d="M60.7495 293.381C59.8328 291.013 62.5064 283.713 63.9578 280.359H74.1554C79.6553 283.673 90.9987 290.705 92.3737 292.315C93.7486 293.925 92.3737 296.458 89.6238 296.458C82.367 296.616 67.441 296.979 65.791 297.168C63.7286 297.405 61.8953 296.339 60.7495 293.381Z" fill="white" stroke="#131515"/>
<path d="M79.4263 283.555L74.7285 288.882" stroke="#131515"/>
<path d="M83.0937 286.04L79.0834 291.486" stroke="#131515"/>
<path d="M12.8546 279.173L15.0446 265.087H24.2111L22.0211 280.594L12.8546 279.173Z" fill="white" stroke="#131515"/>
<path d="M22.7097 278.701L12.6266 275.741C11.1371 277.279 7.6309 280.949 5.52262 283.317C3.41434 285.684 4.61926 289.289 7.01216 289.827C14.7272 291.564 30.7533 295.108 33.1365 295.391C36.1156 295.747 35.3706 291.01 35.0844 289.827C34.5112 287.46 26.6436 282.054 22.7097 278.701Z" fill="white" stroke="#131515"/>
<path d="M30.4997 285.329L25.3436 289.472" stroke="#131515"/>
<path d="M26.9491 282.074L21.793 286.217" stroke="#131515"/>
<path d="M13.8866 270.77L31.7612 157.13L77.3641 161.155V272.664H62.6979L51.9273 198.325L23.0531 272.664L13.8866 270.77Z" fill="#2F9387" stroke="#131515"/>
<path d="M53.4297 194.137C56.638 228.229 59.5597 237.285 64.3721 271.614" stroke="white"/>
<path d="M78.2797 161.863L27.1767 159.259L30.385 123.273L23.9686 131.796L12.2814 114.75C16.4063 109.068 26.031 96.9939 31.5309 94.1529C37.0307 91.3119 44.3639 89.8124 47.343 89.4179C47.8012 90.9173 49.6345 93.9635 53.3012 94.1529C56.9677 94.3423 59.2594 91.0751 59.9468 89.4179C61.6273 89.4179 66.1609 88.9063 70.7174 89.4179C81.2588 90.6017 87.1405 98.5722 92.4877 103.15V123.273H75.0714L78.2797 161.863Z" fill="#131515"/>
<path d="M23.8671 129.15L14.3442 115.537C12.8166 118.299 7.4696 122.091 6.32363 125.642C4.93135 129.956 4.7195 136.058 4.7195 139.137C4.7195 142.214 6.32363 171.572 4.7195 174.176C3.11538 176.78 0.823767 179.384 1.05293 181.278C1.28209 183.172 3.34454 181.514 6.32363 181.278C9.30271 181.041 12.2818 173.465 12.7402 171.572C13.1984 169.677 13.1984 150.973 14.3442 144.582C15.2609 139.467 21.3463 132.15 23.8671 129.15Z" fill="white" stroke="#131515"/>
<path d="M252.69 220.254C253.762 220.254 254.81 220.339 255.83 220.503L255.832 220.504C256.244 220.569 256.584 220.85 256.736 221.244L256.79 221.419L257.739 225.594L257.797 225.85L258.048 225.949C259.204 226.407 260.288 227.014 261.269 227.74L261.485 227.899L261.743 227.82L265.971 226.525C266.453 226.377 266.972 226.514 267.274 226.864C267.871 227.56 268.416 228.298 268.903 229.078V229.079L269.259 229.672C269.654 230.36 270.002 231.07 270.3 231.804L270.298 231.807L270.413 232.108C270.577 232.54 270.443 233.037 270.067 233.363L270.065 233.365L266.778 236.245L266.578 236.422L266.613 236.68C266.694 237.266 266.737 237.867 266.737 238.472C266.737 239.077 266.694 239.676 266.613 240.263L266.578 240.523L266.778 240.698L270.065 243.579L270.067 243.581C270.396 243.866 270.541 244.282 270.461 244.671L270.413 244.836C270.089 245.678 269.7 246.485 269.252 247.265L268.894 247.857C268.408 248.636 267.864 249.376 267.266 250.072L267.265 250.073C266.965 250.424 266.45 250.56 265.964 250.41L261.736 249.117L261.477 249.037L261.263 249.197C260.281 249.923 259.197 250.529 258.041 250.988L257.79 251.087L257.732 251.342L256.783 255.518C256.673 256.001 256.293 256.359 255.825 256.433L255.824 256.434C254.804 256.598 253.754 256.682 252.681 256.682C251.61 256.682 250.561 256.598 249.541 256.434L249.539 256.433C249.128 256.368 248.787 256.086 248.635 255.693L248.581 255.518L247.632 251.342L247.574 251.087L247.323 250.988L246.893 250.809C245.898 250.377 244.961 249.832 244.102 249.197L243.886 249.037L243.628 249.117L239.406 250.417C238.924 250.565 238.406 250.427 238.105 250.077C237.507 249.382 236.963 248.644 236.477 247.865L236.12 247.273C235.671 246.492 235.281 245.685 234.957 244.843H234.958C234.793 244.411 234.928 243.914 235.304 243.588L235.307 243.586L238.593 240.706L238.794 240.531L238.758 240.272C238.678 239.677 238.634 239.077 238.634 238.472C238.634 237.867 238.678 237.266 238.758 236.68L238.794 236.422L238.593 236.245L235.307 233.365L235.304 233.363C234.928 233.037 234.792 232.539 234.957 232.107C235.281 231.266 235.671 230.459 236.12 229.679L236.477 229.086L236.476 229.085C236.962 228.305 237.508 227.569 238.106 226.873L238.107 226.871C238.405 226.518 238.921 226.384 239.407 226.533L243.636 227.827L243.895 227.907L244.109 227.747C245.09 227.02 246.174 226.414 247.33 225.956L247.581 225.856L247.639 225.601L248.588 221.427C248.698 220.942 249.078 220.585 249.547 220.511L249.553 220.51C250.569 220.339 251.617 220.254 252.69 220.254ZM252.69 232.124C250.941 232.124 249.265 232.792 248.029 233.983C246.793 235.174 246.099 236.789 246.099 238.472C246.099 240.156 246.793 241.771 248.029 242.961C249.265 244.151 250.942 244.821 252.69 244.821C254.438 244.821 256.114 244.151 257.35 242.961C258.586 241.771 259.28 240.156 259.281 238.472C259.281 236.789 258.586 235.174 257.35 233.983C256.114 232.792 254.438 232.124 252.69 232.124Z" fill="#2F9387" stroke="#131515"/>
</g>
<defs>
<clipPath id="clip0_1_1294">
<rect width="298.667" height="298.667" fill="white"/>
</clipPath>
</defs>
</svg>
