<svg width="290" height="298" viewBox="0 0 290 298" fill="none" xmlns="http://www.w3.org/2000/svg">
<rect width="288" height="298" fill="white"/>
<path d="M6.58896 36.325C6.67205 34.6997 8.05656 33.4499 9.68177 33.533C11.307 33.6161 12.5568 35.0006 12.4737 36.6258L11.7731 50.3298L25.4771 51.0304C27.1023 51.1135 28.3522 52.498 28.2691 54.1232C28.186 55.7484 26.8015 56.9983 25.1763 56.9152L8.52987 56.0642C6.90467 55.9811 5.65484 54.5966 5.73792 52.9713L6.58896 36.325Z" fill="#90DED5"/>
<path d="M38.1151 7.86475C36.4899 7.78167 35.1053 9.0315 35.0223 10.6567C34.9392 12.2819 36.189 13.6664 37.8142 13.7495L51.5182 14.4501L50.8176 28.1541C50.7345 29.7793 51.9844 31.1638 53.6096 31.2469C55.2348 31.33 56.6193 30.0802 56.7024 28.455L57.5534 11.8086C57.6365 10.1834 56.3867 8.79888 54.7615 8.71579L38.1151 7.86475Z" fill="#90DED5"/>
<path d="M38.8161 54.6133L22.2864 16.8183C21.6343 15.3273 22.3144 13.59 23.8053 12.938C25.2963 12.2859 27.0336 12.9659 27.6857 14.4569L44.2154 52.2519C44.8674 53.7428 44.1874 55.4801 42.6964 56.1322C41.2054 56.7843 39.4681 56.1042 38.8161 54.6133Z" fill="#90DED5"/>
<path d="M6.58896 36.325C6.67205 34.6997 8.05656 33.4499 9.68177 33.533C11.307 33.6161 12.5568 35.0006 12.4737 36.6258L11.7731 50.3298L25.4771 51.0304C27.1023 51.1135 28.3522 52.498 28.2691 54.1232C28.186 55.7484 26.8015 56.9983 25.1763 56.9152L8.52987 56.0642C6.90467 55.9811 5.65484 54.5966 5.73792 52.9713L6.58896 36.325Z" stroke="#131515" stroke-linecap="round" stroke-linejoin="round"/>
<path d="M38.1151 7.86475C36.4899 7.78167 35.1053 9.0315 35.0223 10.6567C34.9392 12.2819 36.189 13.6664 37.8142 13.7495L51.5182 14.4501L50.8176 28.1541C50.7345 29.7793 51.9844 31.1638 53.6096 31.2469C55.2348 31.33 56.6193 30.0802 56.7024 28.455L57.5534 11.8086C57.6365 10.1834 56.3867 8.79888 54.7615 8.71579L38.1151 7.86475Z" stroke="#131515" stroke-linecap="round" stroke-linejoin="round"/>
<path d="M38.8161 54.6133L22.2864 16.8183C21.6343 15.3273 22.3144 13.59 23.8053 12.938C25.2963 12.2859 27.0336 12.9659 27.6857 14.4569L44.2154 52.2519C44.8674 53.7428 44.1874 55.4801 42.6964 56.1322C41.2054 56.7843 39.4681 56.1042 38.8161 54.6133Z" stroke="#131515" stroke-linecap="round" stroke-linejoin="round"/>
<path d="M110.847 203H154.456V205.784H110.847V203Z" fill="#131515"/>
<path d="M102 222.985H163.3C166.337 222.985 168.8 225.448 168.8 228.485V229.408H96.5V228.485L96.5068 228.202C96.6542 225.296 99.0574 222.985 102 222.985Z" fill="white" stroke="#131515"/>
<path d="M154.005 206.283L155.755 222.912H109.546L111.296 206.283H154.005Z" fill="white" stroke="#131515"/>
<rect x="47.5" y="92.5" width="171.73" height="111.838" rx="6.5" fill="#90DED5" stroke="#131515"/>
<rect x="51.1123" y="97.708" width="163.05" height="101.423" rx="4.5" fill="white" stroke="#131515"/>
<path d="M57.9902 102.916C58.9125 102.916 59.6601 103.663 59.6602 104.585C59.6602 105.508 58.9125 106.255 57.9902 106.255C57.068 106.255 56.3203 105.508 56.3203 104.585C56.3203 103.663 57.068 102.916 57.9902 102.916Z" fill="#90DED5" stroke="#131515"/>
<path d="M67.5371 102.916C68.4594 102.916 69.207 103.663 69.207 104.585C69.207 105.508 68.4594 106.255 67.5371 106.255C66.6148 106.255 65.8672 105.508 65.8672 104.585C65.8672 103.663 66.6148 102.916 67.5371 102.916Z" fill="#90DED5" stroke="#131515"/>
<line x1="50.6123" y1="113.199" x2="214.662" y2="113.199" stroke="#131515"/>
<path d="M73.1714 187.231C78.3649 187.898 106.767 187.148 127.647 187.096C130.826 187.088 135.988 186.227 136.99 179.318C137.991 172.41 128.084 157.371 122.666 157.384C117.248 157.398 115.185 161.28 112.065 161.287C106.933 161.3 102.82 147.979 95.4053 147.997C89.1325 148.013 66.6651 173.983 65.8453 177.863C65.155 181.129 67.9779 186.564 73.1714 187.231Z" fill="#2F9387" stroke="#131515"/>
<path d="M130.695 133.646C134.274 133.646 137.116 136.346 137.116 139.605C137.116 142.865 134.274 145.564 130.695 145.564C127.116 145.564 124.274 142.865 124.274 139.605C124.274 136.346 127.116 133.646 130.695 133.646Z" fill="#2F9387" stroke="#131515"/>
<path d="M63.1198 156.139C61.4456 153.719 61.3587 147.782 64.9351 145.248C67.4964 143.432 72.2771 141.224 75.2216 143.432C77.6419 145.248 75.2216 150.088 72.1961 147.668C68.6218 144.809 69.7758 136.776 75.2216 133.146C79.5782 130.241 84.2979 128.709 86.1131 128.305" stroke="#131515"/>
<rect x="153.268" y="148.324" width="7.93429" height="33.6305" fill="#B8E6E1" stroke="#131515"/>
<rect x="167.946" y="143.917" width="7.93429" height="38.038" fill="#2F9387" stroke="#131515"/>
<rect x="182.624" y="140.139" width="7.93429" height="41.8159" fill="#B8E6E1" stroke="#131515"/>
<rect x="197.302" y="128.805" width="7.93429" height="53.1495" fill="#2F9387" stroke="#131515"/>
<path d="M268.715 263.421L261.052 249.353L268.624 245.442L276.853 260.222L268.715 263.421Z" fill="white" stroke="#131515"/>
<path d="M287.782 260.807C287.307 257.48 279.07 254.884 275.011 254.002L267.484 263.178C266.953 267.08 265.654 275.825 264.705 279.585C263.519 284.285 270.69 284.494 272.162 282.698C273.57 280.982 288.376 264.964 287.782 260.807Z" fill="white" stroke="#131515"/>
<path d="M264.552 280.444C267.196 279.154 273.677 273.53 276.426 270.179C279.174 266.827 282.701 260.087 284.12 257.136" stroke="#131515"/>
<path d="M272.463 269.196C272.737 269.23 272.987 269.036 273.021 268.762C273.056 268.488 272.861 268.238 272.587 268.204L272.525 268.7L272.463 269.196ZM267.494 265.088L267.12 265.419C267.63 265.996 268.496 266.868 269.45 267.627C269.928 268.007 270.436 268.365 270.94 268.643C271.438 268.919 271.961 269.133 272.463 269.196L272.525 268.7L272.587 268.204C272.264 268.163 271.869 268.014 271.424 267.768C270.984 267.525 270.523 267.202 270.072 266.844C269.172 266.128 268.347 265.298 267.869 264.757L267.494 265.088Z" fill="#131515"/>
<path d="M270.876 272.62C271.15 272.654 271.4 272.46 271.434 272.186C271.468 271.912 271.274 271.662 271 271.628L270.938 272.124L270.876 272.62ZM266.391 268.963L266.016 269.295C266.524 269.868 267.27 270.631 268.11 271.281C268.936 271.92 269.914 272.5 270.876 272.62L270.938 272.124L271 271.628C270.311 271.542 269.51 271.1 268.722 270.49C267.948 269.891 267.247 269.177 266.765 268.632L266.391 268.963Z" fill="#131515"/>
<path d="M218.123 80.3368C217.865 83.4329 213.752 85.3856 213.347 89.1996C212.056 101.326 236.294 106.484 238.764 108.459C241.344 110.523 240.312 114.909 238.764 120.844C237.216 126.778 237.216 134.776 243.15 138.13C253.198 143.809 264.439 152.601 273.796 140.595C281.278 130.994 273.796 125.175 276.118 114.998C278.986 102.426 264.939 101.389 266.491 90.6025C267.328 84.7828 265.197 75.5882 258.618 72.622C246.405 67.1159 245.459 63.3338 233.861 61.7604C227.636 60.9158 222.225 64.5135 219.53 67.9786C217.724 70.3007 218.381 77.2407 218.123 80.3368Z" fill="#131515"/>
<path d="M171.732 86.8055C173.59 86.8055 173.538 92.9976 173.28 96.0937L166.188 100.873C162.77 97.9059 159.932 94.0359 159.932 89.1343C159.932 85.2643 163.163 78.8987 164.508 82.9354C165.798 86.8055 165.798 88.1028 169.41 90.6756C169.41 89.3856 169.875 86.8055 171.732 86.8055Z" fill="white" stroke="#131515"/>
<path d="M187.636 62.0619V72.3821H178.863C176.541 68.34 172.258 59.8946 173.703 58.4498C175.509 56.6438 175.509 62.0619 178.863 62.0619C182.217 62.0619 179.379 54.5797 178.863 53.0317C178.347 51.4837 179.637 49.4196 182.991 51.2257C186.345 53.0317 187.636 57.9338 187.636 62.0619Z" fill="white" stroke="#131515"/>
<path d="M219.979 282.89L220.839 266.894L229.338 267.539L228.585 284.438L219.979 282.89Z" fill="white" stroke="#131515"/>
<path d="M232.621 294.115C234.892 291.638 231.675 283.623 229.783 279.925H217.915C214.561 281.989 206.976 286.53 203.467 288.181C199.081 290.245 203.466 295.921 205.789 295.921C208.008 295.921 229.783 297.211 232.621 294.115Z" fill="white" stroke="#131515"/>
<path d="M202.825 288.056C205.491 288.83 211.726 291.146 217.206 291.146C221.54 291.146 228.988 289.598 232.17 288.824" stroke="#131515"/>
<path d="M270.806 250.124L263.066 253.478C251.249 240.535 242.623 227.055 233.653 211.939L230.299 274.634H220.237C215.851 255.542 207.027 215.138 206.821 206.263C206.614 197.387 215.679 164.577 220.237 152.279L256.1 160.338C255.584 172.034 254.861 196.51 256.1 200.845C257.648 206.263 261.26 211.423 264.872 217.357C267.762 222.104 270.032 241.18 270.806 250.124Z" fill="#131515"/>
<path d="M247.584 168.078C250.862 179.366 235.796 189.807 233.462 200.076C232.43 204.617 230.022 268.792 229.85 272.576" stroke="white"/>
<path d="M173.02 96.0944L166.57 101.255C171.558 106.845 177.645 115.943 187.727 121.121C198.469 126.638 210.087 125.765 218.171 126.539L209.915 154.146L255.324 161.886C255.324 161.886 262.282 121.391 259.262 111.323C256.241 101.255 241.717 97.9065 241.717 97.9065C236.557 97.9065 235.577 104.099 231.655 104.099C227.733 104.099 225.051 97.8145 222.815 96.0944C218.171 95.0624 208.109 92.9984 201.917 89.9023C197.391 87.6394 190.651 76.142 187.727 69.0039L177.665 70.2939C178.611 75.024 181.215 86.2963 183.083 91.7083C186.634 102 206.758 109.388 206.758 109.388C206.758 109.388 183.083 108.098 173.02 96.0944Z" fill="white" stroke="#131515"/>
<path d="M221.078 109.904C215.273 109.904 210.758 110.549 203.018 108.872" stroke="#131515"/>
<path d="M234.069 103.703C229.528 105.355 225.297 99.2312 223.749 95.9632L226.329 90.9602V82.2889C226.329 73.6738 235.359 78.3177 235.359 82.2889L237.423 95.9632C238.197 97.8552 238.61 102.052 234.069 103.703Z" fill="white" stroke="#131515"/>
<path d="M237.787 82.2131C236.961 83.8643 235.207 85.1371 234.433 85.5672C234.433 85.5672 227.802 87.9958 225.403 85.5672C223.004 83.1386 221.017 79.891 222.823 75.247C224.225 71.6399 225.661 70.0869 230.047 70.3449C234.433 70.6029 234.433 76.795 237.787 76.795C241.141 76.795 238.819 80.1491 237.787 82.2131Z" fill="white" stroke="#131515"/>
<path d="M216.883 126.281C222.043 126.281 232.982 125.559 235.459 122.669" stroke="#131515"/>
<path d="M219.339 286.488C219.613 286.522 219.863 286.328 219.897 286.054C219.932 285.78 219.737 285.53 219.463 285.496L219.401 285.992L219.339 286.488ZM214.37 282.38L213.996 282.711C214.506 283.288 215.372 284.16 216.326 284.919C216.804 285.299 217.312 285.657 217.816 285.935C218.314 286.211 218.837 286.425 219.339 286.488L219.401 285.992L219.463 285.496C219.14 285.455 218.745 285.306 218.3 285.06C217.86 284.817 217.399 284.494 216.948 284.136C216.047 283.42 215.223 282.59 214.745 282.049L214.37 282.38Z" fill="#131515"/>
<path d="M216.143 288.294C216.417 288.328 216.667 288.134 216.701 287.86C216.735 287.586 216.541 287.336 216.267 287.301L216.205 287.798L216.143 288.294ZM211.174 284.186L210.799 284.517C211.31 285.094 212.175 285.966 213.13 286.725C213.608 287.104 214.116 287.462 214.619 287.741C215.118 288.017 215.641 288.231 216.143 288.294L216.205 287.798L216.267 287.301C215.944 287.261 215.548 287.112 215.103 286.866C214.663 286.622 214.202 286.3 213.752 285.942C212.851 285.226 212.027 284.396 211.548 283.854L211.174 284.186Z" fill="#131515"/>
<path d="M160.859 36.5C162.385 36.5 163.88 36.6262 165.331 36.8682H165.332C166.097 36.9929 166.701 37.596 166.875 38.3896L168.214 44.5078L168.27 44.7637L168.513 44.8633C170.164 45.5425 171.711 46.4414 173.112 47.5186L173.319 47.6777L173.568 47.5986L179.537 45.7021C180.301 45.4593 181.133 45.6808 181.625 46.2715V46.2725C182.477 47.3037 183.255 48.3975 183.949 49.5537L184.449 50.416C185.038 51.4787 185.553 52.5764 185.991 53.7158L185.984 53.7236L186.095 54.0234C186.363 54.7515 186.141 55.5789 185.544 56.1152L185.542 56.1172L180.902 60.3389L180.709 60.5146L180.743 60.7744C180.858 61.643 180.921 62.5316 180.921 63.4297C180.921 64.3279 180.858 65.2172 180.743 66.0859L180.709 66.3457L180.902 66.5215L185.542 70.7432L185.544 70.7451C186.104 71.248 186.334 72.0065 186.14 72.6992L186.095 72.8369C185.634 74.0834 185.078 75.2787 184.438 76.4336L183.938 77.2949C183.245 78.4514 182.467 79.5457 181.614 80.5771L181.613 80.5781C181.124 81.1752 180.294 81.3918 179.526 81.1475L173.558 79.251L173.309 79.1719L173.102 79.3311C171.7 80.4082 170.153 81.3071 168.502 81.9863L168.26 82.0859L168.203 82.3418L166.864 88.46C166.69 89.2534 166.087 89.8565 165.322 89.9814H165.32C163.869 90.2234 162.375 90.3496 160.849 90.3496C159.323 90.3496 157.828 90.2234 156.377 89.9814H156.375C155.61 89.8567 155.007 89.2536 154.833 88.46L153.493 82.3418L153.438 82.0859L153.195 81.9863C151.544 81.3071 149.997 80.4082 148.596 79.3311L148.388 79.1719L148.138 79.251L142.181 81.1582C141.464 81.3859 140.688 81.2046 140.188 80.6934L140.093 80.5869C139.241 79.5557 138.462 78.4618 137.769 77.3057L137.269 76.4443C136.709 75.4338 136.214 74.3921 135.79 73.3125L135.612 72.8467C135.345 72.1188 135.566 71.292 136.163 70.7559L136.166 70.7539L140.805 66.5322L140.998 66.3564L140.965 66.0977C140.85 65.2175 140.786 64.3279 140.786 63.4297C140.786 62.5316 140.849 61.643 140.964 60.7744L140.999 60.5146L140.805 60.3389L136.166 56.1172L136.163 56.1152L136.056 56.0107C135.541 55.4755 135.362 54.7067 135.612 54.0244C136.073 52.7777 136.629 51.5819 137.269 50.4268L137.769 49.5654C138.462 48.409 139.241 47.3146 140.094 46.2832L140.095 46.2822C140.584 45.6851 141.414 45.4685 142.182 45.7129L148.149 47.6094L148.398 47.6885L148.606 47.5293C150.008 46.4521 151.555 45.5532 153.206 44.874L153.448 44.7744L153.504 44.5186L154.844 38.4004C155.018 37.6068 155.62 37.0037 156.386 36.8789L156.391 36.8779C157.84 36.6259 159.333 36.5 160.859 36.5ZM160.859 54.3584C158.453 54.3584 156.146 55.3143 154.444 57.0156C152.743 58.7168 151.787 61.0239 151.787 63.4297C151.787 65.8357 152.743 68.1434 154.444 69.8447C156.146 71.546 158.453 72.502 160.859 72.502C163.265 72.5019 165.573 71.546 167.274 69.8447C168.975 68.1434 169.931 65.8355 169.931 63.4297C169.931 61.024 168.975 58.7168 167.274 57.0156C165.573 55.3144 163.265 54.3585 160.859 54.3584Z" fill="#90DED5" stroke="#131515"/>
<path d="M34.8916 212.5C36.9003 212.5 38.8674 212.666 40.7783 212.984L40.7803 212.985C41.8515 213.16 42.6868 214.002 42.9277 215.099L44.6836 223.117L44.7393 223.373L44.9814 223.473C47.1585 224.368 49.1984 225.554 51.0459 226.974L51.2529 227.133L51.502 227.054L59.3242 224.567C60.3813 224.231 61.5401 224.537 62.2285 225.365C63.3487 226.721 64.3718 228.158 65.2842 229.678V229.679L65.9443 230.816C66.7361 232.245 67.4281 233.722 68.0127 235.257L68.002 235.269L68.1123 235.568C68.4866 236.586 68.1752 237.736 67.3486 238.479L67.3467 238.481L61.2656 244.015L61.0723 244.19L61.1064 244.449C61.2582 245.594 61.3408 246.767 61.3408 247.951C61.3408 249.136 61.2582 250.307 61.1064 251.452L61.0723 251.712L61.2656 251.888L67.3467 257.421L67.3486 257.423C68.1752 258.166 68.4866 259.315 68.1123 260.333C67.505 261.975 66.7736 263.55 65.9307 265.071L65.2705 266.209C64.3579 267.729 63.3344 269.168 62.2139 270.523L62.2129 270.524C61.5701 271.309 60.5144 271.618 59.5107 271.376L59.3105 271.32L51.4883 268.834L51.2393 268.755L51.0322 268.914C49.1848 270.334 47.1448 271.52 44.9678 272.416L44.7256 272.516L44.6689 272.771L42.9141 280.789C42.6731 281.886 41.8371 282.729 40.7656 282.903H40.7637C38.8529 283.222 36.8864 283.388 34.8779 283.388C32.8693 283.388 30.9021 283.222 28.9912 282.903H28.9902C27.9188 282.729 27.0828 281.886 26.8418 280.789L25.0869 272.771L25.0303 272.516L24.7881 272.416L23.9785 272.066C22.1043 271.22 20.3402 270.157 18.7236 268.914L18.5156 268.755L18.2666 268.835L10.459 271.334C9.40175 271.67 8.24299 271.364 7.55469 270.536C6.43297 269.179 5.4084 267.739 4.49512 266.217L3.84375 265.094C3.10444 263.761 2.45018 262.386 1.89062 260.961L1.65723 260.347C1.28319 259.329 1.59456 258.18 2.4209 257.438L2.42285 257.435L8.50391 251.902L8.69727 251.727L8.66309 251.467C8.51125 250.307 8.42872 249.135 8.42871 247.951C8.42871 246.767 8.51133 245.594 8.66309 244.449L8.69727 244.19L8.50391 244.015L2.42285 238.481L2.4209 238.479L2.27148 238.335C1.55787 237.593 1.30658 236.523 1.65723 235.569C2.26572 233.924 2.99882 232.346 3.84375 230.822L3.84277 230.821L4.49512 229.699C5.40864 228.177 6.43359 226.736 7.55566 225.379L7.55664 225.377C8.24225 224.54 9.39803 224.245 10.459 224.582H10.46L18.2812 227.067L18.5303 227.146L18.7383 226.987C20.5857 225.567 22.6258 224.382 24.8027 223.486L25.0449 223.387L25.1006 223.131L26.8555 215.111C27.0968 214.015 27.9328 213.174 29.0039 212.999L29.0088 212.998C30.9173 212.666 32.883 212.5 34.8916 212.5ZM34.8916 236.217C31.7796 236.217 28.7953 237.453 26.5947 239.653C24.394 241.854 23.1572 244.839 23.1572 247.951C23.1573 251.063 24.3941 254.048 26.5947 256.249C28.7953 258.449 31.7797 259.685 34.8916 259.686C38.0037 259.686 40.9888 258.45 43.1895 256.249C45.3901 254.048 46.6269 251.063 46.627 247.951C46.627 244.839 45.3901 241.854 43.1895 239.653C40.9888 237.453 38.0038 236.217 34.8916 236.217Z" fill="white" stroke="#131515"/>
<path d="M58.0039 257.5C59.1181 257.5 60.2089 257.591 61.2686 257.767H61.2705C61.713 257.838 62.0761 258.151 62.2383 258.581L62.2959 258.772L63.2793 263.234L63.3359 263.49L63.5791 263.589C64.7816 264.08 65.9088 264.73 66.9297 265.509L67.1357 265.666L67.3828 265.588L71.7695 264.205C72.2851 264.042 72.84 264.192 73.1641 264.578V264.579C73.6308 265.139 74.0673 265.725 74.4697 266.336L74.8604 266.956L75.2266 267.583C75.6412 268.326 76.0034 269.093 76.3154 269.887L76.3135 269.89L76.4258 270.192C76.6012 270.666 76.4579 271.21 76.0576 271.567L76.0557 271.569L72.6455 274.648L72.4502 274.824L72.4854 275.085C72.5692 275.713 72.6152 276.355 72.6152 277.004C72.6152 277.653 72.5692 278.295 72.4854 278.923L72.4502 279.184L72.6455 279.359L76.0557 282.438L76.0576 282.44C76.4081 282.753 76.5615 283.209 76.4766 283.636L76.4258 283.815C76.09 284.717 75.6853 285.581 75.2188 286.417L74.8525 287.044C74.3463 287.881 73.7785 288.674 73.1562 289.421L73.1543 289.423C72.8731 289.763 72.4153 289.919 71.957 289.843L71.7617 289.795L67.375 288.412L67.1279 288.334L66.9219 288.491C65.901 289.27 64.7738 289.92 63.5713 290.411L63.3281 290.51L63.2715 290.766L62.2871 295.228C62.1702 295.755 61.7685 296.152 61.2627 296.233H61.2607C60.2011 296.409 59.1103 296.5 57.9961 296.5C56.8819 296.5 55.7911 296.409 54.7314 296.233H54.7295C54.287 296.162 53.9239 295.849 53.7617 295.419L53.7041 295.228L52.7207 290.766L52.6641 290.51L52.4209 290.411L51.9736 290.22C50.9383 289.756 49.9636 289.173 49.0703 288.491L48.8633 288.334L48.6162 288.412L44.2383 289.803C43.7542 289.956 43.236 289.832 42.9062 289.497L42.8428 289.428C42.2208 288.681 41.6535 287.889 41.1475 287.052L40.7812 286.425C40.4317 285.799 40.117 285.156 39.8398 284.494L39.5742 283.823C39.3988 283.349 39.5421 282.805 39.9424 282.448L39.9443 282.446L43.3545 279.367L43.5488 279.191L43.5146 278.931C43.4307 278.294 43.3848 277.652 43.3848 277.004C43.3848 276.355 43.4308 275.713 43.5146 275.085L43.5498 274.824L43.3545 274.648L39.9443 271.569L39.9424 271.567L39.8037 271.425C39.5525 271.125 39.4506 270.738 39.5234 270.372L39.5742 270.192C39.91 269.291 40.3147 268.427 40.7812 267.591L41.1475 266.964C41.6537 266.127 42.2215 265.334 42.8438 264.587L42.8457 264.585C43.1669 264.196 43.7186 264.049 44.2383 264.213L48.625 265.596L48.8721 265.674L49.0781 265.517C50.099 264.738 51.2262 264.088 52.4287 263.597L52.6719 263.498L52.7285 263.242L53.7119 258.779C53.8291 258.252 54.2318 257.856 54.7373 257.774V257.775L54.7422 257.774C55.7997 257.592 56.8895 257.5 58.0039 257.5ZM58.0039 270.253C56.2018 270.253 54.4727 270.963 53.1973 272.229C51.9217 273.494 51.2041 275.212 51.2041 277.004C51.2041 278.796 51.9217 280.513 53.1973 281.779C54.4727 283.045 56.2018 283.755 58.0039 283.755C59.806 283.755 61.5351 283.045 62.8105 281.779C64.0861 280.513 64.8037 278.796 64.8037 277.004C64.8037 275.212 64.0861 273.494 62.8105 272.229C61.5351 270.963 59.806 270.253 58.0039 270.253Z" fill="white" stroke="#131515"/>
<path d="M72.0542 47.1773L69.2171 58.5778L61.8934 53.0746L72.0542 47.1773Z" fill="white"/>
<path d="M71.7111 47.5864L69.9741 52.9231L66.5848 50.744L71.7111 47.5864Z" fill="#131515"/>
<path d="M68.7289 58.7379L71.621 47.754L62.0376 53.4959" stroke="#131515"/>
<path d="M24.7738 114.773L20.2839 111.4C19.6216 110.902 19.4881 109.962 19.9858 109.299L61.8108 53.638L68.6991 58.814L26.8741 114.475L26.7757 114.593C26.2943 115.114 25.5085 115.226 24.901 114.859L24.7738 114.773Z" fill="white" stroke="#131515"/>
<line x1="28.9555" y1="111.648" x2="22.1217" y2="106.513" stroke="#131515"/>
<path d="M30.1716 102.915L47.4456 79.9266" stroke="#131515" stroke-linecap="round"/>
<path d="M51.1127 75.0464L59.8913 63.3637" stroke="#131515" stroke-linecap="round"/>
</svg>
