<svg width="299" height="299" viewBox="0 0 299 299" fill="none" xmlns="http://www.w3.org/2000/svg">
<rect width="298.667" height="298.667" fill="white"/>
<g clip-path="url(#clip0_1_1291)">
<path d="M296.607 0H0V298.667H296.607V0Z" fill="white"/>
<path d="M6.7859 36.4063C6.87147 34.7774 8.29736 33.5248 9.97114 33.608C11.6449 33.6913 12.9321 35.0789 12.8465 36.7078L12.125 50.4424L26.2385 51.1446C27.9123 51.2279 29.1995 52.6155 29.114 54.2443C29.0284 55.8731 27.6025 57.1258 25.9287 57.0426L8.78481 56.1897C7.11104 56.1064 5.82386 54.7188 5.90943 53.0898L6.7859 36.4063Z" fill="#90DED5"/>
<path d="M39.2542 7.88234C37.5804 7.79907 36.1545 9.0517 36.069 10.6805C35.9834 12.3094 37.2705 13.697 38.9443 13.7803L53.0579 14.4824L52.3363 28.2171C52.2507 29.8459 53.538 31.2335 55.2118 31.3168C56.8855 31.4001 58.3114 30.1475 58.397 28.5187L59.2734 11.835C59.359 10.2062 58.0719 8.81856 56.3981 8.73528L39.2542 7.88234Z" fill="#90DED5"/>
<path d="M39.9761 54.7355L22.9524 16.856C22.2809 15.3616 22.9813 13.6204 24.5167 12.967C26.0523 12.3134 27.8415 12.9949 28.5131 14.4893L45.5368 52.3688C46.2083 53.8631 45.508 55.6042 43.9724 56.2578C42.4368 56.9114 40.6476 56.2297 39.9761 54.7355Z" fill="#90DED5"/>
<path d="M6.7859 36.4063C6.87147 34.7774 8.29736 33.5248 9.97114 33.608C11.6449 33.6913 12.9321 35.0789 12.8465 36.7078L12.125 50.4424L26.2385 51.1446C27.9123 51.2279 29.1995 52.6155 29.114 54.2443C29.0284 55.8731 27.6025 57.1258 25.9287 57.0426L8.78481 56.1897C7.11104 56.1064 5.82386 54.7188 5.90943 53.0898L6.7859 36.4063Z" stroke="#131515" stroke-linecap="round" stroke-linejoin="round"/>
<path d="M39.2542 7.88234C37.5804 7.79907 36.1545 9.0517 36.069 10.6805C35.9834 12.3094 37.2705 13.697 38.9443 13.7803L53.0579 14.4824L52.3363 28.2171C52.2507 29.8459 53.538 31.2335 55.2118 31.3168C56.8855 31.4001 58.3114 30.1475 58.397 28.5187L59.2734 11.835C59.359 10.2062 58.0719 8.81856 56.3981 8.73528L39.2542 7.88234Z" stroke="#131515" stroke-linecap="round" stroke-linejoin="round"/>
<path d="M39.9761 54.7355L22.9524 16.856C22.2809 15.3616 22.9813 13.6204 24.5167 12.967C26.0523 12.3134 27.8415 12.9949 28.5131 14.4893L45.5368 52.3688C46.2083 53.8631 45.508 55.6042 43.9724 56.2578C42.4368 56.9114 40.6476 56.2297 39.9761 54.7355Z" stroke="#131515" stroke-linecap="round" stroke-linejoin="round"/>
<path d="M114.16 203.454H159.072V206.244H114.16V203.454Z" fill="#131515"/>
<path d="M105.048 223.484H168.18C171.308 223.484 173.845 225.952 173.845 228.996V229.921H99.3839V228.996L99.3909 228.713C99.5427 225.8 102.018 223.484 105.048 223.484Z" fill="white" stroke="#131515"/>
<path d="M158.607 206.745L160.41 223.411H112.82L114.622 206.745H158.607Z" fill="white" stroke="#131515"/>
<path d="M219.087 92.7069H55.6138C51.9167 92.7069 48.9196 95.6236 48.9196 99.2215V198.281C48.9196 201.878 51.9167 204.795 55.6138 204.795H219.087C222.785 204.795 225.782 201.878 225.782 198.281V99.2215C225.782 95.6236 222.785 92.7069 219.087 92.7069Z" fill="#90DED5" stroke="#131515"/>
<path d="M215.928 97.9266H57.2743C54.7147 97.9266 52.6398 99.9458 52.6398 102.437V195.066C52.6398 197.557 54.7147 199.576 57.2743 199.576H215.928C218.488 199.576 220.563 197.557 220.563 195.066V102.437C220.563 99.9458 218.488 97.9266 215.928 97.9266Z" fill="white" stroke="#131515"/>
<path d="M59.7232 103.146C60.6731 103.146 61.443 103.895 61.4431 104.819C61.4431 105.744 60.6731 106.493 59.7232 106.493C58.7735 106.493 58.0034 105.744 58.0034 104.819C58.0034 103.895 58.7735 103.146 59.7232 103.146Z" fill="#90DED5" stroke="#131515"/>
<path d="M69.5555 103.146C70.5054 103.146 71.2753 103.895 71.2753 104.819C71.2753 105.744 70.5054 106.493 69.5555 106.493C68.6056 106.493 67.8357 105.744 67.8357 104.819C67.8357 103.895 68.6056 103.146 69.5555 103.146Z" fill="#90DED5" stroke="#131515"/>
<path d="M52.1249 113.452H221.077" stroke="#131515"/>
<path d="M75.3581 187.65C80.7068 188.318 109.958 187.567 131.462 187.515C134.736 187.507 140.052 186.644 141.084 179.719C142.115 172.796 131.912 157.723 126.332 157.736C120.752 157.75 118.627 161.641 115.414 161.648C110.129 161.661 105.893 148.31 98.2565 148.328C91.7962 148.344 68.6574 174.372 67.8131 178.261C67.1021 181.534 70.0094 186.981 75.3581 187.65Z" fill="#2F9387" stroke="#131515"/>
<path d="M134.601 133.945C138.287 133.945 141.214 136.651 141.214 139.917C141.214 143.185 138.287 145.89 134.601 145.89C130.915 145.89 127.988 143.185 127.988 139.917C127.988 136.651 130.915 133.945 134.601 133.945Z" fill="#2F9387" stroke="#131515"/>
<path d="M65.0062 156.488C63.2819 154.063 63.1924 148.113 66.8757 145.573C69.5136 143.753 74.4371 141.54 77.4696 143.753C79.9623 145.573 77.4696 150.424 74.3537 147.998C70.6726 145.133 71.8611 137.082 77.4696 133.444C81.9564 130.532 86.8172 128.997 88.6866 128.592" stroke="#131515"/>
<path d="M166.02 148.656H157.848V182.362H166.02V148.656Z" fill="#B8E6E1" stroke="#131515"/>
<path d="M181.137 144.239H172.965V182.362H181.137V144.239Z" fill="#2F9387" stroke="#131515"/>
<path d="M196.253 140.453H188.082V182.362H196.253V140.453Z" fill="#B8E6E1" stroke="#131515"/>
<path d="M211.37 129.093H203.198V182.362H211.37V129.093Z" fill="#2F9387" stroke="#131515"/>
<path d="M276.746 264.01L268.854 249.911L276.652 245.991L285.127 260.804L276.746 264.01Z" fill="white" stroke="#131515"/>
<path d="M296.382 261.391C295.893 258.056 287.41 255.454 283.23 254.57L275.478 263.767C274.931 267.678 273.593 276.442 272.616 280.211C271.394 284.921 278.78 285.131 280.296 283.331C281.746 281.611 296.994 265.557 296.382 261.391Z" fill="white" stroke="#131515"/>
<path d="M272.458 281.071C275.181 279.778 281.856 274.142 284.687 270.783C287.517 267.424 291.15 260.669 292.611 257.711" stroke="#131515"/>
<path d="M280.606 269.798C280.888 269.832 281.145 269.638 281.18 269.363C281.216 269.089 281.015 268.838 280.733 268.804L280.669 269.301L280.606 269.798ZM275.488 265.681L275.103 266.013C275.628 266.591 276.52 267.465 277.503 268.226C277.995 268.607 278.518 268.965 279.037 269.244C279.55 269.521 280.089 269.735 280.606 269.798L280.669 269.301L280.733 268.804C280.401 268.763 279.994 268.614 279.536 268.367C279.082 268.124 278.608 267.8 278.143 267.441C277.216 266.723 276.367 265.892 275.874 265.349L275.488 265.681Z" fill="#131515"/>
<path d="M278.971 273.23C279.253 273.264 279.511 273.069 279.546 272.795C279.581 272.52 279.381 272.27 279.099 272.236L279.035 272.733L278.971 273.23ZM274.352 269.565L273.966 269.897C274.489 270.472 275.257 271.236 276.123 271.888C276.973 272.528 277.98 273.11 278.971 273.23L279.035 272.733L279.099 272.236C278.389 272.149 277.564 271.706 276.753 271.095C275.956 270.495 275.234 269.779 274.737 269.233L274.352 269.565Z" fill="#131515"/>
<path d="M224.642 80.5165C224.376 83.6196 220.14 85.5766 219.723 89.3992C218.393 101.553 243.356 106.722 245.899 108.702C248.557 110.77 247.494 115.166 245.899 121.114C244.305 127.062 244.305 135.078 250.417 138.439C260.765 144.131 272.342 152.942 281.978 140.91C289.684 131.287 281.978 125.455 284.37 115.255C287.324 102.655 272.857 101.616 274.455 90.8052C275.317 84.9725 273.122 75.7573 266.347 72.7845C253.769 67.2661 252.795 63.4755 240.85 61.8986C234.439 61.0521 228.866 64.6578 226.091 68.1307C224.231 70.458 224.907 77.4135 224.642 80.5165Z" fill="#131515"/>
<path d="M176.864 86.9997C178.778 86.9997 178.724 93.2057 178.458 96.3087L171.155 101.099C167.634 98.125 164.712 94.2463 164.712 89.3337C164.712 85.4551 168.039 79.0752 169.424 83.121C170.753 86.9997 170.753 88.2999 174.473 90.8785C174.473 89.5856 174.952 86.9997 176.864 86.9997Z" fill="white" stroke="#131515"/>
<path d="M193.244 62.2007V72.544H184.208C181.817 68.4929 177.406 60.0286 178.894 58.5806C180.754 56.7705 180.754 62.2007 184.208 62.2007C187.663 62.2007 184.74 54.7018 184.208 53.1503C183.677 51.5989 185.005 49.5302 188.46 51.3403C191.914 53.1503 193.244 58.0634 193.244 62.2007Z" fill="white" stroke="#131515"/>
<path d="M226.553 283.523L227.439 267.491L236.192 268.138L235.416 285.074L226.553 283.523Z" fill="white" stroke="#131515"/>
<path d="M239.573 294.773C241.912 292.29 238.599 284.258 236.65 280.551H224.427C220.973 282.62 213.162 287.171 209.548 288.826C205.031 290.894 209.547 296.583 211.939 296.583C214.224 296.583 236.65 297.876 239.573 294.773Z" fill="white" stroke="#131515"/>
<path d="M208.886 288.7C211.632 289.476 218.053 291.797 223.697 291.797C228.161 291.797 235.831 290.246 239.108 289.47" stroke="#131515"/>
<path d="M278.899 250.684L270.928 254.045C258.758 241.073 249.874 227.563 240.636 212.413L237.182 275.248H226.819C222.302 256.114 213.214 215.619 213.002 206.724C212.789 197.829 222.125 164.945 226.819 152.62L263.754 160.697C263.222 172.419 262.478 196.95 263.754 201.294C265.348 206.724 269.068 211.896 272.788 217.843C275.764 222.601 278.102 241.72 278.899 250.684Z" fill="#131515"/>
<path d="M254.983 168.454C258.359 179.767 242.843 190.232 240.439 200.524C239.376 205.075 236.896 269.393 236.719 273.186" stroke="white"/>
<path d="M178.191 96.3094L171.548 101.482C176.685 107.084 182.954 116.202 193.337 121.392C204.4 126.921 216.365 126.046 224.691 126.822L216.188 154.491L262.954 162.248C262.954 162.248 270.12 121.663 267.01 111.572C263.899 101.482 248.941 98.1255 248.941 98.1255C243.627 98.1255 242.617 104.332 238.578 104.332C234.539 104.332 231.777 98.0333 229.474 96.3094C224.691 95.2751 214.328 93.2064 207.951 90.1034C203.29 87.8355 196.349 76.3123 193.337 69.1583L182.975 70.4512C183.949 75.1918 186.631 86.4893 188.554 91.9135C192.212 102.228 212.937 109.633 212.937 109.633C212.937 109.633 188.554 108.34 178.191 96.3094Z" fill="white" stroke="#131515"/>
<path d="M227.685 110.15C221.706 110.15 217.057 110.796 209.085 109.116" stroke="#131515"/>
<path d="M241.064 103.935C236.388 105.591 232.03 99.4532 230.436 96.1779L233.093 91.1637V82.473C233.093 73.8386 242.393 78.4929 242.393 82.473L244.518 96.1779C245.316 98.0741 245.741 102.28 241.064 103.935Z" fill="white" stroke="#131515"/>
<path d="M244.893 82.397C244.043 84.0519 242.236 85.3276 241.439 85.7586C241.439 85.7586 234.61 88.1927 232.139 85.7586C229.668 83.3246 227.622 80.0697 229.482 75.4153C230.926 71.8002 232.405 70.2437 236.922 70.5023C241.439 70.7608 241.439 76.9668 244.893 76.9668C248.347 76.9668 245.956 80.3284 244.893 82.397Z" fill="white" stroke="#131515"/>
<path d="M223.365 126.564C228.679 126.564 239.945 125.84 242.496 122.943" stroke="#131515"/>
<path d="M225.894 287.129C226.176 287.163 226.434 286.969 226.469 286.694C226.505 286.419 226.304 286.169 226.022 286.135L225.958 286.632L225.894 287.129ZM220.777 283.012L220.391 283.344C220.917 283.922 221.808 284.796 222.791 285.556C223.283 285.937 223.806 286.296 224.326 286.575C224.838 286.851 225.377 287.066 225.894 287.129L225.958 286.632L226.022 286.135C225.689 286.094 225.282 285.944 224.824 285.698C224.371 285.454 223.896 285.13 223.432 284.772C222.504 284.054 221.655 283.222 221.163 282.68L220.777 283.012Z" fill="#131515"/>
<path d="M222.602 288.939C222.885 288.973 223.142 288.779 223.177 288.504C223.212 288.229 223.012 287.979 222.73 287.944L222.666 288.442L222.602 288.939ZM217.485 284.822L217.099 285.153C217.625 285.732 218.516 286.606 219.499 287.366C219.992 287.746 220.515 288.105 221.033 288.385C221.547 288.661 222.085 288.876 222.602 288.939L222.666 288.442L222.73 287.944C222.398 287.904 221.99 287.754 221.531 287.508C221.078 287.263 220.603 286.94 220.14 286.582C219.212 285.864 218.363 285.032 217.87 284.489L217.485 284.822Z" fill="#131515"/>
<path d="M165.666 36.5817C167.238 36.5817 168.778 36.7081 170.272 36.9507H170.273C171.061 37.0757 171.683 37.6801 171.862 38.4755L173.241 44.6074L173.299 44.8639L173.549 44.9637C175.249 45.6444 176.843 46.5453 178.285 47.6249L178.499 47.7844L178.755 47.7051L184.902 45.8044C185.689 45.561 186.546 45.783 187.053 46.375C187.93 47.4085 188.732 48.5058 189.446 49.6646L189.961 50.5288C190.568 51.5939 191.098 52.694 191.549 53.836L191.542 53.8438L191.656 54.1443C191.932 54.874 191.704 55.7032 191.089 56.2407L191.087 56.2428L186.308 60.4739L186.109 60.65L186.145 60.9104C186.263 61.7809 186.328 62.6715 186.328 63.5716C186.328 64.4718 186.263 65.3631 186.145 66.2338L186.109 66.4941L186.308 66.6703L191.087 70.9015L191.089 70.9034C191.666 71.4074 191.903 72.1676 191.703 72.8619L191.656 72.9999C191.182 74.2491 190.609 75.4471 189.95 76.6046L189.435 77.4678C188.721 78.6269 187.92 79.7237 187.042 80.7574L187.041 80.7584C186.537 81.3568 185.682 81.5739 184.891 81.329L178.745 79.4283L178.488 79.349L178.275 79.5086C176.831 80.5881 175.238 81.489 173.538 82.1697L173.288 82.2695L173.23 82.526L171.851 88.6579C171.672 89.4531 171.051 90.0575 170.263 90.1827H170.261C168.766 90.4253 167.228 90.5517 165.656 90.5517C164.084 90.5517 162.545 90.4253 161.05 90.1827H161.048C160.26 90.0577 159.639 89.4533 159.46 88.6579L158.08 82.526L158.023 82.2695L157.773 82.1697C156.073 81.489 154.48 80.5881 153.037 79.5086L152.823 79.349L152.565 79.4283L146.43 81.3398C145.692 81.568 144.892 81.3863 144.378 80.8739L144.28 80.7672C143.402 79.7337 142.6 78.6373 141.886 77.4787L141.371 76.6153C140.795 75.6026 140.285 74.5585 139.848 73.4765L139.665 73.0097C139.39 72.2802 139.617 71.4515 140.232 70.9142L140.235 70.9122L145.013 66.6811L145.212 66.5049L145.178 66.2456C145.059 65.3634 144.993 64.4718 144.993 63.5716C144.993 62.6715 145.058 61.7809 145.177 60.9104L145.213 60.65L145.013 60.4739L140.235 56.2428L140.232 56.2407L140.122 56.136C139.592 55.5996 139.407 54.8291 139.665 54.1453C140.14 52.8958 140.712 51.6973 141.371 50.5396L141.886 49.6763C142.6 48.5173 143.402 47.4205 144.281 46.3868L144.282 46.3857C144.785 45.7873 145.64 45.5702 146.431 45.8152L152.576 47.7159L152.833 47.7952L153.047 47.6356C154.491 46.556 156.084 45.6551 157.785 44.9744L158.034 44.8746L158.091 44.6182L159.472 38.4863C159.651 37.6909 160.271 37.0865 161.06 36.9614L161.065 36.9604C162.557 36.7078 164.095 36.5817 165.666 36.5817ZM165.666 54.48C163.188 54.48 160.812 55.4381 159.06 57.1432C157.308 58.8482 156.323 61.1604 156.323 63.5716C156.323 65.983 157.308 68.2959 159.06 70.001C160.812 71.7061 163.188 72.6642 165.666 72.6642C168.144 72.6641 170.521 71.7061 172.273 70.001C174.025 68.2959 175.009 65.9828 175.009 63.5716C175.009 61.1605 174.025 58.8482 172.273 57.1432C170.521 55.4382 168.144 54.4801 165.666 54.48Z" fill="#90DED5" stroke="#131515"/>
<path d="M35.9344 212.975C38.0031 212.975 40.029 213.142 41.997 213.46L41.9991 213.461C43.1023 213.637 43.9626 214.481 44.2107 215.58L46.019 223.616L46.0764 223.873L46.3257 223.973C48.5679 224.87 50.6688 226.059 52.5715 227.482L52.7847 227.641L53.0412 227.562L61.0972 225.069C62.1859 224.733 63.3793 225.039 64.0883 225.869C65.2419 227.228 66.2956 228.668 67.2353 230.192V230.193L67.9151 231.332C68.7306 232.765 69.4432 234.245 70.0453 235.783L70.0343 235.795L70.1479 236.095C70.5334 237.115 70.2127 238.268 69.3614 239.012L69.3594 239.014L63.0966 244.561L62.8975 244.736L62.9326 244.996C63.089 246.143 63.174 247.319 63.174 248.506C63.174 249.693 63.089 250.867 62.9326 252.014L62.8975 252.275L63.0966 252.451L69.3594 257.997L69.3614 257.999C70.2127 258.744 70.5334 259.895 70.1479 260.915C69.5224 262.561 68.7692 264.14 67.9011 265.664L67.2212 266.805C66.2813 268.328 65.2272 269.77 64.0732 271.128L64.0722 271.129C63.4102 271.916 62.3229 272.226 61.2892 271.983L61.0831 271.927L53.0271 269.435L52.7706 269.356L52.5574 269.516C50.6547 270.939 48.5538 272.127 46.3117 273.025L46.0623 273.126L46.0039 273.381L44.1966 281.417C43.9484 282.517 43.0875 283.361 41.9839 283.536H41.982C40.0141 283.856 37.9888 284.022 35.9203 284.022C33.8517 284.022 31.8257 283.856 29.8577 283.536C28.7542 283.361 27.8922 282.517 27.644 281.417L25.8367 273.381L25.7784 273.126L25.5289 273.025L24.6952 272.675C22.7649 271.827 20.9481 270.761 19.2832 269.516L19.069 269.356L18.8126 269.436L10.7716 271.941C9.68278 272.278 8.48939 271.971 7.78052 271.141C6.62527 269.781 5.57009 268.338 4.62951 266.813L3.95868 265.687C3.19727 264.351 2.52346 262.973 1.94718 261.545L1.70681 260.929C1.32159 259.909 1.64227 258.758 2.4933 258.014L2.49531 258.011L8.75811 252.465L8.95724 252.29L8.92204 252.03C8.76566 250.867 8.68067 249.692 8.68066 248.506C8.68066 247.319 8.76575 246.143 8.92204 244.996L8.95724 244.736L8.75811 244.561L2.49531 239.014L2.4933 239.012L2.33942 238.868C1.60448 238.124 1.34568 237.052 1.70681 236.096C2.33349 234.447 3.0885 232.866 3.95868 231.338L3.95767 231.337L4.62951 230.213C5.57033 228.687 6.62591 227.243 7.78152 225.883L7.78253 225.881C8.48863 225.042 9.67895 224.747 10.7716 225.084H10.7727L18.8276 227.575L19.0841 227.654L19.2984 227.495C21.201 226.072 23.302 224.884 25.544 223.986L25.7934 223.887L25.8508 223.63L27.6581 215.592C27.9066 214.494 28.7676 213.651 29.8707 213.475L29.8758 213.474C31.8413 213.142 33.8658 212.975 35.9344 212.975ZM35.9344 236.745C32.7294 236.745 29.6559 237.984 27.3895 240.189C25.1231 242.395 23.8493 245.387 23.8493 248.506C23.8494 251.625 25.1232 254.616 27.3895 256.822C29.6559 259.027 32.7295 260.266 35.9344 260.267C39.1395 260.267 42.2138 259.028 44.4803 256.822C46.7466 254.616 48.0204 251.625 48.0205 248.506C48.0205 245.387 46.7466 242.395 44.4803 240.189C42.2138 237.984 39.1396 236.745 35.9344 236.745Z" fill="white" stroke="#131515"/>
<path d="M59.7374 258.076C60.8849 258.076 62.0083 258.167 63.0996 258.344H63.1016C63.5573 258.415 63.9313 258.728 64.0983 259.159L64.1576 259.351L65.1704 263.823L65.2287 264.079L65.4792 264.179C66.7176 264.671 67.8785 265.322 68.9299 266.103L69.1421 266.26L69.3966 266.182L73.9144 264.796C74.4454 264.633 75.0169 264.783 75.3506 265.17V265.171C75.8313 265.732 76.2808 266.319 76.6953 266.932L77.0976 267.553L77.4748 268.182C77.9018 268.926 78.2748 269.695 78.5961 270.491L78.5942 270.494L78.7098 270.796C78.8905 271.271 78.7429 271.817 78.3306 272.175L78.3287 272.177L74.8165 275.262L74.6154 275.439L74.6517 275.7C74.738 276.33 74.7853 276.973 74.7853 277.624C74.7853 278.274 74.738 278.918 74.6517 279.547L74.6154 279.809L74.8165 279.984L78.3287 283.07L78.3306 283.072C78.6916 283.386 78.8496 283.843 78.7621 284.271L78.7098 284.45C78.364 285.354 77.9472 286.22 77.4667 287.058L77.0895 287.686C76.5682 288.525 75.9834 289.32 75.3425 290.068L75.3405 290.07C75.0509 290.411 74.5795 290.568 74.1075 290.491L73.9063 290.443L69.3885 289.057L69.134 288.979L68.9219 289.136C67.8705 289.917 66.7096 290.569 65.4712 291.061L65.2207 291.16L65.1624 291.416L64.1486 295.888C64.0282 296.417 63.6145 296.815 63.0936 296.896H63.0915C62.0002 297.072 60.8768 297.163 59.7293 297.163C58.5818 297.163 57.4584 297.072 56.3671 296.896H56.3651C55.9094 296.825 55.5354 296.511 55.3684 296.08L55.3091 295.888L54.2963 291.416L54.238 291.16L53.9875 291.061L53.5269 290.869C52.4606 290.404 51.4568 289.82 50.5368 289.136L50.3236 288.979L50.0691 289.057L45.5604 290.451C45.0618 290.605 44.5281 290.48 44.1885 290.145L44.1232 290.075C43.4826 289.327 42.8983 288.533 42.3772 287.694L42 287.066C41.64 286.438 41.3159 285.794 41.0304 285.13L40.7569 284.458C40.5763 283.983 40.7238 283.438 41.1361 283.08L41.1381 283.078L44.6502 279.992L44.8503 279.816L44.8151 279.555C44.7287 278.917 44.6814 278.273 44.6814 277.624C44.6814 276.973 44.7288 276.33 44.8151 275.7L44.8513 275.439L44.6502 275.262L41.1381 272.177L41.1361 272.175L40.9933 272.032C40.7346 271.732 40.6296 271.344 40.7046 270.977L40.7569 270.796C41.1027 269.893 41.5195 269.027 42 268.19L42.3772 267.561C42.8985 266.722 43.4833 265.928 44.1242 265.179L44.1262 265.177C44.457 264.787 45.0252 264.64 45.5604 264.804L50.0782 266.19L50.3327 266.268L50.5448 266.111C51.5962 265.33 52.7571 264.679 53.9956 264.187L54.246 264.087L54.3043 263.831L55.3171 259.358C55.4378 258.83 55.8525 258.433 56.3732 258.351V258.352L56.3782 258.351C57.4673 258.168 58.5897 258.076 59.7374 258.076ZM59.7374 270.858C57.8814 270.858 56.1006 271.569 54.7871 272.838C53.4734 274.106 52.7344 275.828 52.7344 277.624C52.7344 279.42 53.4734 281.141 54.7871 282.409C56.1006 283.678 57.8814 284.39 59.7374 284.39C61.5933 284.39 63.3741 283.678 64.6876 282.409C66.0013 281.141 66.7404 279.42 66.7404 277.624C66.7404 275.828 66.0013 274.106 64.6876 272.838C63.3741 271.569 61.5933 270.858 59.7374 270.858Z" fill="white" stroke="#131515"/>
<path d="M74.2075 47.2828L71.2856 58.7088L63.743 53.1933L74.2075 47.2828Z" fill="white"/>
<path d="M73.8542 47.6929L72.0653 53.0415L68.5747 50.8575L73.8542 47.6929Z" fill="#131515"/>
<path d="M70.7829 58.8693L73.7614 47.8608L63.8916 53.6156" stroke="#131515"/>
<path d="M25.5142 115.03L20.8901 111.649C20.208 111.15 20.0705 110.208 20.5831 109.544L63.6581 53.758L70.7522 58.9456L27.6773 114.731L27.5759 114.849C27.0801 115.372 26.2709 115.484 25.6452 115.116L25.5142 115.03Z" fill="white" stroke="#131515"/>
<path d="M29.8209 111.898L22.7828 106.751" stroke="#131515"/>
<path d="M31.0732 103.145L48.8635 80.1054" stroke="#131515" stroke-linecap="round"/>
<path d="M52.6403 75.2143L61.6812 63.5054" stroke="#131515" stroke-linecap="round"/>
</g>
<defs>
<clipPath id="clip0_1_1291">
<rect width="298.667" height="298.667" fill="white"/>
</clipPath>
</defs>
</svg>
